<?xml version="1.0" encoding="UTF-8"?>
<!DOCTYPE svg PUBLIC "-//W3C//DTD SVG 1.1//EN" "http://www.w3.org/Graphics/SVG/1.1/DTD/svg11.dtd">
<!-- Creator: CorelDRAW (Evaluation Version) -->
<svg xmlns="http://www.w3.org/2000/svg" xml:space="preserve" width="210mm" height="297mm" version="1.1" style="shape-rendering:geometricPrecision; text-rendering:geometricPrecision; image-rendering:optimizeQuality; fill-rule:evenodd; clip-rule:evenodd"
viewBox="0 0 21000 29700"
 xmlns:xlink="http://www.w3.org/1999/xlink"
 xmlns:xodm="http://www.corel.com/coreldraw/odm/2003">
 <defs>
  <style type="text/css">
   <![CDATA[
    .str3 {stroke:black;stroke-width:33.87;stroke-miterlimit:22.9256}
    .str4 {stroke:black;stroke-width:8.47;stroke-miterlimit:22.9256}
    .str0 {stroke:black;stroke-width:67.73;stroke-miterlimit:22.9256}
    .str1 {stroke:black;stroke-width:42.33;stroke-miterlimit:22.9256}
    .str2 {stroke:black;stroke-width:25.4;stroke-miterlimit:22.9256}
    .str5 {stroke:black;stroke-width:7.62;stroke-miterlimit:22.9256}
    .fil0 {fill:none}
    .fil1 {fill:black}
   ]]>
  </style>
 </defs>
 <g id="????_x0020_1">
  <metadata id="CorelCorpID_0Corel-Layer"/>
  <path class="fil0 str0" d="M9971 5889c45,404 5,637 -120,699 -342,224 -664,385 -966,483 -463,70 -794,317 -992,741 -174,305 -245,718 -212,1237 -12,102 -23,179 -33,232 -106,406 -159,1004 -159,1793 -261,382 -409,788 -443,1217 -25,172 -56,360 -93,562 -157,865 -339,1314 -556,1396 -187,121 -245,224 -372,392 -117,126 -245,263 -384,413 -27,45 -17,88 30,129 257,127 304,-152 523,-281 178,-38 -46,754 -71,878 -48,253 -70,426 -66,519 22,72 65,92 129,60 86,-129 188,-427 308,-893 -19,95 -293,1258 43,1098 64,-66 93,-176 136,-372 77,-432 116,-648 116,-648 -54,449 -84,759 -89,929 46,90 146,110 208,36 100,-404 164,-726 192,-966 -60,434 -57,685 10,754 65,21 115,-10 152,-93 56,-243 82,-443 79,-599 -13,-113 12,-235 73,-364 104,-313 106,-617 7,-913 90,-302 215,-600 377,-893 278,-541 468,-957 569,-1250 106,-250 161,-572 165,-966 147,-467 245,-1139 210,-1622 16,-428 -41,-718 -169,-870"/>
  <path class="fil0 str0" d="M8749 9743c74,683 139,1379 127,1719 28,247 26,541 -3,883 -73,353 -123,705 -149,1055 -202,776 -320,1615 -354,2517 -43,1235 7,2186 150,2853 27,456 17,952 -29,1488 -40,402 -79,750 -116,1042 -66,408 -27,939 116,1593 132,422 211,891 238,1408 -6,215 -1,395 16,540 -48,138 -49,265 -5,381 6,144 -19,271 -74,381 -73,117 -124,219 -153,307 -46,53 -83,95 -111,127 -211,96 -311,188 -302,275"/>
  <path class="fil0 str0" d="M12720 9743c-74,683 -139,1379 -127,1719 -28,247 -26,541 3,883 73,353 123,705 149,1055 202,776 320,1615 354,2517 43,1235 -7,2186 -150,2853 -27,456 -17,952 29,1488 40,402 79,750 116,1042 66,408 27,939 -116,1593 -132,422 -211,891 -238,1408 6,215 1,395 -16,540 48,138 49,265 5,381 -6,144 19,271 74,381 73,117 124,219 153,307 46,53 83,95 111,127 211,96 311,188 302,275"/>
  <path class="fil0 str0" d="M10338 14903c272,189 517,177 736,-37"/>
  <path class="fil0 str0" d="M10610 15027c-12,697 -96,1461 -251,2294 -54,393 -123,802 -206,1228 -47,378 -109,686 -184,925 -58,115 -123,235 -193,357 -22,50 -26,185 -13,405 -13,106 -86,201 -220,286 -140,84 -300,93 -479,26"/>
  <path class="fil0 str0" d="M10859 15027c12,697 96,1461 251,2294 54,393 123,802 206,1228 47,378 109,686 184,925 191,379 233,315 206,762 13,106 86,201 220,286 140,84 300,93 479,26"/>
  <path class="fil0 str0" d="M9981 19432c-20,435 -61,794 -124,1078 -29,181 -125,406 -289,677"/>
  <path class="fil0 str0" d="M11488 19432c20,435 61,794 124,1078 29,181 35,168 199,439"/>
  <path class="fil0 str0" d="M9857 20510c1,326 8,604 23,833 -7,726 -17,1152 -214,1847 -119,594 -151,1111 -95,1550 136,242 136,432 0,572 6,156 29,397 69,725 112,184 114,327 5,429 -128,63 -190,91 -249,116 -208,46 -328,16 -360,-90 -60,-152 -9,-283 153,-392"/>
  <path class="fil0 str0" d="M11611 20510c-1,326 -8,604 -23,833 7,726 17,1152 214,1847 119,594 151,1111 95,1550 -136,242 -136,432 0,572 -6,156 -29,397 -69,725 -112,184 -114,327 -5,429 128,63 190,91 249,116 208,46 328,16 360,-90 60,-152 9,-283 -153,-392"/>
  <path class="fil0 str1" d="M9023 26453c-57,126 -141,157 -251,92 -139,-144 41,-313 148,-413"/>
  <path class="fil0 str1" d="M12445 26453c57,126 141,157 251,92 139,-144 -41,-313 -148,-413"/>
  <path class="fil0 str1" d="M8731 26479c-32,72 -93,92 -183,59 -165,-84 -43,-312 77,-370"/>
  <path class="fil0 str1" d="M12738 26479c32,72 93,92 183,59 165,-84 43,-312 -77,-370"/>
  <path class="fil0 str1" d="M8471 26444c-29,63 -79,87 -151,73 -178,-72 -49,-276 79,-341"/>
  <path class="fil0 str1" d="M12997 26444c29,63 79,87 151,73 178,-72 49,-276 -79,-341"/>
  <path class="fil0 str1" d="M8099 26288c-25,118 26,191 151,171"/>
  <path class="fil0 str1" d="M13370 26288c25,118 -26,191 -151,171"/>
  <path class="fil0 str0" d="M7490 11072c62,156 136,255 220,295 112,17 234,-20 365,-111"/>
  <path class="fil0 str0" d="M13979 11072c-160,290 -280,300 -585,184"/>
  <path class="fil0 str0" d="M8191 10790c93,-166 141,-374 143,-622"/>
  <path class="fil0 str1" d="M13278 10790c-93,-166 -141,-374 -143,-622"/>
  <path class="fil0 str1" d="M8461 8812c91,-58 145,-147 163,-269"/>
  <path class="fil0 str1" d="M13008 8812c-91,-58 -145,-147 -163,-269"/>
  <path class="fil0 str0" d="M9026 9740c-181,-84 -281,-282 -300,-594"/>
  <path class="fil0 str0" d="M12504 9674c181,-84 220,-216 240,-528"/>
  <path class="fil0 str1" d="M7674 8757c-5,209 39,365 131,468"/>
  <path class="fil0 str0" d="M13795 8757c5,209 -39,365 -131,468"/>
  <path class="fil0 str0" d="M9748 4505c-322,-133 -171,401 -100,556 0,164 56,249 169,253"/>
  <path class="fil0 str0" d="M11611 4505c322,-133 171,401 100,556 0,164 -56,249 -169,253"/>
  <path class="fil0 str0" d="M9071 11974c-302,603 -382,1150 -238,1640"/>
  <path class="fil0 str0" d="M12398 11974c225,634 382,1150 238,1640"/>
  <path class="fil0 str1" d="M9253 9803c67,47 146,54 243,53"/>
  <path class="fil0 str1" d="M12222 9817c-81,30 -152,40 -249,38"/>
  <path class="fil0 str0" d="M9398 7020c186,116 564,171 762,71 59,-25 116,-14 169,13 82,53 101,94 117,143"/>
  <path class="fil0 str0" d="M12071 7020c-484,302 -922,-142 -1049,228"/>
  <path class="fil0 str1" d="M10535 7065c40,130 80,211 180,238 106,-19 142,-101 159,-233"/>
  <path class="fil0 str0" d="M8520 18769c45,95 95,209 150,342 -6,119 4,236 29,352 27,71 55,116 82,132"/>
  <path class="fil0 str0" d="M12980 18615c-5,108 -126,364 -181,497 6,119 -4,236 -29,352 -27,71 -55,116 -82,132"/>
  <path class="fil0 str0" d="M9953 4493c207,-70 377,-42 572,-5"/>
  <path class="fil0 str1" d="M10043 4673c140,-80 284,-78 434,8"/>
  <path class="fil0 str1" d="M11378 4673c-140,-80 -284,-78 -434,8"/>
  <path class="fil0 str2" d="M10136 4752c150,45 233,7 248,-114"/>
  <path class="fil0 str2" d="M11285 4752c-150,45 -270,13 -248,-114"/>
  <circle class="fil1" cx="10251" cy="4696" r="77"/>
  <circle class="fil1" cx="11170" cy="4696" r="77"/>
  <path class="fil0 str1" d="M6416 14239c128,-51 234,-66 318,-44"/>
  <path class="fil0 str1" d="M7441 14394c-52,-70 -107,-116 -167,-137"/>
  <path class="fil0 str1" d="M14028 14394c52,-70 107,-116 167,-137"/>
  <path class="fil0 str1" d="M6433 15095c255,-72 404,-221 447,-447"/>
  <path class="fil0 str1" d="M6602 15185c178,-120 378,-153 601,-98"/>
  <path class="fil0 str1" d="M6375 15389c72,74 162,101 267,79"/>
  <path class="fil0 str1" d="M6789 15541c83,-18 144,-41 181,-70"/>
  <path class="fil0 str1" d="M7100 15541c62,-24 103,-55 124,-92"/>
  <path class="fil0 str1" d="M14369 15541c-62,-24 -103,-55 -124,-92"/>
  <path class="fil0 str1" d="M10701 8253c7,318 7,537 0,659"/>
  <path class="fil0 str1" d="M10584 10039c64,-27 108,-60 132,-101 1,175 -7,345 -24,511"/>
  <path class="fil0 str1" d="M10735 12680c-164,-74 -200,-170 -108,-286 106,-56 189,-44 249,37"/>
  <path class="fil0 str1" d="M10593 12545c126,49 217,-37 176,-173"/>
  <path class="fil0 str1" d="M9015 26339c180,-22 299,-16 321,25 52,-32 63,-72 32,-119 -83,-63 -184,-72 -303,-27"/>
  <path class="fil0 str1" d="M12454 26339c-180,-22 -299,-16 -321,25 -52,-32 -63,-72 -32,-119 139,-33 183,-39 303,-27"/>
  <path class="fil0 str1" d="M8249 26331c83,-14 159,-14 189,-2"/>
  <path class="fil0 str1" d="M13219 26331c-83,-14 -159,-14 -189,-2"/>
  <path class="fil0 str1" d="M8480 26340c85,-17 152,-18 199,-3"/>
  <path class="fil0 str1" d="M12989 26340c-85,-17 -152,-18 -199,-3"/>
  <path class="fil0 str1" d="M8738 26344c83,-30 155,-30 216,2"/>
  <path class="fil0 str1" d="M12731 26344c-83,-30 -155,-30 -216,2"/>
  <path class="fil0 str1" d="M8249 26331c-29,-24 -55,-27 -81,-10"/>
  <path class="fil0 str1" d="M13219 26331c29,-24 55,-27 81,-10"/>
  <path class="fil0 str1" d="M10852 5119c-18,-108 -41,-301 -41,-500 0,-41 3,-93 14,-130 209,-57 490,-31 614,42"/>
  <path class="fil0 str0" d="M10826 4489c209,-57 490,-31 614,42"/>
  <path class="fil0 str3" d="M10357 5622c43,56 138,61 201,37 23,-32 50,-41 79,-29 128,77 181,-20 235,-13 64,-10 85,106 193,37"/>
  <path class="fil0 str2" d="M10500 5755c1,33 19,58 53,75 50,33 107,50 171,50"/>
  <path class="fil0 str1" d="M10948 5755c-1,33 -19,58 -53,75 -50,33 -107,50 -171,50"/>
  <path class="fil1 str1" d="M10899 5808c-132,95 -244,96 -336,4 53,-1 102,14 155,13 59,-1 121,-13 181,-17z"/>
  <path class="fil0 str0" d="M10549 5300c188,74 290,77 307,11"/>
  <path class="fil1" d="M10830 5658c-67,105 -131,91 -179,12 -2,-5 -14,-22 -13,-24 5,-12 55,14 96,14 38,0 100,-31 113,-28 4,1 -16,24 -18,27l1 -1z"/>
  <path class="fil0 str0" d="M11498 5688c48,-242 -5,-483 66,-718 50,-165 47,-328 46,-486 14,-590 -28,-1237 -615,-1323 -181,-18 -363,-36 -562,0 -495,114 -698,486 -688,1204 3,470 52,922 146,1356 147,356 363,568 648,635 135,27 241,16 303,-2 227,-68 595,-442 656,-666z"/>
  <path class="fil0 str0" d="M11498 5688c-105,943 223,1103 1086,1382 463,70 794,317 992,741 174,305 245,718 212,1237 12,102 23,179 33,232 106,406 159,1004 159,1793 261,382 409,788 443,1217 25,172 56,360 93,562 157,865 339,1314 556,1396 187,121 245,224 372,392 117,126 245,263 384,413 27,45 17,88 -30,129 -257,127 -304,-152 -523,-281 -178,-38 46,754 71,878 48,253 70,426 66,519 -22,72 -65,92 -129,60 -86,-129 -188,-427 -308,-893 19,95 293,1258 -43,1098 -64,-66 -93,-176 -136,-372 -77,-432 -116,-648 -116,-648 54,449 84,759 89,929 -264,289 -389,-832 -400,-929 60,434 57,685 -10,754 -65,21 -115,-10 -152,-93 -56,-243 -82,-443 -79,-599 13,-113 -12,-235 -73,-364 -104,-313 -106,-617 -7,-913 -90,-302 -215,-600 -377,-893 -278,-541 -468,-957 -569,-1250 -106,-250 -161,-572 -165,-966 -147,-467 -245,-1139 -210,-1622 -16,-428 41,-718 169,-870"/>
  <path class="fil0 str1" d="M15052 14239c-128,-51 -234,-66 -318,-44"/>
  <path class="fil0 str1" d="M15036 15095c-255,-72 -404,-221 -447,-447"/>
  <path class="fil0 str1" d="M14867 15185c-178,-120 -378,-153 -601,-98"/>
  <path class="fil0 str1" d="M15094 15389c-72,74 -162,101 -267,79"/>
  <path class="fil0 str1" d="M14680 15541c-83,-18 -144,-41 -181,-70"/>
  <path class="fil0 str4" d="M10377 5642c30,52 79,75 147,68"/>
  <path class="fil0 str5" d="M11055 5642c-30,52 -79,75 -147,68"/>
  <path class="fil0 str5" d="M10500 5755c8,-10 32,-12 73,-8"/>
 </g>
</svg>
