<?xml version="1.0" encoding="UTF-8" standalone="no"?>
<svg
   xmlns:dc="http://purl.org/dc/elements/1.1/"
   xmlns:cc="http://creativecommons.org/ns#"
   xmlns:rdf="http://www.w3.org/1999/02/22-rdf-syntax-ns#"
   xmlns:svg="http://www.w3.org/2000/svg"
   xmlns="http://www.w3.org/2000/svg"
   xmlns:sodipodi="http://sodipodi.sourceforge.net/DTD/sodipodi-0.dtd"
   xmlns:inkscape="http://www.inkscape.org/namespaces/inkscape"
   xml:space="preserve"
   width="139.95378mm"
   height="236.14818mm"
   version="1.1"
   style="clip-rule:evenodd;fill-rule:evenodd;image-rendering:optimizeQuality;shape-rendering:geometricPrecision;text-rendering:geometricPrecision"
   viewBox="0 0 13995.378 23614.818"
   id="svg134"
   sodipodi:docname="1.svg"
   inkscape:version="1.0.2 (e86c870879, 2021-01-15)"><metadata
   id="metadata138"><rdf:RDF><cc:Work
       rdf:about=""><dc:format>image/svg+xml</dc:format><dc:type
         rdf:resource="http://purl.org/dc/dcmitype/StillImage" /></cc:Work></rdf:RDF></metadata><sodipodi:namedview
   pagecolor="#ffffff"
   bordercolor="#666666"
   borderopacity="1"
   objecttolerance="10"
   gridtolerance="10"
   guidetolerance="10"
   inkscape:pageopacity="0"
   inkscape:pageshadow="2"
   inkscape:window-width="797"
   inkscape:window-height="480"
   id="namedview136"
   showgrid="false"
   inkscape:zoom="0.85830833"
   inkscape:cx="255.85259"
   inkscape:cy="452.78568"
   inkscape:window-x="23"
   inkscape:window-y="15"
   inkscape:window-maximized="0"
   inkscape:current-layer="svg134" />
 <defs
   id="defs4">
  <style
   type="text/css"
   id="style2">
   <![CDATA[
    .str8 {stroke:black;stroke-width:7.62}
    .str6 {stroke:black;stroke-width:25.4}
    .str7 {stroke:black;stroke-width:42.33}
    .str0 {stroke:#D9D9D9;stroke-width:42.33}
    .str5 {stroke:black;stroke-width:67.73}
    .str3 {stroke:#D9D9D9;stroke-width:67.73}
    .str4 {stroke:black;stroke-width:84.67}
    .str2 {stroke:#D9D9D9;stroke-width:84.67}
    .str1 {stroke:black;stroke-width:127}
    .fil1 {fill:none}
    .fil3 {fill:black}
    .fil2 {fill:#EEE8E7}
    .fil0 {fill:#F8F8F8}
   ]]>
  </style>
 </defs>
 <g
   id="Слой_x0020_1"
   transform="translate(-730.56689,-520.04561)">
  <metadata
   id="CorelCorpID_0Corel-Layer" />
  <path
   class="fil0"
   d="m 10865,19765 c 895,252 1636,180 2224,-216 166,-194 230,-463 191,-806 -7,-192 -115,-392 -324,-602 43,32 86,56 130,72 387,250 506,462 769,810 242,259 506,544 792,854 55,93 35,182 -61,266 -532,263 -627,-314 -1079,-581 -368,-78 95,1558 147,1814 99,522 145,880 137,1073 -45,149 -134,190 -266,123 -177,-267 -389,-881 -635,-1845 38,196 605,2598 -89,2268 -133,-137 -193,-363 -280,-769 -159,-893 -239,-1339 -239,-1339 112,928 174,1568 184,1920 -85,183 -308,209 -379,84 -229,-403 -430,-1849 -448,-2004 124,896 117,1415 -20,1558 -134,44 -238,-20 -314,-191 -115,-503 -170,-915 -164,-1237 26,-234 -24,-485 -150,-751 -56,-168 -97,-335 -124,-501 z"
   id="path7" />
  <path
   class="fil1 str0"
   d="m 13065,18210 c -263,-106 -482,-136 -657,-90"
   id="path9" />
  <path
   class="fil1 str0"
   d="m 10949,18529 c 106,-144 221,-239 344,-283"
   id="path11" />
  <path
   class="fil1 str0"
   d="m 13151,20585 c -150,153 -334,208 -552,164"
   id="path13" />
  <path
   class="fil1 str0"
   d="m 12296,20900 c -172,-36 -296,-85 -375,-146"
   id="path15" />
  <path
   class="fil1 str0"
   d="m 11654,20900 c -128,-50 -214,-113 -257,-189"
   id="path17" />
  <path
   class="fil2"
   d="M 755,24086 V 3285 c 516,-204 1060,-492 1632,-867 258,-128 341,-609 248,-1443 -60,-108 -130,-290 -182,-415 h 3334 c -218,1948 461,2278 2242,2855 956,145 1639,655 2049,1530 360,631 505,1483 437,2555 25,210 47,369 68,478 219,839 329,2073 328,3702 540,789 845,1627 915,2514 51,356 115,743 191,1161 254,1401 541,2274 868,2666 243,200 394,547 520,945 139,396 -84,772 -605,976 -695,302 -1566,215 -1887,-397 -127,-469 16,-767 141,-1140 -185,-624 -445,-1239 -779,-1844 -575,-1117 -967,-1977 -1175,-2582 -218,-516 -332,-1181 -342,-1995 -304,-964 -506,-2352 -434,-3351 -154,1410 -303,3150 -276,3853 -57,510 -55,1118 7,1824 151,730 254,1456 307,2179 418,1603 661,3336 731,5198 30,867 38,1667 24,2398 H 4895 c -188,-1090 -314,-2122 -380,-3096 -218,63 -303,82 -615,40 -66,964 -192,1978 -377,3056 H 753 Z"
   id="path19" />
  <path
   class="fil0"
   d="m 8276,8633 c 38,-378 7,-806 50,-1083 102,-645 345,-540 380,-945 127,-1481 349,-2159 -554,-3155 956,145 1466,620 1876,1495 360,631 505,1483 437,2555 25,210 47,369 68,478 219,839 329,2073 328,3702 540,789 845,1627 915,2514 51,356 115,743 191,1161 254,1401 541,2274 868,2666 243,200 531,530 656,927 139,396 -194,838 -715,1042 -508,221 -1376,345 -1782,83 -150,-97 -114,-389 -142,-539 -109,-509 80,-768 152,-1130 -185,-624 -445,-1239 -779,-1844 -575,-1117 -967,-1977 -1175,-2582 -218,-516 -332,-1181 -342,-1995 -304,-964 -506,-2352 -434,-3351 z"
   id="path21" />
  <path
   class="fil1 str1"
   d="m 3338,20762 c 561,391 1068,366 1519,-77"
   id="path23" />
  <path
   class="fil1 str1"
   d="m 3849,21000 c -67,982 -197,2024 -388,3124"
   id="path25" />
  <path
   class="fil1 str1"
   d="m 4463,20967 c 66,987 196,2034 388,3140"
   id="path27" />
  <path
   class="fil1 str2"
   d="m 10858,11658 c -331,600 -578,620 -1208,380"
   id="path29" />
  <path
   class="fil1 str3"
   d="m 9410,11076 c -192,-344 -291,-772 -295,-1284"
   id="path31" />
  <path
   class="fil1 str4"
   d="m 7812,8770 c 374,-173 455,-446 495,-1090"
   id="path33" />
  <path
   class="fil1 str3"
   d="m 10478,6876 c 10,431 -80,754 -270,967"
   id="path35" />
  <path
   class="fil1 str1"
   d="m 856,8675 c 138,98 301,112 503,109"
   id="path37" />
  <path
   class="fil1 str1"
   d="m 7229,8800 c -168,63 -313,82 -515,79"
   id="path39" />
  <path
   class="fil1 str5"
   d="m 1396,3288 c 385,240 1164,352 1574,148 122,-52 239,-29 350,27 169,110 208,194 242,295"
   id="path41" />
  <path
   class="fil1 str5"
   d="M 6918,3288 C 5918,3911 5013,2995 4752,3758"
   id="path43" />
  <path
   class="fil1 str5"
   d="m 3746,3381 c 83,268 164,437 372,492 220,-39 294,-208 328,-481"
   id="path45" />
  <path
   class="fil1 str0"
   d="m 10953,18475 c 106,-144 221,-239 344,-283"
   id="path47" />
  <path
   class="fil1 str5"
   d="m 4034,16026 c -339,-154 -413,-351 -224,-590 218,-116 390,-91 514,77"
   id="path49" />
  <path
   class="fil1 str5"
   d="m 3741,15747 c 260,102 447,-76 364,-357"
   id="path51" />
  <path
   class="fil1 str6"
   d="m 3674,677 c 3,69 39,121 109,156 104,68 222,103 352,104"
   id="path53" />
  <path
   class="fil1 str7"
   d="m 4597,677 c -3,69 -39,121 -109,156 -104,68 -222,103 -352,104"
   id="path55" />
  <path
   class="fil3 str7"
   d="m 4496,786 c -272,196 -503,199 -694,8 109,-1 212,29 321,28 122,-1 251,-26 373,-36 z"
   id="path57" />
  <path
   class="fil1 str1"
   d="m 2414,605 c 304,736 750,1173 1339,1312 279,56 498,33 625,-5 469,-141 1228,-913 1356,-1375"
   id="path59" />
  <path
   class="fil1 str3"
   d="m 5733,537 c -218,1948 461,2278 2242,2855 m 176,58 c 956,145 1463,597 1873,1472 360,631 505,1483 437,2555 25,210 47,369 68,478 219,839 329,2073 328,3702 540,789 845,1627 915,2514 51,356 115,743 191,1161 254,1401 541,2274 868,2666 m -1831,383 c -185,-624 -445,-1239 -779,-1844 -575,-1117 -967,-1977 -1175,-2582 -218,-516 -332,-1181 -342,-1995 -304,-964 -506,-2352 -434,-3351 -32,-883 84,-1482 348,-1797"
   id="path61" />
  <path
   class="fil1 str1"
   d="M 2518,836 C 2992,2334 2313,2666 754,3285"
   id="path63" />
  <path
   class="fil1 str0"
   d="m 13078,18241 c -257,-159 -472,-208 -646,-162"
   id="path65" />
  <path
   class="fil1 str8"
   d="m 3674,677 c 17,-21 67,-26 150,-16"
   id="path67" />
  <path
   class="fil1 str5"
   d="m 2124,19228 c 164,232 294,404 390,516"
   id="path69" />
  <path
   class="fil1 str5"
   d="m 5530,19505 c 291,-398 489,-735 595,-1012"
   id="path71" />
  <path
   class="fil1 str5"
   d="m 2077,17137 c 161,558 384,946 668,1164"
   id="path73" />
  <path
   class="fil1 str5"
   d="m 5782,17422 c -36,248 -86,422 -152,523"
   id="path75" />
  <path
   class="fil1 str5"
   d="m 7012,17144 c 163,-251 289,-476 377,-675 135,-240 332,-394 589,-463"
   id="path77" />
  <path
   class="fil1 str5"
   d="m 5874,15629 c 77,463 70,977 -20,1541"
   id="path79" />
  <path
   class="fil1 str5"
   d="m 1985,15854 c 6,243 8,401 7,476"
   id="path81" />
  <path
   class="fil1 str5"
   d="m 3982,13043 c -4,331 -2,542 7,635 64,352 70,683 20,992"
   id="path83" />
  <path
   class="fil1 str5"
   d="m 5610,12911 c 157,182 254,367 291,556"
   id="path85" />
  <path
   class="fil1 str5"
   d="m 2157,13307 c 77,-294 211,-510 403,-648"
   id="path87" />
  <path
   class="fil1 str5"
   d="m 3976,11839 c -4,172 -7,258 -7,258"
   id="path89" />
  <path
   class="fil1 str5"
   d="m 2679,10582 c 356,-531 682,-964 979,-1296"
   id="path91" />
  <path
   class="fil1 str5"
   d="m 3989,9127 c 353,122 767,608 1244,1455 323,588 1327,2544 2196,2051"
   id="path93" />
  <path
   class="fil1 str5"
   d="m 4055,10529 c -35,370 -53,556 -53,556"
   id="path95" />
  <path
   class="fil1 str5"
   d="m 4075,7440 c 166,722 594,1193 1283,1416"
   id="path97" />
  <path
   class="fil1 str5"
   d="m 2554,8882 c 570,-288 927,-628 1072,-1019"
   id="path99" />
  <path
   class="fil1 str5"
   d="m 3996,6045 c 23,282 32,472 26,569"
   id="path101" />
  <path
   class="fil1 str0"
   d="m 11469,18514 c 293,16 436,204 601,585 171,397 449,661 833,794"
   id="path103" />
  <path
   class="fil1 str0"
   d="m 11501,19536 c 294,273 699,412 932,491"
   id="path105" />
  <path
   class="fil1 str0"
   d="m 13033,21224 c 207,-74 351,-110 433,-107"
   id="path107" />
  <path
   class="fil1 str0"
   d="m 13253,21940 c 204,-24 319,-51 345,-82"
   id="path109" />
  <path
   class="fil1 str0"
   d="m 12420,21401 c 230,-7 384,-38 463,-93"
   id="path111" />
  <path
   class="fil1 str0"
   d="m 12516,22131 c 230,-8 406,-38 526,-88"
   id="path113" />
  <path
   class="fil1 str0"
   d="m 11749,21523 c 281,8 482,0 603,-23"
   id="path115" />
  <path
   class="fil1 str0"
   d="m 11887,22202 c 240,19 382,10 428,-27"
   id="path117" />
  <path
   class="fil1 str0"
   d="m 11161,21283 c 173,27 306,33 399,19"
   id="path119" />
  <path
   class="fil1 str0"
   d="m 11245,21913 c 171,2 280,0 328,-9"
   id="path121" />
  <path
   class="fil1 str0"
   d="m 13815,19825 c 18,-108 116,-178 292,-210"
   id="path123" />
  <path
   class="fil1 str1"
   d="m 8151,3434 c 112,154 305,429 461,653 132,208 201,425 205,650 46,383 61,1180 -196,2077"
   id="path125" />
  <path
   class="fil1 str1"
   d="m 9064,24122 c 16,-748 8,-1567 -22,-2458 -70,-1863 -313,-3595 -731,-5198 -54,-723 -156,-1449 -307,-2179 -61,-706 -64,-1314 -7,-1824 -26,-703 108,-2141 262,-3551 -49,-1041 72,-1740 363,-2098"
   id="path127" />
  <path
   class="fil1 str1"
   d="m 5727,560 c -117,1060 68,1747 554,2061 473,358 1074,639 1884,831"
   id="path129" />
  <path
   class="fil1 str3"
   d="m 12761,17904 c 113,164 217,275 340,322 387,250 506,462 769,809 242,259 506,544 792,854 55,93 35,182 -61,266 -532,263 -627,-314 -1079,-581 -368,-78 95,1558 147,1814 99,522 145,879 137,1072 -45,149 -134,190 -266,123 -177,-266 -389,-881 -635,-1844 38,196 605,2598 -89,2267 -133,-137 -193,-363 -280,-769 -159,-893 -239,-1339 -239,-1339 112,928 174,1568 184,1920 -96,187 -302,228 -430,75 -207,-834 -339,-1499 -396,-1995 124,896 117,1415 -20,1557 -133,44 -238,-20 -314,-191 -115,-503 -170,-915 -164,-1236 26,-234 -24,-485 -150,-751 -214,-646 -211,-1285 -7,-1896"
   id="path131" />
 </g>
</svg>
