<?xml version="1.0" encoding="UTF-8" standalone="no"?>
<svg
   xmlns:dc="http://purl.org/dc/elements/1.1/"
   xmlns:cc="http://creativecommons.org/ns#"
   xmlns:rdf="http://www.w3.org/1999/02/22-rdf-syntax-ns#"
   xmlns:svg="http://www.w3.org/2000/svg"
   xmlns="http://www.w3.org/2000/svg"
   xmlns:sodipodi="http://sodipodi.sourceforge.net/DTD/sodipodi-0.dtd"
   xmlns:inkscape="http://www.inkscape.org/namespaces/inkscape"
   xml:space="preserve"
   width="38.838295mm"
   height="48.422691mm"
   version="1.1"
   style="clip-rule:evenodd;fill-rule:evenodd;image-rendering:optimizeQuality;shape-rendering:geometricPrecision;text-rendering:geometricPrecision"
   viewBox="0 0 3883.8294 4842.2692"
   id="svg46"
   sodipodi:docname="1.svg"
   inkscape:version="1.0.2 (e86c870879, 2021-01-15)"><metadata
   id="metadata50"><rdf:RDF><cc:Work
       rdf:about=""><dc:format>image/svg+xml</dc:format><dc:type
         rdf:resource="http://purl.org/dc/dcmitype/StillImage" /></cc:Work></rdf:RDF></metadata><sodipodi:namedview
   pagecolor="#ffffff"
   bordercolor="#666666"
   borderopacity="1"
   objecttolerance="10"
   gridtolerance="10"
   guidetolerance="10"
   inkscape:pageopacity="0"
   inkscape:pageshadow="2"
   inkscape:window-width="1920"
   inkscape:window-height="1052"
   id="namedview48"
   showgrid="false"
   inkscape:zoom="4.682423"
   inkscape:cx="71.501048"
   inkscape:cy="91.177379"
   inkscape:window-x="0"
   inkscape:window-y="0"
   inkscape:window-maximized="1"
   inkscape:current-layer="svg46"
   inkscape:document-rotation="0" />
 <defs
   id="defs4">
  <style
   type="text/css"
   id="style2">
   <![CDATA[
    .str2 {stroke:#323232;stroke-width:33.87}
    .str1 {stroke:#323232;stroke-width:42.33}
    .str0 {stroke:#323232;stroke-width:84.67}
    .fil1 {fill:none}
    .fil0 {fill:#DDDDDD}
   ]]>
  </style>
 </defs>
 <g
   id="Слой_x0020_1"
   transform="rotate(0.3,270876.57,-409254.68)">
  <metadata
   id="CorelCorpID_0Corel-Layer" />
  <path
   class="fil0"
   d="m 2196,2997 c 73,295 134,571 183,828 42,635 82,1123 120,1462 33,180 130,280 290,298 122,-34 177,-144 163,-331 2,-582 -5,-973 -21,-1171 67,-37 130,5 191,126 43,350 105,702 184,1058 41,158 81,345 120,562 37,231 147,341 332,331 143,-33 197,-159 163,-377 -51,-313 -93,-617 -127,-913 -48,-247 -95,-496 -141,-747 42,-44 85,-44 127,0 46,222 93,403 141,542 27,194 91,399 191,615 87,168 139,337 155,509 68,239 188,375 360,410 151,-25 215,-142 191,-351 -16,-166 -54,-316 -113,-450 -66,-256 -127,-492 -184,-708 -67,-258 -152,-516 -254,-774 74,-47 128,-36 163,33 134,264 238,475 311,635 138,231 234,412 290,542 111,326 260,520 445,582 133,-2 199,-55 198,-159 -22,-266 -102,-548 -240,-847 -207,-518 -370,-904 -488,-1158 -121,-299 -187,-543 -199,-730 -162,216 -657,357 -1485,425 -504,47 -859,-35 -1065,-245 z M 4640,1438 c 298,297 377,709 239,1238 31,30 68,76 108,138 79,128 133,201 163,218 61,231 122,383 184,456 100,156 237,242 410,258 136,14 214,8 233,-20 29,-57 29,-130 0,-218 -101,-324 -155,-549 -163,-675 -187,-374 -334,-611 -442,-711 -265,-311 -509,-539 -732,-684 z"
   id="path7" />
  <path
   class="fil1 str0"
   d="m 2196,2997 c 73,295 134,571 183,828 42,635 82,1123 120,1462 33,180 130,280 290,298 122,-34 177,-144 163,-331 2,-582 -5,-973 -21,-1171 67,-37 130,5 191,126 43,350 105,702 184,1058 41,158 81,345 120,562 37,231 147,341 332,331 143,-33 197,-159 163,-377 -51,-313 -93,-617 -127,-913 -48,-247 -95,-496 -141,-747 42,-44 85,-44 127,0 46,222 93,403 141,542 27,194 91,399 191,615 87,168 139,337 155,509 68,239 188,375 360,410 151,-25 215,-142 191,-351 -16,-166 -54,-316 -113,-450 -66,-256 -127,-492 -184,-708 -67,-258 -152,-516 -254,-774 74,-47 128,-36 163,33 134,264 238,475 311,635 138,231 234,412 290,542 111,326 260,520 445,582 133,-2 199,-55 198,-159 -22,-266 -102,-548 -240,-847 -207,-518 -370,-904 -488,-1158 -121,-299 -187,-543 -199,-730 m -2550,180 c 206,210 560,292 1065,245 828,-68 1323,-209 1485,-425 M 4641,1435 c 298,297 377,709 239,1238 31,30 68,76 108,138 79,128 133,201 163,218 61,231 122,383 184,456 100,156 237,242 410,258 136,14 214,8 233,-20 29,-57 29,-130 0,-218 -101,-324 -155,-549 -163,-675 -187,-374 -334,-611 -442,-711 -265,-311 -509,-539 -732,-684"
   id="path9" />
  <path
   class="fil1 str1"
   d="m 2930,4083 c -94,-77 -249,-116 -465,-114"
   id="path11" />
  <path
   class="fil1 str1"
   d="m 3121,4208 c 161,-80 338,-109 530,-86"
   id="path13" />
  <path
   class="fil1 str1"
   d="m 3757,4086 c 229,-4 391,-61 486,-172"
   id="path15" />
  <path
   class="fil1 str1"
   d="m 4381,3883 c 265,-43 428,-156 488,-341"
   id="path17" />
  <path
   class="fil1 str1"
   d="m 5149,3031 c 112,-45 247,-65 405,-60"
   id="path19" />
  <path
   class="fil1 str2"
   d="m 2449,4458 c 209,74 337,73 477,-8 -161,-34 -290,-33 -477,8 z"
   id="path21" />
  <path
   class="fil1 str2"
   d="m 3214,4817 c 140,-83 324,-114 550,-92"
   id="path23" />
  <path
   class="fil1 str2"
   d="m 3225,4878 c 263,13 449,-8 556,-64"
   id="path25" />
  <path
   class="fil1 str2"
   d="m 2463,4928 c 200,22 363,21 488,-1"
   id="path27" />
  <path
   class="fil1 str2"
   d="m 3370,5547 c 123,-85 290,-107 503,-65"
   id="path29" />
  <path
   class="fil1 str2"
   d="m 3959,4861 c 169,-159 356,-216 562,-170"
   id="path31" />
  <path
   class="fil1 str2"
   d="m 3971,4907 c 240,-16 427,-72 562,-168"
   id="path33" />
  <path
   class="fil1 str2"
   d="m 4213,5528 c 187,-109 350,-152 491,-129"
   id="path35" />
  <path
   class="fil1 str1"
   d="m 4649,4395 c 282,-80 457,-188 525,-321"
   id="path37" />
  <path
   class="fil1 str2"
   d="m 4700,4501 c 251,-68 425,-172 523,-311"
   id="path39" />
  <path
   class="fil1 str2"
   d="m 5005,5073 c 173,-117 334,-182 482,-195"
   id="path41" />
  <path
   class="fil1 str1"
   d="m 5879,3173 c -109,214 -77,398 97,553"
   id="path43" />
 </g>
</svg>
