<?xml version="1.0" encoding="UTF-8" standalone="no"?>
<svg
   xmlns:dc="http://purl.org/dc/elements/1.1/"
   xmlns:cc="http://creativecommons.org/ns#"
   xmlns:rdf="http://www.w3.org/1999/02/22-rdf-syntax-ns#"
   xmlns:svg="http://www.w3.org/2000/svg"
   xmlns="http://www.w3.org/2000/svg"
   xmlns:sodipodi="http://sodipodi.sourceforge.net/DTD/sodipodi-0.dtd"
   xmlns:inkscape="http://www.inkscape.org/namespaces/inkscape"
   xml:space="preserve"
   width="37.769688mm"
   height="43.122749mm"
   version="1.1"
   style="clip-rule:evenodd;fill-rule:evenodd;image-rendering:optimizeQuality;shape-rendering:geometricPrecision;text-rendering:geometricPrecision"
   viewBox="0 0 3776.9688 4312.2749"
   id="svg56"
   sodipodi:docname="2.svg"
   inkscape:version="1.0.2 (e86c870879, 2021-01-15)"><metadata
   id="metadata60"><rdf:RDF><cc:Work
       rdf:about=""><dc:format>image/svg+xml</dc:format><dc:type
         rdf:resource="http://purl.org/dc/dcmitype/StillImage" /></cc:Work></rdf:RDF></metadata><sodipodi:namedview
   pagecolor="#ffffff"
   bordercolor="#666666"
   borderopacity="1"
   objecttolerance="10"
   gridtolerance="10"
   guidetolerance="10"
   inkscape:pageopacity="0"
   inkscape:pageshadow="2"
   inkscape:window-width="1920"
   inkscape:window-height="1052"
   id="namedview58"
   showgrid="false"
   inkscape:zoom="2.6822135"
   inkscape:cx="12.919727"
   inkscape:cy="91.152705"
   inkscape:window-x="0"
   inkscape:window-y="0"
   inkscape:window-maximized="1"
   inkscape:current-layer="svg56"
   inkscape:document-rotation="0" />
 <defs
   id="defs4">
  <style
   type="text/css"
   id="style2">
   <![CDATA[
    .str1 {stroke:#323232;stroke-width:42.33}
    .str0 {stroke:#323232;stroke-width:67.73}
    .str2 {stroke:#323232;stroke-width:84.67}
    .fil1 {fill:none}
    .fil0 {fill:#DDDDDD}
   ]]>
  </style>
 </defs>
 <g
   id="Слой_x0020_1"
   transform="matrix(-0.99731448,-0.07323819,-0.07323819,0.99731448,5820.0558,-1307.422)">
  <metadata
   id="CorelCorpID_0Corel-Layer" />
  <path
   class="fil0"
   d="m 3576,5275 c -95,11 -233,9 -412,-6 -118,-79 -245,-238 -327,-383 -93,8 -184,-8 -331,-46 -119,-56 -243,-173 -372,-351 -35,-79 -61,-236 -79,-472 -28,-99 -52,-221 -72,-365 3,-84 -21,-170 -72,-258 -14,-77 -26,-160 -36,-250 379,259 916,342 1603,198 426,-80 770,-210 1085,-428 50,190 117,490 153,754 42,204 83,448 122,730 11,110 23,272 36,487 30,133 49,281 57,444 13,103 -52,180 -193,229 -154,1 -281,-92 -379,-279 -68,-194 -120,-378 -157,-551 -21,-152 -49,-396 -83,-730 0,0 -32,10 -95,29 21,336 55,584 100,744 5,184 36,353 93,508 68,75 135,199 200,372 -4,155 -94,248 -272,279 -149,-3 -294,-99 -436,-286 -97,-126 -146,-248 -145,-367 M 4592,2897 c 154,183 280,341 387,434 -27,190 -31,359 -13,507 18,169 123,298 315,386 140,6 221,-24 243,-89 6,-179 17,-423 32,-733 34,-149 34,-262 0,-340 -165,-326 -309,-601 -433,-826 -65,-85 -284,-259 -678,-537 136,254 185,654 146,1199 z"
   id="path7" />
  <path
   class="fil1 str0"
   d="m 1853,3118 c 10,90 22,173 36,250 50,87 74,173 72,258 20,144 44,266 72,365 17,236 44,393 79,472 129,178 253,294 372,351 288,74 471,60 551,-43 56,-126 39,-233 -50,-322 -149,-33 -242,-38 -279,-14 -154,39 -228,97 -222,172"
   id="path9" />
  <path
   class="fil1 str1"
   d="m 2704,4434 c -123,-98 -178,-275 -165,-529"
   id="path11" />
  <path
   class="fil1 str1"
   d="m 2582,4261 c -181,-14 -310,20 -386,101"
   id="path13" />
  <path
   class="fil1 str1"
   d="m 2132,3826 c 118,34 254,60 408,79 40,39 94,72 165,100 -16,150 -1,288 45,416"
   id="path15" />
  <path
   class="fil1 str0"
   d="m 2840,4906 c 82,146 182,258 300,336 333,28 521,11 565,-50 92,-97 104,-188 36,-272 -104,-107 -208,-144 -313,-113 -198,22 -302,97 -311,225"
   id="path17" />
  <path
   class="fil1 str0"
   d="m 3429,4808 c -65,-78 -108,-173 -129,-286 0,-196 0,-328 0,-397"
   id="path19" />
  <path
   class="fil1 str1"
   d="m 3429,4808 c -65,-78 -108,-173 -129,-286 0,-196 0,-328 0,-397 -139,-58 -338,-98 -596,-120"
   id="path21" />
  <path
   class="fil1 str1"
   d="m 3300,4521 c -87,-12 -171,-5 -252,21"
   id="path23" />
  <path
   class="fil1 str1"
   d="m 3300,4124 c 328,15 561,-26 700,-124"
   id="path25" />
  <path
   class="fil1 str1"
   d="m 3364,4127 c -12,273 21,497 101,673"
   id="path27" />
  <path
   class="fil1 str0"
   d="m 3540,5250 c 0,119 48,241 145,367 142,187 288,283 436,286 178,-31 268,-124 272,-279 -65,-173 -132,-297 -200,-372 -57,-155 -88,-324 -93,-508 -45,-160 -79,-408 -100,-744"
   id="path29" />
  <path
   class="fil1 str1"
   d="m 4100,4744 c -127,-28 -293,-4 -500,74"
   id="path31" />
  <path
   class="fil1 str1"
   d="m 4193,5252 c -155,-59 -317,-11 -487,143"
   id="path33" />
  <path
   class="fil1 str1"
   d="m 4000,4000 c 306,-89 499,-185 580,-286"
   id="path35" />
  <path
   class="fil1 str2"
   d="m 4095,3971 c 35,334 63,578 84,730 37,173 90,357 157,551 99,187 225,280 379,279 141,-49 206,-126 193,-229 -8,-163 -27,-311 -57,-444 -13,-215 -25,-377 -36,-487 -39,-282 -80,-525 -122,-730 -36,-264 -90,-539 -139,-728"
   id="path37" />
  <path
   class="fil1 str1"
   d="m 4822,4442 c -227,-22 -410,-3 -550,58"
   id="path39" />
  <path
   class="fil1 str1"
   d="m 4851,4859 c -189,3 -349,34 -479,93"
   id="path41" />
  <path
   class="fil1 str1"
   d="m 4568,2870 c 154,183 299,358 407,451 107,-68 233,-92 376,-72"
   id="path43" />
  <path
   class="fil1 str0"
   d="m 4955,3303 c -27,190 -31,359 -13,507 18,169 123,298 315,386 140,6 221,-24 243,-89 6,-179 17,-423 32,-733 34,-149 34,-262 0,-340 -165,-326 -309,-601 -433,-826 -65,-85 -294,-267 -688,-544"
   id="path45" />
  <path
   class="fil1 str0"
   d="m 4568,2870 c 105,-558 -10,-944 -146,-1199"
   id="path47" />
  <path
   class="fil1 str0"
   d="m 1855,3143 c 379,259 913,317 1600,173 426,-80 797,-229 1112,-446"
   id="path49" />
  <path
   class="fil1 str1"
   d="m 3383,3330 c 161,24 268,58 320,101"
   id="path51" />
  <path
   class="fil1 str1"
   d="m 3959,3180 c 228,123 458,182 690,178"
   id="path53" />
 </g>
</svg>
