<?xml version="1.0" encoding="UTF-8" standalone="no"?>
<svg
   xmlns:dc="http://purl.org/dc/elements/1.1/"
   xmlns:cc="http://creativecommons.org/ns#"
   xmlns:rdf="http://www.w3.org/1999/02/22-rdf-syntax-ns#"
   xmlns:svg="http://www.w3.org/2000/svg"
   xmlns="http://www.w3.org/2000/svg"
   xmlns:sodipodi="http://sodipodi.sourceforge.net/DTD/sodipodi-0.dtd"
   xmlns:inkscape="http://www.inkscape.org/namespaces/inkscape"
   xml:space="preserve"
   width="37.252724mm"
   height="51.625744mm"
   version="1.1"
   style="clip-rule:evenodd;fill-rule:evenodd;image-rendering:optimizeQuality;shape-rendering:geometricPrecision;text-rendering:geometricPrecision"
   viewBox="0 0 3725.2724 5162.5744"
   id="svg54"
   sodipodi:docname="2.svg"
   inkscape:version="1.0.2 (e86c870879, 2021-01-15)"><g
   id="Слой_x0020_1"
   transform="translate(-2218.3316,-1876.5747)"
   style="clip-rule:evenodd;fill-rule:evenodd;image-rendering:optimizeQuality;shape-rendering:geometricPrecision;text-rendering:geometricPrecision"><metadata
     id="CorelCorpID_0Corel-Layer" /><path
     class="fil0"
     d="m 2401,2377 c 399,-500 1009,-617 1831,-351 613,416 959,676 1039,781 115,208 248,463 400,764 32,72 32,177 0,314 -14,287 -24,513 -30,678 -21,61 -95,88 -225,83 -178,-82 -275,-201 -291,-357 -17,-137 -10,-277 15,-453 -100,-86 -219,-248 -361,-417 46,175 83,471 117,714 39,189 76,414 112,675 10,101 21,251 33,450 28,123 46,259 53,410 12,96 -48,166 -179,212 -143,1 -259,-85 -351,-258 -63,-179 -111,-349 -146,-509 -19,-141 -45,-366 -77,-675 -76,165 -38,567 4,715 5,170 34,326 86,470 63,69 125,184 185,344 -3,143 -87,229 -251,258 -138,-3 -272,-91 -403,-265 -90,-116 -122,-231 -122,-341 -88,10 -216,8 -382,-5 -109,-73 -214,-220 -290,-355 -84,5 -190,-9 -319,-42 -110,-52 -224,-160 -344,-324 -33,-73 -57,-218 -73,-437 -26,-92 -48,-204 -66,-337 2,-78 -20,-157 -66,-238 -37,-198 -57,-442 -60,-734 -12,-327 41,-582 159,-767 z"
     id="path7" /><path
     class="fil1 str0"
     d="m 2418,2377 c -118,185 -170,441 -159,767 3,292 23,537 60,734 47,81 69,160 66,238 18,133 40,246 66,337 16,218 40,364 73,437 120,164 234,272 344,324 266,68 436,55 509,-40 52,-116 36,-215 -46,-298 -137,-31 -223,-35 -258,-13 -142,36 -211,89 -205,159"
     id="path9" /><path
     class="fil1 str0"
     d="m 3073,4864 c -114,-91 -165,-254 -152,-489"
     id="path11" /><path
     class="fil1 str1"
     d="m 2960,4704 c -167,-13 -286,19 -357,93"
     id="path13" /><path
     class="fil1 str1"
     d="m 2544,4302 c 109,31 235,56 377,73 37,36 87,67 152,93 -15,138 -1,267 42,385"
     id="path15" /><path
     class="fil1 str0"
     d="m 3073,4467 c -15,138 -1,267 42,385"
     id="path17" /><path
     class="fil1 str0"
     d="m 3170,5257 c 76,135 197,282 307,355 308,25 482,10 523,-46 85,-90 96,-174 33,-251 -96,-99 -192,-133 -289,-104 -184,21 -279,90 -288,208"
     id="path19" /><path
     class="fil1 str1"
     d="m 3743,5210 c -60,-72 -100,-160 -119,-265 0,-181 0,-303 0,-367 -129,-54 -312,-91 -551,-111"
     id="path21" /><path
     class="fil1 str0"
     d="m 3743,5210 c -60,-72 -100,-160 -119,-265 0,-181 0,-303 0,-367"
     id="path23" /><path
     class="fil1 str1"
     d="m 3624,4945 c -80,-11 -158,-5 -233,20"
     id="path25" /><path
     class="fil1 str1"
     d="m 2319,3879 c 702,-180 1262,-140 1681,121"
     id="path27" /><path
     class="fil1 str1"
     d="m 3372,2756 c 464,805 955,1189 1475,1151"
     id="path29" /><path
     class="fil1 str1"
     d="m 3624,4578 c 303,14 519,-24 647,-115"
     id="path31" /><path
     class="fil1 str1"
     d="m 3683,4580 c -11,252 20,460 93,622"
     id="path33" /><path
     class="fil1 str0"
     d="m 3846,5618 c 0,110 45,223 134,340 131,173 266,261 403,265 164,-29 248,-115 251,-258 -61,-160 -122,-275 -185,-344 -52,-143 -81,-300 -86,-470 -42,-148 -73,-378 -93,-688"
     id="path35" /><path
     class="fil1 str1"
     d="m 4364,5151 c -117,-26 -271,-3 -462,68"
     id="path37" /><path
     class="fil1 str1"
     d="m 4450,5621 c -143,-54 -293,-10 -450,132"
     id="path39" /><path
     class="fil1 str1"
     d="m 4271,4463 c 283,-82 461,-171 536,-265"
     id="path41" /><path
     class="fil1 str0"
     d="m 4359,4436 c 32,309 58,534 77,675 34,160 83,330 146,509 91,173 208,259 351,258 131,-46 190,-116 179,-212 -7,-151 -25,-287 -53,-410 -12,-199 -23,-348 -33,-450 -36,-261 -74,-486 -112,-675 -34,-244 -83,-498 -129,-673"
     id="path43" /><path
     class="fil1 str1"
     d="m 5031,4872 c -210,-21 -379,-3 -509,54"
     id="path45" /><path
     class="fil1 str1"
     d="m 5058,5257 c -175,2 -323,31 -443,86"
     id="path47" /><path
     class="fil1 str1"
     d="m 4597,3632 c 149,-87 204,-186 197,-294 -68,-206 -89,-323 -5,-651"
     id="path49" /><path
     class="fil1 str0"
     d="m 4796,3418 c 142,169 262,331 361,417 -25,176 -32,316 -15,453 16,156 113,275 291,357 129,5 204,-22 225,-83 6,-165 16,-391 30,-678 32,-137 32,-242 0,-314 -152,-301 -286,-556 -400,-764 -79,-104 -425,-365 -1039,-781"
     id="path51" /><path
     class="fil1 str1"
     d="m 5499,3715 c -164,-4 -264,28 -298,96"
     id="path53" /></g><metadata
   id="metadata58"><rdf:RDF><cc:Work
       rdf:about=""><dc:format>image/svg+xml</dc:format><dc:type
         rdf:resource="http://purl.org/dc/dcmitype/StillImage" /><dc:title /></cc:Work></rdf:RDF></metadata><sodipodi:namedview
   pagecolor="#ffffff"
   bordercolor="#666666"
   borderopacity="1"
   objecttolerance="10"
   gridtolerance="10"
   guidetolerance="10"
   inkscape:pageopacity="0"
   inkscape:pageshadow="2"
   inkscape:window-width="1920"
   inkscape:window-height="1052"
   id="namedview56"
   showgrid="false"
   inkscape:zoom="2.6822135"
   inkscape:cx="66.054377"
   inkscape:cy="82.674783"
   inkscape:window-x="0"
   inkscape:window-y="0"
   inkscape:window-maximized="1"
   inkscape:current-layer="svg54"
   inkscape:document-rotation="0" />
 <defs
   id="defs4">
  <style
   type="text/css"
   id="style2">
   <![CDATA[
    .str1 {stroke:black;stroke-width:33.87}
    .str2 {stroke:black;stroke-width:42.33}
    .str0 {stroke:black;stroke-width:84.67}
    .fil1 {fill:none}
    .fil0 {fill:#DDDDDD}
   ]]>
  </style>
 </defs>
 
</svg>
