<?xml version="1.0" encoding="UTF-8" standalone="no"?>
<svg
   xmlns:dc="http://purl.org/dc/elements/1.1/"
   xmlns:cc="http://creativecommons.org/ns#"
   xmlns:rdf="http://www.w3.org/1999/02/22-rdf-syntax-ns#"
   xmlns:svg="http://www.w3.org/2000/svg"
   xmlns="http://www.w3.org/2000/svg"
   xmlns:sodipodi="http://sodipodi.sourceforge.net/DTD/sodipodi-0.dtd"
   xmlns:inkscape="http://www.inkscape.org/namespaces/inkscape"
   xml:space="preserve"
   width="102.86021mm"
   height="235.33574mm"
   version="1.1"
   style="clip-rule:evenodd;fill-rule:evenodd;image-rendering:optimizeQuality;shape-rendering:geometricPrecision;text-rendering:geometricPrecision"
   viewBox="0 0 10286.021 23533.574"
   id="svg642"
   sodipodi:docname="3.svg"
   inkscape:version="1.0.2 (e86c870879, 2021-01-15)"><metadata
   id="metadata646"><rdf:RDF><cc:Work
       rdf:about=""><dc:format>image/svg+xml</dc:format><dc:type
         rdf:resource="http://purl.org/dc/dcmitype/StillImage" /></cc:Work></rdf:RDF></metadata><sodipodi:namedview
   pagecolor="#ffffff"
   bordercolor="#666666"
   borderopacity="1"
   objecttolerance="10"
   gridtolerance="10"
   guidetolerance="10"
   inkscape:pageopacity="0"
   inkscape:pageshadow="2"
   inkscape:window-width="797"
   inkscape:window-height="480"
   id="namedview644"
   showgrid="false"
   inkscape:zoom="0.72248176"
   inkscape:cx="185.5563"
   inkscape:cy="443.96879"
   inkscape:window-x="23"
   inkscape:window-y="15"
   inkscape:window-maximized="0"
   inkscape:current-layer="svg642" />
 <defs
   id="defs4">
  <style
   type="text/css"
   id="style2">
   <![CDATA[
    .str3 {stroke:black;stroke-width:33.87;stroke-miterlimit:22.9256}
    .str4 {stroke:black;stroke-width:8.47;stroke-miterlimit:22.9256}
    .str0 {stroke:black;stroke-width:67.73;stroke-miterlimit:22.9256}
    .str1 {stroke:black;stroke-width:42.33;stroke-miterlimit:22.9256}
    .str2 {stroke:black;stroke-width:25.4;stroke-miterlimit:22.9256}
    .str5 {stroke:black;stroke-width:7.62;stroke-miterlimit:22.9256}
    .fil0 {fill:none}
    .fil1 {fill:black}
   ]]>
  </style>
 </defs>
 <g
   id="????_x0020_1"
   visibility="hidden"
   transform="translate(-5590.4895,-3103.3258)">
  <metadata
   id="CorelCorpID_0Corel-Layer" />
  <path
   class="fil0 str0"
   d="m 9971,5889 c 45,404 5,637 -120,699 -342,224 -664,385 -966,483 -463,70 -794,317 -992,741 -174,305 -245,718 -212,1237 -12,102 -23,179 -33,232 -106,406 -159,1004 -159,1793 -261,382 -409,788 -443,1217 -25,172 -56,360 -93,562 -157,865 -339,1314 -556,1396 -187,121 -245,224 -372,392 -117,126 -245,263 -384,413 -27,45 -17,88 30,129 257,127 304,-152 523,-281 178,-38 -46,754 -71,878 -48,253 -70,426 -66,519 22,72 65,92 129,60 86,-129 188,-427 308,-893 -19,95 -293,1258 43,1098 64,-66 93,-176 136,-372 77,-432 116,-648 116,-648 -54,449 -84,759 -89,929 46,90 146,110 208,36 100,-404 164,-726 192,-966 -60,434 -57,685 10,754 65,21 115,-10 152,-93 56,-243 82,-443 79,-599 -13,-113 12,-235 73,-364 104,-313 106,-617 7,-913 90,-302 215,-600 377,-893 278,-541 468,-957 569,-1250 106,-250 161,-572 165,-966 147,-467 245,-1139 210,-1622 16,-428 -41,-718 -169,-870"
   id="path7" />
  <path
   class="fil0 str0"
   d="m 8749,9743 c 74,683 139,1379 127,1719 28,247 26,541 -3,883 -73,353 -123,705 -149,1055 -202,776 -320,1615 -354,2517 -43,1235 7,2186 150,2853 27,456 17,952 -29,1488 -40,402 -79,750 -116,1042 -66,408 -27,939 116,1593 132,422 211,891 238,1408 -6,215 -1,395 16,540 -48,138 -49,265 -5,381 6,144 -19,271 -74,381 -73,117 -124,219 -153,307 -46,53 -83,95 -111,127 -211,96 -311,188 -302,275"
   id="path9" />
  <path
   class="fil0 str0"
   d="m 12720,9743 c -74,683 -139,1379 -127,1719 -28,247 -26,541 3,883 73,353 123,705 149,1055 202,776 320,1615 354,2517 43,1235 -7,2186 -150,2853 -27,456 -17,952 29,1488 40,402 79,750 116,1042 66,408 27,939 -116,1593 -132,422 -211,891 -238,1408 6,215 1,395 -16,540 48,138 49,265 5,381 -6,144 19,271 74,381 73,117 124,219 153,307 46,53 83,95 111,127 211,96 311,188 302,275"
   id="path11" />
  <path
   class="fil0 str0"
   d="m 10338,14903 c 272,189 517,177 736,-37"
   id="path13" />
  <path
   class="fil0 str0"
   d="m 10610,15027 c -12,697 -96,1461 -251,2294 -54,393 -123,802 -206,1228 -47,378 -109,686 -184,925 -58,115 -123,235 -193,357 -22,50 -26,185 -13,405 -13,106 -86,201 -220,286 -140,84 -300,93 -479,26"
   id="path15" />
  <path
   class="fil0 str0"
   d="m 10859,15027 c 12,697 96,1461 251,2294 54,393 123,802 206,1228 47,378 109,686 184,925 191,379 233,315 206,762 13,106 86,201 220,286 140,84 300,93 479,26"
   id="path17" />
  <path
   class="fil0 str0"
   d="m 9981,19432 c -20,435 -61,794 -124,1078 -29,181 -125,406 -289,677"
   id="path19" />
  <path
   class="fil0 str0"
   d="m 11488,19432 c 20,435 61,794 124,1078 29,181 35,168 199,439"
   id="path21" />
  <path
   class="fil0 str0"
   d="m 9857,20510 c 1,326 8,604 23,833 -7,726 -17,1152 -214,1847 -119,594 -151,1111 -95,1550 136,242 136,432 0,572 6,156 29,397 69,725 112,184 114,327 5,429 -128,63 -190,91 -249,116 -208,46 -328,16 -360,-90 -60,-152 -9,-283 153,-392"
   id="path23" />
  <path
   class="fil0 str0"
   d="m 11611,20510 c -1,326 -8,604 -23,833 7,726 17,1152 214,1847 119,594 151,1111 95,1550 -136,242 -136,432 0,572 -6,156 -29,397 -69,725 -112,184 -114,327 -5,429 128,63 190,91 249,116 208,46 328,16 360,-90 60,-152 9,-283 -153,-392"
   id="path25" />
  <path
   class="fil0 str1"
   d="m 9023,26453 c -57,126 -141,157 -251,92 -139,-144 41,-313 148,-413"
   id="path27" />
  <path
   class="fil0 str1"
   d="m 12445,26453 c 57,126 141,157 251,92 139,-144 -41,-313 -148,-413"
   id="path29" />
  <path
   class="fil0 str1"
   d="m 8731,26479 c -32,72 -93,92 -183,59 -165,-84 -43,-312 77,-370"
   id="path31" />
  <path
   class="fil0 str1"
   d="m 12738,26479 c 32,72 93,92 183,59 165,-84 43,-312 -77,-370"
   id="path33" />
  <path
   class="fil0 str1"
   d="m 8471,26444 c -29,63 -79,87 -151,73 -178,-72 -49,-276 79,-341"
   id="path35" />
  <path
   class="fil0 str1"
   d="m 12997,26444 c 29,63 79,87 151,73 178,-72 49,-276 -79,-341"
   id="path37" />
  <path
   class="fil0 str1"
   d="m 8099,26288 c -25,118 26,191 151,171"
   id="path39" />
  <path
   class="fil0 str1"
   d="m 13370,26288 c 25,118 -26,191 -151,171"
   id="path41" />
  <path
   class="fil0 str0"
   d="m 7490,11072 c 62,156 136,255 220,295 112,17 234,-20 365,-111"
   id="path43" />
  <path
   class="fil0 str0"
   d="m 13979,11072 c -160,290 -280,300 -585,184"
   id="path45" />
  <path
   class="fil0 str0"
   d="m 8191,10790 c 93,-166 141,-374 143,-622"
   id="path47" />
  <path
   class="fil0 str1"
   d="m 13278,10790 c -93,-166 -141,-374 -143,-622"
   id="path49" />
  <path
   class="fil0 str1"
   d="m 8461,8812 c 91,-58 145,-147 163,-269"
   id="path51" />
  <path
   class="fil0 str1"
   d="m 13008,8812 c -91,-58 -145,-147 -163,-269"
   id="path53" />
  <path
   class="fil0 str0"
   d="m 9026,9740 c -181,-84 -281,-282 -300,-594"
   id="path55" />
  <path
   class="fil0 str0"
   d="m 12504,9674 c 181,-84 220,-216 240,-528"
   id="path57" />
  <path
   class="fil0 str1"
   d="m 7674,8757 c -5,209 39,365 131,468"
   id="path59" />
  <path
   class="fil0 str0"
   d="m 13795,8757 c 5,209 -39,365 -131,468"
   id="path61" />
  <path
   class="fil0 str0"
   d="m 9748,4505 c -322,-133 -171,401 -100,556 0,164 56,249 169,253"
   id="path63" />
  <path
   class="fil0 str0"
   d="m 11611,4505 c 322,-133 171,401 100,556 0,164 -56,249 -169,253"
   id="path65" />
  <path
   class="fil0 str0"
   d="m 9071,11974 c -302,603 -382,1150 -238,1640"
   id="path67" />
  <path
   class="fil0 str0"
   d="m 12398,11974 c 225,634 382,1150 238,1640"
   id="path69" />
  <path
   class="fil0 str1"
   d="m 9253,9803 c 67,47 146,54 243,53"
   id="path71" />
  <path
   class="fil0 str1"
   d="m 12222,9817 c -81,30 -152,40 -249,38"
   id="path73" />
  <path
   class="fil0 str0"
   d="m 9398,7020 c 186,116 564,171 762,71 59,-25 116,-14 169,13 82,53 101,94 117,143"
   id="path75" />
  <path
   class="fil0 str0"
   d="m 12071,7020 c -484,302 -922,-142 -1049,228"
   id="path77" />
  <path
   class="fil0 str1"
   d="m 10535,7065 c 40,130 80,211 180,238 106,-19 142,-101 159,-233"
   id="path79" />
  <path
   class="fil0 str0"
   d="m 8520,18769 c 45,95 95,209 150,342 -6,119 4,236 29,352 27,71 55,116 82,132"
   id="path81" />
  <path
   class="fil0 str0"
   d="m 12980,18615 c -5,108 -126,364 -181,497 6,119 -4,236 -29,352 -27,71 -55,116 -82,132"
   id="path83" />
  <path
   class="fil0 str0"
   d="m 9953,4493 c 207,-70 377,-42 572,-5"
   id="path85" />
  <path
   class="fil0 str1"
   d="m 10043,4673 c 140,-80 284,-78 434,8"
   id="path87" />
  <path
   class="fil0 str1"
   d="m 11378,4673 c -140,-80 -284,-78 -434,8"
   id="path89" />
  <path
   class="fil0 str2"
   d="m 10136,4752 c 150,45 233,7 248,-114"
   id="path91" />
  <path
   class="fil0 str2"
   d="m 11285,4752 c -150,45 -270,13 -248,-114"
   id="path93" />
  <circle
   class="fil1"
   cx="10251"
   cy="4696"
   r="77"
   id="circle95" />
  <circle
   class="fil1"
   cx="11170"
   cy="4696"
   r="77"
   id="circle97" />
  <path
   class="fil0 str1"
   d="m 6416,14239 c 128,-51 234,-66 318,-44"
   id="path99" />
  <path
   class="fil0 str1"
   d="m 7441,14394 c -52,-70 -107,-116 -167,-137"
   id="path101" />
  <path
   class="fil0 str1"
   d="m 6433,15095 c 255,-72 404,-221 447,-447"
   id="path103" />
  <path
   class="fil0 str1"
   d="m 6602,15185 c 178,-120 378,-153 601,-98"
   id="path105" />
  <path
   class="fil0 str1"
   d="m 6375,15389 c 72,74 162,101 267,79"
   id="path107" />
  <path
   class="fil0 str1"
   d="m 6789,15541 c 83,-18 144,-41 181,-70"
   id="path109" />
  <path
   class="fil0 str1"
   d="m 7100,15541 c 62,-24 103,-55 124,-92"
   id="path111" />
  <path
   class="fil0 str1"
   d="m 10701,8253 c 7,318 7,537 0,659"
   id="path113" />
  <path
   class="fil0 str1"
   d="m 10584,10039 c 64,-27 108,-60 132,-101 1,175 -7,345 -24,511"
   id="path115" />
  <path
   class="fil0 str1"
   d="m 10735,12680 c -164,-74 -200,-170 -108,-286 106,-56 189,-44 249,37"
   id="path117" />
  <path
   class="fil0 str1"
   d="m 10593,12545 c 126,49 217,-37 176,-173"
   id="path119" />
  <path
   class="fil0 str1"
   d="m 9015,26339 c 180,-22 299,-16 321,25 52,-32 63,-72 32,-119 -83,-63 -184,-72 -303,-27"
   id="path121" />
  <path
   class="fil0 str1"
   d="m 12454,26339 c -180,-22 -299,-16 -321,25 -52,-32 -63,-72 -32,-119 139,-33 183,-39 303,-27"
   id="path123" />
  <path
   class="fil0 str1"
   d="m 8249,26331 c 83,-14 159,-14 189,-2"
   id="path125" />
  <path
   class="fil0 str1"
   d="m 13219,26331 c -83,-14 -159,-14 -189,-2"
   id="path127" />
  <path
   class="fil0 str1"
   d="m 8480,26340 c 85,-17 152,-18 199,-3"
   id="path129" />
  <path
   class="fil0 str1"
   d="m 12989,26340 c -85,-17 -152,-18 -199,-3"
   id="path131" />
  <path
   class="fil0 str1"
   d="m 8738,26344 c 83,-30 155,-30 216,2"
   id="path133" />
  <path
   class="fil0 str1"
   d="m 12731,26344 c -83,-30 -155,-30 -216,2"
   id="path135" />
  <path
   class="fil0 str1"
   d="m 8249,26331 c -29,-24 -55,-27 -81,-10"
   id="path137" />
  <path
   class="fil0 str1"
   d="m 13219,26331 c 29,-24 55,-27 81,-10"
   id="path139" />
  <path
   class="fil0 str1"
   d="m 10852,5119 c -18,-108 -41,-301 -41,-500 0,-41 3,-93 14,-130 209,-57 490,-31 614,42"
   id="path141" />
  <path
   class="fil0 str0"
   d="m 10826,4489 c 209,-57 490,-31 614,42"
   id="path143" />
  <path
   class="fil0 str3"
   d="m 10357,5622 c 43,56 138,61 201,37 23,-32 50,-41 79,-29 128,77 181,-20 235,-13 64,-10 85,106 193,37"
   id="path145" />
  <path
   class="fil0 str2"
   d="m 10500,5755 c 1,33 19,58 53,75 50,33 107,50 171,50"
   id="path147" />
  <path
   class="fil0 str1"
   d="m 10948,5755 c -1,33 -19,58 -53,75 -50,33 -107,50 -171,50"
   id="path149" />
  <path
   class="fil1 str1"
   d="m 10899,5808 c -132,95 -244,96 -336,4 53,-1 102,14 155,13 59,-1 121,-13 181,-17 z"
   id="path151" />
  <path
   class="fil0 str0"
   d="m 10549,5300 c 188,74 290,77 307,11"
   id="path153" />
  <path
   class="fil1"
   d="m 10830,5658 c -67,105 -131,91 -179,12 -2,-5 -14,-22 -13,-24 5,-12 55,14 96,14 38,0 100,-31 113,-28 4,1 -16,24 -18,27 z"
   id="path155" />
  <path
   class="fil0 str0"
   d="m 11498,5688 c 48,-242 -5,-483 66,-718 50,-165 47,-328 46,-486 14,-590 -28,-1237 -615,-1323 -181,-18 -363,-36 -562,0 -495,114 -698,486 -688,1204 3,470 52,922 146,1356 147,356 363,568 648,635 135,27 241,16 303,-2 227,-68 595,-442 656,-666 z"
   id="path157" />
  <path
   class="fil0 str0"
   d="m 11498,5688 c -105,943 223,1103 1086,1382 463,70 794,317 992,741 174,305 245,718 212,1237 12,102 23,179 33,232 106,406 159,1004 159,1793 261,382 409,788 443,1217 25,172 56,360 93,562 157,865 339,1314 556,1396 187,121 245,224 372,392 117,126 245,263 384,413 27,45 17,88 -30,129 -257,127 -304,-152 -523,-281 -178,-38 46,754 71,878 48,253 70,426 66,519 -22,72 -65,92 -129,60 -86,-129 -188,-427 -308,-893 19,95 293,1258 -43,1098 -64,-66 -93,-176 -136,-372 -77,-432 -116,-648 -116,-648 54,449 84,759 89,929 -264,289 -389,-832 -400,-929 60,434 57,685 -10,754 -65,21 -115,-10 -152,-93 -56,-243 -82,-443 -79,-599 13,-113 -12,-235 -73,-364 -104,-313 -106,-617 -7,-913 -90,-302 -215,-600 -377,-893 -278,-541 -468,-957 -569,-1250 -106,-250 -161,-572 -165,-966 -147,-467 -245,-1139 -210,-1622 -16,-428 41,-718 169,-870"
   id="path159" />
  <path
   class="fil0 str4"
   d="m 10377,5642 c 30,52 79,75 147,68"
   id="path161" />
  <path
   class="fil0 str5"
   d="m 11055,5642 c -30,52 -79,75 -147,68"
   id="path163" />
  <path
   class="fil0 str5"
   d="m 10500,5755 c 8,-10 32,-12 73,-8"
   id="path165" />
 </g>
 <g
   id="Upper_1"
   visibility="hidden"
   transform="translate(-5590.4895,-3103.3258)">
  <metadata
   id="CorelCorpID_1Corel-Layer" />
  <path
   class="fil0 str0"
   d="m 9974,5889 c 45,404 5,637 -120,699 -342,224 -664,385 -966,483 -463,70 -794,317 -992,741 -174,305 -245,718 -212,1237 -12,102 -23,179 -33,232 -106,406 -159,1004 -159,1793 -261,382 -409,788 -443,1217 -25,172 -56,360 -93,562 -157,865 -339,1314 -556,1396 -187,121 -245,224 -372,392 -117,126 -245,263 -384,413 -27,45 -17,88 30,129 257,127 304,-152 523,-281 178,-38 -46,754 -71,878 -48,253 -70,426 -66,519 22,72 65,92 129,60 86,-129 188,-427 308,-893 -19,95 -293,1258 43,1098 64,-66 93,-176 136,-372 77,-432 116,-648 116,-648 -54,449 -84,759 -89,929 46,90 146,110 208,36 100,-404 164,-726 192,-966 -60,434 -57,685 10,754 65,21 115,-10 152,-93 56,-243 82,-443 79,-599 -13,-113 12,-235 73,-364 104,-313 106,-617 7,-913 90,-302 215,-600 377,-893 278,-541 468,-957 569,-1250 106,-250 161,-572 165,-966 147,-467 245,-1139 210,-1622 16,-428 -41,-718 -169,-870"
   id="path169" />
  <path
   class="fil0 str0"
   d="m 8751,9743 c 74,683 139,1379 127,1719 28,247 26,541 -3,883 -73,353 -123,705 -149,1055 -202,776 -320,1615 -354,2517 -43,1235 7,2186 150,2853 27,456 17,952 -29,1488 -40,402 -79,750 -116,1042 -66,408 -27,939 116,1593 132,422 211,891 238,1408 -6,215 -1,395 16,540 -48,138 -49,265 -5,381 6,144 -19,271 -74,381 -73,117 -124,219 -153,307 -46,53 -83,95 -111,127 -211,96 -311,188 -302,275"
   id="path171" />
  <path
   class="fil0 str0"
   d="m 10340,14903 c 272,189 517,177 736,-37"
   id="path173" />
  <path
   class="fil0 str0"
   d="m 10613,15027 c -12,697 -96,1461 -251,2294 -54,393 -123,802 -206,1228 -47,378 -109,686 -184,925 -58,115 -123,235 -193,357 -22,50 -26,185 -13,405 -13,106 -86,201 -220,286 -140,84 -300,93 -479,26"
   id="path175" />
  <path
   class="fil0 str0"
   d="m 10861,15027 c 12,697 96,1461 251,2294 54,393 123,802 206,1228 47,378 109,686 184,925 191,379 233,315 206,762 13,106 86,201 220,286 140,84 300,93 479,26"
   id="path177" />
  <path
   class="fil0 str0"
   d="m 9984,19432 c -20,435 -61,794 -124,1078 -29,181 -125,406 -289,677"
   id="path179" />
  <path
   class="fil0 str0"
   d="m 11490,19432 c 20,435 61,794 124,1078 29,181 35,168 199,439"
   id="path181" />
  <path
   class="fil0 str0"
   d="m 9860,20510 c 1,326 8,604 23,833 -7,726 -17,1152 -214,1847 -119,594 -151,1111 -95,1550 136,242 136,432 0,572 6,156 29,397 69,725 112,184 114,327 5,429 -128,63 -190,91 -249,116 -208,46 -328,16 -360,-90 -60,-152 -9,-283 153,-392"
   id="path183" />
  <path
   class="fil0 str0"
   d="m 11614,20510 c -1,326 -8,604 -23,833 7,726 17,1152 214,1847 119,594 151,1111 95,1550 -136,242 -136,432 0,572 -6,156 -29,397 -69,725 -112,184 -114,327 -5,429 128,63 190,91 249,116 208,46 328,16 360,-90 60,-152 9,-283 -153,-392"
   id="path185" />
  <path
   class="fil0 str1"
   d="m 9026,26453 c -57,126 -141,157 -251,92 -139,-144 41,-313 148,-413"
   id="path187" />
  <path
   class="fil0 str1"
   d="m 12448,26453 c 57,126 141,157 251,92 139,-144 -41,-313 -148,-413"
   id="path189" />
  <path
   class="fil0 str1"
   d="m 8734,26479 c -32,72 -93,92 -183,59 -165,-84 -43,-312 77,-370"
   id="path191" />
  <path
   class="fil0 str1"
   d="m 12740,26479 c 32,72 93,92 183,59 165,-84 43,-312 -77,-370"
   id="path193" />
  <path
   class="fil0 str1"
   d="m 8474,26444 c -29,63 -79,87 -151,73 -178,-72 -49,-276 79,-341"
   id="path195" />
  <path
   class="fil0 str1"
   d="m 13000,26444 c 29,63 79,87 151,73 178,-72 49,-276 -79,-341"
   id="path197" />
  <path
   class="fil0 str1"
   d="m 8102,26288 c -25,118 26,191 151,171"
   id="path199" />
  <path
   class="fil0 str1"
   d="m 13372,26288 c 25,118 -26,191 -151,171"
   id="path201" />
  <path
   class="fil0 str0"
   d="m 7492,11072 c 62,156 136,255 220,295 112,17 234,-20 365,-111"
   id="path203" />
  <path
   class="fil0"
   d="m 12630,7077 c 308,443 345,394 341,943 -22,145 -67,413 -73,706 -128,152 -184,442 -169,870 m 1,-283 c 7,-49 11,-105 15,-168"
   id="path205" />
  <path
   class="fil0 str0"
   d="m 8194,10790 c 93,-166 141,-374 143,-622"
   id="path207" />
  <path
   class="fil0 str1"
   d="m 8463,8812 c 91,-58 145,-147 163,-269"
   id="path209" />
  <path
   class="fil0 str0"
   d="m 9028,9740 c -181,-84 -281,-282 -300,-594"
   id="path211" />
  <path
   class="fil0 str0"
   d="m 12506,9674 c 181,-84 220,-216 240,-528"
   id="path213" />
  <path
   class="fil0 str1"
   d="m 7677,8757 c -5,209 39,365 131,468"
   id="path215" />
  <path
   class="fil0 str0"
   d="m 9750,4505 c -322,-133 -171,401 -100,556 0,164 56,249 169,253"
   id="path217" />
  <path
   class="fil0 str0"
   d="m 11613,4505 c 322,-133 171,401 100,556 0,164 -56,249 -169,253"
   id="path219" />
  <path
   class="fil0 str0"
   d="m 9073,11974 c -302,603 -382,1150 -238,1640"
   id="path221" />
  <path
   class="fil0 str0"
   d="m 12400,11974 c 225,634 382,1150 238,1640"
   id="path223" />
  <path
   class="fil0 str1"
   d="m 9256,9803 c 67,47 146,54 243,53"
   id="path225" />
  <path
   class="fil0 str1"
   d="m 12224,9817 c -81,30 -152,40 -249,38"
   id="path227" />
  <path
   class="fil0 str0"
   d="m 9400,7020 c 186,116 564,171 762,71 59,-25 116,-14 169,13 82,53 101,94 117,143"
   id="path229" />
  <path
   class="fil0 str0"
   d="m 12074,7020 c -484,302 -922,-142 -1049,228"
   id="path231" />
  <path
   class="fil0 str1"
   d="m 10538,7065 c 40,130 80,211 180,238 106,-19 142,-101 159,-233"
   id="path233" />
  <path
   class="fil0 str0"
   d="m 8522,18769 c 45,95 95,209 150,342 -6,119 4,236 29,352 27,71 55,116 82,132"
   id="path235" />
  <path
   class="fil0 str0"
   d="m 12982,18615 c -5,108 -126,364 -181,497 6,119 -4,236 -29,352 -27,71 -55,116 -82,132"
   id="path237" />
  <path
   class="fil0 str0"
   d="m 9956,4493 c 207,-70 377,-42 572,-5"
   id="path239" />
  <path
   class="fil0 str1"
   d="m 10046,4673 c 140,-80 284,-78 434,8"
   id="path241" />
  <path
   class="fil0 str1"
   d="m 11380,4673 c -140,-80 -284,-78 -434,8"
   id="path243" />
  <path
   class="fil0 str2"
   d="m 10138,4752 c 150,45 233,7 248,-114"
   id="path245" />
  <path
   class="fil0 str2"
   d="m 11287,4752 c -150,45 -270,13 -248,-114"
   id="path247" />
  <circle
   class="fil1"
   cx="10253"
   cy="4696"
   r="77"
   id="circle249" />
  <circle
   class="fil1"
   cx="11172"
   cy="4696"
   r="77"
   id="circle251" />
  <path
   class="fil0 str1"
   d="m 6419,14239 c 128,-51 234,-66 318,-44"
   id="path253" />
  <path
   class="fil0 str1"
   d="m 7443,14394 c -52,-70 -107,-116 -167,-137"
   id="path255" />
  <path
   class="fil0 str1"
   d="m 6435,15095 c 255,-72 404,-221 447,-447"
   id="path257" />
  <path
   class="fil0 str1"
   d="m 6605,15185 c 178,-120 378,-153 601,-98"
   id="path259" />
  <path
   class="fil0 str1"
   d="m 6377,15389 c 72,74 162,101 267,79"
   id="path261" />
  <path
   class="fil0 str1"
   d="m 6791,15541 c 83,-18 144,-41 181,-70"
   id="path263" />
  <path
   class="fil0 str1"
   d="m 7102,15541 c 62,-24 103,-55 124,-92"
   id="path265" />
  <path
   class="fil0 str1"
   d="m 10703,8253 c 7,318 7,537 0,659"
   id="path267" />
  <path
   class="fil0 str1"
   d="m 10587,10039 c 64,-27 108,-60 132,-101 1,175 -7,345 -24,511"
   id="path269" />
  <path
   class="fil0 str1"
   d="m 10737,12680 c -164,-74 -200,-170 -108,-286 106,-56 189,-44 249,37"
   id="path271" />
  <path
   class="fil0 str1"
   d="m 10596,12545 c 126,49 217,-37 176,-173"
   id="path273" />
  <path
   class="fil0 str1"
   d="m 9017,26339 c 180,-22 299,-16 321,25 52,-32 63,-72 32,-119 -83,-63 -184,-72 -303,-27"
   id="path275" />
  <path
   class="fil0 str1"
   d="m 12457,26339 c -180,-22 -299,-16 -321,25 -52,-32 -63,-72 -32,-119 139,-33 183,-39 303,-27"
   id="path277" />
  <path
   class="fil0 str1"
   d="m 8252,26331 c 83,-14 159,-14 189,-2"
   id="path279" />
  <path
   class="fil0 str1"
   d="m 13222,26331 c -83,-14 -159,-14 -189,-2"
   id="path281" />
  <path
   class="fil0 str1"
   d="m 8482,26340 c 85,-17 152,-18 199,-3"
   id="path283" />
  <path
   class="fil0 str1"
   d="m 12991,26340 c -85,-17 -152,-18 -199,-3"
   id="path285" />
  <path
   class="fil0 str1"
   d="m 8740,26344 c 83,-30 155,-30 216,2"
   id="path287" />
  <path
   class="fil0 str1"
   d="m 12733,26344 c -83,-30 -155,-30 -216,2"
   id="path289" />
  <path
   class="fil0 str1"
   d="m 8252,26331 c -29,-24 -55,-27 -81,-10"
   id="path291" />
  <path
   class="fil0 str1"
   d="m 13222,26331 c 29,-24 55,-27 81,-10"
   id="path293" />
  <path
   class="fil0 str1"
   d="m 10855,5119 c -18,-108 -41,-301 -41,-500 0,-41 3,-93 14,-130 209,-57 490,-31 614,42"
   id="path295" />
  <path
   class="fil0 str0"
   d="m 10828,4489 c 209,-57 490,-31 614,42"
   id="path297" />
  <path
   class="fil0 str3"
   d="m 10359,5622 c 43,56 138,61 201,37 23,-32 50,-41 79,-29 128,77 181,-20 235,-13 64,-10 85,106 193,37"
   id="path299" />
  <path
   class="fil0 str2"
   d="m 10503,5755 c 1,33 19,58 53,75 50,33 107,50 171,50"
   id="path301" />
  <path
   class="fil0 str1"
   d="m 10950,5755 c -1,33 -19,58 -53,75 -50,33 -107,50 -171,50"
   id="path303" />
  <path
   class="fil1 str1"
   d="m 10901,5808 c -132,95 -244,96 -336,4 53,-1 102,14 155,13 59,-1 121,-13 181,-17 z"
   id="path305" />
  <path
   class="fil0 str0"
   d="m 10552,5300 c 188,74 290,77 307,11"
   id="path307" />
  <path
   class="fil1"
   d="m 10832,5658 c -67,105 -131,91 -179,12 -2,-5 -14,-22 -13,-24 5,-12 55,14 96,14 38,0 100,-31 113,-28 4,1 -16,24 -18,27 z"
   id="path309" />
  <path
   class="fil0 str0"
   d="m 11500,5688 c 48,-242 -5,-483 66,-718 50,-165 47,-328 46,-486 14,-590 -28,-1237 -615,-1323 -181,-18 -363,-36 -562,0 -495,114 -698,486 -688,1204 3,470 52,922 146,1356 147,356 363,568 648,635 135,27 241,16 303,-2 227,-68 595,-442 656,-666 z"
   id="path311" />
  <path
   class="fil0 str4"
   d="m 10380,5642 c 30,52 79,75 147,68"
   id="path313" />
  <path
   class="fil0 str5"
   d="m 11057,5642 c -30,52 -79,75 -147,68"
   id="path315" />
  <path
   class="fil0 str5"
   d="m 10503,5755 c 8,-10 32,-12 73,-8"
   id="path317" />
  <path
   class="fil0 str0"
   d="m 11500,5688 c -105,943 223,1103 1086,1382 15,2 30,5 44,7 56,77 154,215 232,329 66,105 101,214 103,327 23,193 0,543 -67,994 -128,152 -184,442 -169,870 -74,683 -146,1525 -134,1865 -28,247 -26,541 3,883 73,353 123,705 149,1055 202,776 320,1615 354,2517 43,1235 -7,2186 -150,2853 -27,456 -17,952 29,1488 40,402 79,750 116,1042 66,408 27,939 -116,1593 -132,422 -211,891 -238,1408 6,215 1,395 -16,540 48,138 49,265 5,381 -6,144 19,271 74,381 73,117 124,219 153,307 46,53 83,95 111,127 211,96 311,188 302,275"
   id="path319" />
 </g>
 <g
   id="Upper_2"
   visibility="hidden"
   transform="translate(-5590.4895,-3103.3258)">
  <metadata
   id="CorelCorpID_2Corel-Layer" />
  <path
   class="fil0"
   d="m 12705,9912 c -2,-102 0,-199 6,-290 405,183 779,118 1122,-197 87,401 130,958 130,1672 1,1 1,2 2,3"
   id="path323" />
  <path
   class="fil0 str0"
   d="m 9975,5886 c 45,404 5,637 -120,699 -342,224 -664,385 -966,483 -463,70 -794,317 -992,741 -174,305 -245,718 -212,1237 -12,102 -23,179 -33,232 -106,406 -159,1004 -159,1793 -261,382 -409,788 -443,1217 -25,172 -56,360 -93,562 -157,865 -339,1314 -556,1396 -187,121 -245,224 -372,392 -117,126 -245,263 -384,413 -27,45 -17,88 30,129 257,127 304,-152 523,-281 178,-38 -46,754 -71,878 -48,253 -70,426 -66,519 22,72 65,92 129,60 86,-129 188,-427 308,-893 -19,95 -293,1258 43,1098 64,-66 93,-176 136,-372 77,-432 116,-648 116,-648 -54,449 -84,759 -89,929 46,90 146,110 208,36 100,-404 164,-726 192,-966 -60,434 -57,685 10,754 65,21 115,-10 152,-93 56,-243 82,-443 79,-599 -13,-113 12,-235 73,-364 104,-313 106,-617 7,-913 90,-302 215,-600 377,-893 278,-541 468,-957 569,-1250 106,-250 161,-572 165,-966 147,-467 245,-1139 210,-1622 16,-428 -41,-718 -169,-870"
   id="path325" />
  <path
   class="fil0 str0"
   d="m 8752,9740 c 74,683 139,1379 127,1719 28,247 26,541 -3,883 -73,353 -123,705 -149,1055 -202,776 -320,1615 -354,2517 -43,1235 7,2186 150,2853 27,456 17,952 -29,1488 -40,402 -79,750 -116,1042 -66,408 -27,939 116,1593 132,422 211,891 238,1408 -6,215 -1,395 16,540 -48,138 -49,265 -5,381 6,144 -19,271 -74,381 -73,117 -124,219 -153,307 -46,53 -83,95 -111,127 -211,96 -311,188 -302,275"
   id="path327" />
  <path
   class="fil0 str0"
   d="m 13373,26309 c 10,-87 -91,-179 -302,-275 -28,-32 -66,-74 -111,-127 -29,-87 -81,-190 -153,-307 -55,-110 -80,-237 -74,-381 44,-116 42,-243 -5,-381 17,-144 22,-324 16,-540 27,-517 107,-986 238,-1408 144,-654 183,-1185 116,-1593 -38,-293 -77,-640 -116,-1042 -46,-536 -56,-1032 -29,-1488 143,-666 193,-1617 150,-2853 -34,-902 -152,-1741 -354,-2517 -26,-350 -76,-702 -149,-1055 -30,-342 -31,-636 -3,-883 -13,-340 57,-1147 132,-1830 1,-12 1,-24 2,-35 -16,-428 41,-718 169,-870 m -171,905 c 453,161 846,91 1129,-206 -11,-51 -22,-100 -34,-146 -10,-53 -21,-130 -33,-232 33,-519 -37,-931 -212,-1237 -199,-423 -529,-670 -992,-741 -863,-279 -1191,-439 -1086,-1382"
   id="path329" />
  <path
   class="fil0 str0"
   d="m 10341,14900 c 272,189 517,177 736,-37"
   id="path331" />
  <path
   class="fil0 str0"
   d="m 10614,15024 c -12,697 -96,1461 -251,2294 -54,393 -123,802 -206,1228 -47,378 -109,686 -184,925 -58,115 -123,235 -193,357 -22,50 -26,185 -13,405 -13,106 -86,201 -220,286 -140,84 -300,93 -479,26"
   id="path333" />
  <path
   class="fil0 str0"
   d="m 10862,15024 c 12,697 96,1461 251,2294 54,393 123,802 206,1228 47,378 109,686 184,925 191,379 233,315 206,762 13,106 86,201 220,286 140,84 300,93 479,26"
   id="path335" />
  <path
   class="fil0 str0"
   d="m 9984,19429 c -20,435 -61,794 -124,1078 -29,181 -125,406 -289,677"
   id="path337" />
  <path
   class="fil0 str0"
   d="m 11491,19429 c 20,435 61,794 124,1078 29,181 35,168 199,439"
   id="path339" />
  <path
   class="fil0 str0"
   d="m 9861,20508 c 1,326 8,604 23,833 -7,726 -17,1152 -214,1847 -119,594 -151,1111 -95,1550 136,242 136,432 0,572 6,156 29,397 69,725 112,184 114,327 5,429 -128,63 -190,91 -249,116 -208,46 -328,16 -360,-90 -60,-152 -9,-283 153,-392"
   id="path341" />
  <path
   class="fil0 str0"
   d="m 11615,20508 c -1,326 -8,604 -23,833 7,726 17,1152 214,1847 119,594 151,1111 95,1550 -136,242 -136,432 0,572 -6,156 -29,397 -69,725 -112,184 -114,327 -5,429 128,63 190,91 249,116 208,46 328,16 360,-90 60,-152 9,-283 -153,-392"
   id="path343" />
  <path
   class="fil0 str1"
   d="m 9027,26450 c -57,126 -141,157 -251,92 -139,-144 41,-313 148,-413"
   id="path345" />
  <path
   class="fil0 str1"
   d="m 12449,26450 c 57,126 141,157 251,92 139,-144 -41,-313 -148,-413"
   id="path347" />
  <path
   class="fil0 str1"
   d="m 8735,26476 c -32,72 -93,92 -183,59 -165,-84 -43,-312 77,-370"
   id="path349" />
  <path
   class="fil0 str1"
   d="m 12741,26476 c 32,72 93,92 183,59 165,-84 43,-312 -77,-370"
   id="path351" />
  <path
   class="fil0 str1"
   d="m 8475,26442 c -29,63 -79,87 -151,73 -178,-72 -49,-276 79,-341"
   id="path353" />
  <path
   class="fil0 str1"
   d="m 13001,26442 c 29,63 79,87 151,73 178,-72 49,-276 -79,-341"
   id="path355" />
  <path
   class="fil0 str1"
   d="m 8103,26285 c -25,118 26,191 151,171"
   id="path357" />
  <path
   class="fil0 str1"
   d="m 13373,26285 c 25,118 -26,191 -151,171"
   id="path359" />
  <path
   class="fil0 str0"
   d="m 7493,11069 c 62,156 136,255 220,295 112,17 234,-20 365,-111"
   id="path361" />
  <path
   class="fil0 str0"
   d="m 8195,10787 c 93,-166 141,-374 143,-622"
   id="path363" />
  <path
   class="fil0 str1"
   d="m 8464,8810 c 91,-58 145,-147 163,-269"
   id="path365" />
  <path
   class="fil0 str1"
   d="m 13011,8810 c -91,-58 -145,-147 -163,-269"
   id="path367" />
  <path
   class="fil0 str0"
   d="m 9029,9737 c -181,-84 -281,-282 -300,-594"
   id="path369" />
  <path
   class="fil0 str0"
   d="m 12507,9671 c 181,-84 220,-216 240,-528"
   id="path371" />
  <path
   class="fil0 str1"
   d="m 7678,8754 c -5,209 39,365 131,468"
   id="path373" />
  <path
   class="fil0 str0"
   d="m 13798,8754 c 5,209 -39,365 -131,468"
   id="path375" />
  <path
   class="fil0 str0"
   d="m 9751,4502 c -322,-133 -171,401 -100,556 0,164 56,249 169,253"
   id="path377" />
  <path
   class="fil0 str0"
   d="m 11614,4502 c 322,-133 171,401 100,556 0,164 -56,249 -169,253"
   id="path379" />
  <path
   class="fil0 str0"
   d="m 9074,11971 c -302,603 -382,1150 -238,1640"
   id="path381" />
  <path
   class="fil0 str0"
   d="m 12401,11971 c 225,634 382,1150 238,1640"
   id="path383" />
  <path
   class="fil0 str1"
   d="m 9257,9800 c 67,47 146,54 243,53"
   id="path385" />
  <path
   class="fil0 str1"
   d="m 12225,9814 c -81,30 -152,40 -249,38"
   id="path387" />
  <path
   class="fil0 str0"
   d="m 9401,7017 c 186,116 564,171 762,71 59,-25 116,-14 169,13 82,53 101,94 117,143"
   id="path389" />
  <path
   class="fil0 str0"
   d="m 12075,7017 c -484,302 -922,-142 -1049,228"
   id="path391" />
  <path
   class="fil0 str1"
   d="m 10539,7062 c 40,130 80,211 180,238 106,-19 142,-101 159,-233"
   id="path393" />
  <path
   class="fil0 str0"
   d="m 8523,18767 c 45,95 95,209 150,342 -6,119 4,236 29,352 27,71 55,116 82,132"
   id="path395" />
  <path
   class="fil0 str0"
   d="m 12983,18612 c -5,108 -126,364 -181,497 6,119 -4,236 -29,352 -27,71 -55,116 -82,132"
   id="path397" />
  <path
   class="fil0 str0"
   d="m 9957,4490 c 207,-70 377,-42 572,-5"
   id="path399" />
  <path
   class="fil0 str1"
   d="m 10047,4670 c 140,-80 284,-78 434,8"
   id="path401" />
  <path
   class="fil0 str1"
   d="m 11381,4670 c -140,-80 -284,-78 -434,8"
   id="path403" />
  <path
   class="fil0 str2"
   d="m 10139,4750 c 150,45 233,7 248,-114"
   id="path405" />
  <path
   class="fil0 str2"
   d="m 11288,4750 c -150,45 -270,13 -248,-114"
   id="path407" />
  <circle
   class="fil1"
   cx="10254"
   cy="4693"
   r="77"
   id="circle409" />
  <circle
   class="fil1"
   cx="11173"
   cy="4693"
   r="77"
   id="circle411" />
  <path
   class="fil0 str1"
   d="m 6420,14236 c 128,-51 234,-66 318,-44"
   id="path413" />
  <path
   class="fil0 str1"
   d="m 7444,14391 c -52,-70 -107,-116 -167,-137"
   id="path415" />
  <path
   class="fil0 str1"
   d="m 6436,15092 c 255,-72 404,-221 447,-447"
   id="path417" />
  <path
   class="fil0 str1"
   d="m 6606,15182 c 178,-120 378,-153 601,-98"
   id="path419" />
  <path
   class="fil0 str1"
   d="m 6378,15386 c 72,74 162,101 267,79"
   id="path421" />
  <path
   class="fil0 str1"
   d="m 6792,15539 c 83,-18 144,-41 181,-70"
   id="path423" />
  <path
   class="fil0 str1"
   d="m 7103,15539 c 62,-24 103,-55 124,-92"
   id="path425" />
  <path
   class="fil0 str1"
   d="m 10704,8250 c 7,318 7,537 0,659"
   id="path427" />
  <path
   class="fil0 str1"
   d="m 10588,10036 c 64,-27 108,-60 132,-101 1,175 -7,345 -24,511"
   id="path429" />
  <path
   class="fil0 str1"
   d="m 10738,12677 c -164,-74 -200,-170 -108,-286 106,-56 189,-44 249,37"
   id="path431" />
  <path
   class="fil0 str1"
   d="m 10597,12542 c 126,49 217,-37 176,-173"
   id="path433" />
  <path
   class="fil0 str1"
   d="m 9018,26336 c 180,-22 299,-16 321,25 52,-32 63,-72 32,-119 -83,-63 -184,-72 -303,-27"
   id="path435" />
  <path
   class="fil0 str1"
   d="m 12458,26336 c -180,-22 -299,-16 -321,25 -52,-32 -63,-72 -32,-119 139,-33 183,-39 303,-27"
   id="path437" />
  <path
   class="fil0 str1"
   d="m 8253,26328 c 83,-14 159,-14 189,-2"
   id="path439" />
  <path
   class="fil0 str1"
   d="m 13223,26328 c -83,-14 -159,-14 -189,-2"
   id="path441" />
  <path
   class="fil0 str1"
   d="m 8483,26337 c 85,-17 152,-18 199,-3"
   id="path443" />
  <path
   class="fil0 str1"
   d="m 12992,26337 c -85,-17 -152,-18 -199,-3"
   id="path445" />
  <path
   class="fil0 str1"
   d="m 8741,26341 c 83,-30 155,-30 216,2"
   id="path447" />
  <path
   class="fil0 str1"
   d="m 12734,26341 c -83,-30 -155,-30 -216,2"
   id="path449" />
  <path
   class="fil0 str1"
   d="m 8253,26328 c -29,-24 -55,-27 -81,-10"
   id="path451" />
  <path
   class="fil0 str1"
   d="m 13223,26328 c 29,-24 55,-27 81,-10"
   id="path453" />
  <path
   class="fil0 str1"
   d="m 10856,5116 c -18,-108 -41,-301 -41,-500 0,-41 3,-93 14,-130 209,-57 490,-31 614,42"
   id="path455" />
  <path
   class="fil0 str0"
   d="m 10829,4486 c 209,-57 490,-31 614,42"
   id="path457" />
  <path
   class="fil0 str3"
   d="m 10360,5619 c 43,56 138,61 201,37 23,-32 50,-41 79,-29 128,77 181,-20 235,-13 64,-10 85,106 193,37"
   id="path459" />
  <path
   class="fil0 str2"
   d="m 10504,5753 c 1,33 19,58 53,75 50,33 107,50 171,50"
   id="path461" />
  <path
   class="fil0 str1"
   d="m 10951,5753 c -1,33 -19,58 -53,75 -50,33 -107,50 -171,50"
   id="path463" />
  <path
   class="fil1 str1"
   d="m 10902,5805 c -132,95 -244,96 -336,4 53,-1 102,14 155,13 59,-1 121,-13 181,-17 z"
   id="path465" />
  <path
   class="fil0 str0"
   d="m 10553,5297 c 188,74 290,77 307,11"
   id="path467" />
  <path
   class="fil1"
   d="m 10833,5655 c -67,105 -131,91 -179,12 -2,-5 -14,-22 -13,-24 5,-12 55,14 96,14 38,0 100,-31 113,-28 4,1 -16,24 -18,27 z"
   id="path469" />
  <path
   class="fil0 str0"
   d="m 11501,5685 c 48,-242 -5,-483 66,-718 50,-165 47,-328 46,-486 14,-590 -28,-1237 -615,-1323 -181,-18 -363,-36 -562,0 -495,114 -698,486 -688,1204 3,470 52,922 146,1356 147,356 363,568 648,635 135,27 241,16 303,-2 227,-68 595,-442 656,-666 z"
   id="path471" />
  <path
   class="fil0 str4"
   d="m 10381,5639 c 30,52 79,75 147,68"
   id="path473" />
  <path
   class="fil0 str5"
   d="m 11058,5639 c -30,52 -79,75 -147,68"
   id="path475" />
  <path
   class="fil0 str5"
   d="m 10504,5753 c 8,-10 32,-12 73,-8"
   id="path477" />
 </g>
 <g
   id="Upper_3"
   transform="translate(-5590.4895,-3103.3258)">
  <metadata
   id="CorelCorpID_3Corel-Layer" />
  <path
   class="fil0"
   d="m 14050,14361 c 5,-16 10,-32 15,-48 -90,-302 -215,-600 -377,-893 -278,-541 -468,-957 -569,-1250 -106,-250 -161,-572 -165,-966 -52,-166 -98,-358 -135,-558 423,465 869,461 1153,22"
   id="path481" />
  <path
   class="fil0 str0"
   d="m 9969,5886 c 45,404 5,637 -120,699 -342,224 -664,385 -966,483 -463,70 -794,317 -992,741 -174,305 -245,718 -212,1237 -12,102 -23,179 -33,232 -106,406 -159,1004 -159,1793 -261,382 -409,788 -443,1217 -25,172 -56,360 -93,562 -157,865 -339,1314 -556,1396 -187,121 -245,224 -372,392 -117,126 -245,263 -384,413 -27,45 -17,88 30,129 257,127 304,-152 523,-281 178,-38 -46,754 -71,878 -48,253 -70,426 -66,519 22,72 65,92 129,60 86,-129 188,-427 308,-893 -19,95 -293,1258 43,1098 64,-66 93,-176 136,-372 77,-432 116,-648 116,-648 -54,449 -84,759 -89,929 46,90 146,110 208,36 100,-404 164,-726 192,-966 -60,434 -57,685 10,754 65,21 115,-10 152,-93 56,-243 82,-443 79,-599 -13,-113 12,-235 73,-364 104,-313 106,-617 7,-913 90,-302 215,-600 377,-893 278,-541 468,-957 569,-1250 106,-250 161,-572 165,-966 147,-467 245,-1139 210,-1622 16,-428 -41,-718 -169,-870"
   id="path483" />
  <path
   class="fil0 str0"
   d="m 8747,9740 c 74,683 139,1379 127,1719 28,247 26,541 -3,883 -73,353 -123,705 -149,1055 -202,776 -320,1615 -354,2517 -43,1235 7,2186 150,2853 27,456 17,952 -29,1488 -40,402 -79,750 -116,1042 -66,408 -27,939 116,1593 132,422 211,891 238,1408 -6,215 -1,395 16,540 -48,138 -49,265 -5,381 6,144 -19,271 -74,381 -73,117 -124,219 -153,307 -46,53 -83,95 -111,127 -211,96 -311,188 -302,275"
   id="path485" />
  <path
   class="fil0 str0"
   d="m 12718,9740 c -74,683 -139,1379 -127,1719 -28,247 -26,541 3,883 73,353 123,705 149,1055 202,776 320,1615 354,2517 43,1235 -7,2186 -150,2853 -27,456 -17,952 29,1488 40,402 79,750 116,1042 66,408 27,939 -116,1593 -132,422 -211,891 -238,1408 6,215 1,395 -16,540 48,138 49,265 5,381 -6,144 19,271 74,381 73,117 124,219 153,307 46,53 83,95 111,127 211,96 311,188 302,275"
   id="path487" />
  <path
   class="fil0 str0"
   d="m 10336,14900 c 272,189 517,177 736,-37"
   id="path489" />
  <path
   class="fil0 str0"
   d="m 10608,15024 c -12,697 -96,1461 -251,2294 -54,393 -123,802 -206,1228 -47,378 -109,686 -184,925 -58,115 -123,235 -193,357 -22,50 -26,185 -13,405 -13,106 -86,201 -220,286 -140,84 -300,93 -479,26"
   id="path491" />
  <path
   class="fil0 str0"
   d="m 10857,15024 c 12,697 96,1461 251,2294 54,393 123,802 206,1228 47,378 109,686 184,925 191,379 233,315 206,762 13,106 86,201 220,286 140,84 300,93 479,26"
   id="path493" />
  <path
   class="fil0 str0"
   d="m 9979,19429 c -20,435 -61,794 -124,1078 -29,181 -125,406 -289,677"
   id="path495" />
  <path
   class="fil0 str0"
   d="m 11486,19429 c 20,435 61,794 124,1078 29,181 35,168 199,439"
   id="path497" />
  <path
   class="fil0 str0"
   d="m 9856,20508 c 1,326 8,604 23,833 -7,726 -17,1152 -214,1847 -119,594 -151,1111 -95,1550 136,242 136,432 0,572 6,156 29,397 69,725 112,184 114,327 5,429 -128,63 -190,91 -249,116 -208,46 -328,16 -360,-90 -60,-152 -9,-283 153,-392"
   id="path499" />
  <path
   class="fil0 str0"
   d="m 11610,20508 c -1,326 -8,604 -23,833 7,726 17,1152 214,1847 119,594 151,1111 95,1550 -136,242 -136,432 0,572 -6,156 -29,397 -69,725 -112,184 -114,327 -5,429 128,63 190,91 249,116 208,46 328,16 360,-90 60,-152 9,-283 -153,-392"
   id="path501" />
  <path
   class="fil0 str1"
   d="m 9022,26450 c -57,126 -141,157 -251,92 -139,-144 41,-313 148,-413"
   id="path503" />
  <path
   class="fil0 str1"
   d="m 12444,26450 c 57,126 141,157 251,92 139,-144 -41,-313 -148,-413"
   id="path505" />
  <path
   class="fil0 str1"
   d="m 8729,26476 c -32,72 -93,92 -183,59 -165,-84 -43,-312 77,-370"
   id="path507" />
  <path
   class="fil0 str1"
   d="m 12736,26476 c 32,72 93,92 183,59 165,-84 43,-312 -77,-370"
   id="path509" />
  <path
   class="fil0 str1"
   d="m 8470,26442 c -29,63 -79,87 -151,73 -178,-72 -49,-276 79,-341"
   id="path511" />
  <path
   class="fil0 str1"
   d="m 12996,26442 c 29,63 79,87 151,73 178,-72 49,-276 -79,-341"
   id="path513" />
  <path
   class="fil0 str1"
   d="m 8097,26285 c -25,118 26,191 151,171"
   id="path515" />
  <path
   class="fil0 str1"
   d="m 13368,26285 c 25,118 -26,191 -151,171"
   id="path517" />
  <path
   class="fil0 str0"
   d="m 7488,11069 c 62,156 136,255 220,295 112,17 234,-20 365,-111"
   id="path519" />
  <path
   class="fil0 str0"
   d="m 8189,10787 c 93,-166 141,-374 143,-622"
   id="path521" />
  <path
   class="fil0 str1"
   d="m 13276,10787 c -93,-166 -141,-374 -143,-622"
   id="path523" />
  <path
   class="fil0 str1"
   d="m 8459,8810 c 91,-58 145,-147 163,-269"
   id="path525" />
  <path
   class="fil0 str1"
   d="m 13006,8810 c -91,-58 -145,-147 -163,-269"
   id="path527" />
  <path
   class="fil0 str0"
   d="m 9024,9737 c -181,-84 -281,-282 -300,-594"
   id="path529" />
  <path
   class="fil0 str0"
   d="m 12502,9671 c 181,-84 220,-216 240,-528"
   id="path531" />
  <path
   class="fil0 str1"
   d="m 7672,8754 c -5,209 39,365 131,468"
   id="path533" />
  <path
   class="fil0 str0"
   d="m 13793,8754 c 5,209 -39,365 -131,468"
   id="path535" />
  <path
   class="fil0 str0"
   d="m 9746,4502 c -322,-133 -171,401 -100,556 0,164 56,249 169,253"
   id="path537" />
  <path
   class="fil0 str0"
   d="m 11609,4502 c 322,-133 171,401 100,556 0,164 -56,249 -169,253"
   id="path539" />
  <path
   class="fil0 str0"
   d="m 9069,11971 c -302,603 -382,1150 -238,1640"
   id="path541" />
  <path
   class="fil0 str0"
   d="m 12396,11971 c 225,634 382,1150 238,1640"
   id="path543" />
  <path
   class="fil0 str1"
   d="m 9251,9800 c 67,47 146,54 243,53"
   id="path545" />
  <path
   class="fil0 str1"
   d="m 12220,9814 c -81,30 -152,40 -249,38"
   id="path547" />
  <path
   class="fil0 str0"
   d="m 9396,7017 c 186,116 564,171 762,71 59,-25 116,-14 169,13 82,53 101,94 117,143"
   id="path549" />
  <path
   class="fil0 str0"
   d="m 12069,7017 c -484,302 -922,-142 -1049,228"
   id="path551" />
  <path
   class="fil0 str1"
   d="m 10534,7062 c 40,130 80,211 180,238 106,-19 142,-101 159,-233"
   id="path553" />
  <path
   class="fil0 str0"
   d="m 8518,18767 c 45,95 95,209 150,342 -6,119 4,236 29,352 27,71 55,116 82,132"
   id="path555" />
  <path
   class="fil0 str0"
   d="m 12978,18612 c -5,108 -126,364 -181,497 6,119 -4,236 -29,352 -27,71 -55,116 -82,132"
   id="path557" />
  <path
   class="fil0 str0"
   d="m 9951,4490 c 207,-70 377,-42 572,-5"
   id="path559" />
  <path
   class="fil0 str1"
   d="m 10041,4670 c 140,-80 284,-78 434,8"
   id="path561" />
  <path
   class="fil0 str1"
   d="m 11376,4670 c -140,-80 -284,-78 -434,8"
   id="path563" />
  <path
   class="fil0 str2"
   d="m 10134,4750 c 150,45 233,7 248,-114"
   id="path565" />
  <path
   class="fil0 str2"
   d="m 11283,4750 c -150,45 -270,13 -248,-114"
   id="path567" />
  <circle
   class="fil1"
   cx="10249"
   cy="4693"
   r="77"
   id="circle569" />
  <circle
   class="fil1"
   cx="11168"
   cy="4693"
   r="77"
   id="circle571" />
  <path
   class="fil0 str1"
   d="m 6415,14236 c 128,-51 234,-66 318,-44"
   id="path573" />
  <path
   class="fil0 str1"
   d="m 7439,14391 c -52,-70 -107,-116 -167,-137"
   id="path575" />
  <path
   class="fil0 str1"
   d="m 6431,15092 c 255,-72 404,-221 447,-447"
   id="path577" />
  <path
   class="fil0 str1"
   d="m 6600,15182 c 178,-120 378,-153 601,-98"
   id="path579" />
  <path
   class="fil0 str1"
   d="m 6373,15386 c 72,74 162,101 267,79"
   id="path581" />
  <path
   class="fil0 str1"
   d="m 6787,15539 c 83,-18 144,-41 181,-70"
   id="path583" />
  <path
   class="fil0 str1"
   d="m 7098,15539 c 62,-24 103,-55 124,-92"
   id="path585" />
  <path
   class="fil0 str1"
   d="m 10699,8250 c 7,318 7,537 0,659"
   id="path587" />
  <path
   class="fil0 str1"
   d="m 10582,10036 c 64,-27 108,-60 132,-101 1,175 -7,345 -24,511"
   id="path589" />
  <path
   class="fil0 str1"
   d="m 10733,12677 c -164,-74 -200,-170 -108,-286 106,-56 189,-44 249,37"
   id="path591" />
  <path
   class="fil0 str1"
   d="m 10592,12542 c 126,49 217,-37 176,-173"
   id="path593" />
  <path
   class="fil0 str1"
   d="m 9013,26336 c 180,-22 299,-16 321,25 52,-32 63,-72 32,-119 -83,-63 -184,-72 -303,-27"
   id="path595" />
  <path
   class="fil0 str1"
   d="m 12452,26336 c -180,-22 -299,-16 -321,25 -52,-32 -63,-72 -32,-119 139,-33 183,-39 303,-27"
   id="path597" />
  <path
   class="fil0 str1"
   d="m 8248,26328 c 83,-14 159,-14 189,-2"
   id="path599" />
  <path
   class="fil0 str1"
   d="m 13218,26328 c -83,-14 -159,-14 -189,-2"
   id="path601" />
  <path
   class="fil0 str1"
   d="m 8478,26337 c 85,-17 152,-18 199,-3"
   id="path603" />
  <path
   class="fil0 str1"
   d="m 12987,26337 c -85,-17 -152,-18 -199,-3"
   id="path605" />
  <path
   class="fil0 str1"
   d="m 8736,26341 c 83,-30 155,-30 216,2"
   id="path607" />
  <path
   class="fil0 str1"
   d="m 12729,26341 c -83,-30 -155,-30 -216,2"
   id="path609" />
  <path
   class="fil0 str1"
   d="m 8248,26328 c -29,-24 -55,-27 -81,-10"
   id="path611" />
  <path
   class="fil0 str1"
   d="m 13218,26328 c 29,-24 55,-27 81,-10"
   id="path613" />
  <path
   class="fil0 str1"
   d="m 10851,5116 c -18,-108 -41,-301 -41,-500 0,-41 3,-93 14,-130 209,-57 490,-31 614,42"
   id="path615" />
  <path
   class="fil0 str0"
   d="m 10824,4486 c 209,-57 490,-31 614,42"
   id="path617" />
  <path
   class="fil0 str3"
   d="m 10355,5619 c 43,56 138,61 201,37 23,-32 50,-41 79,-29 128,77 181,-20 235,-13 64,-10 85,106 193,37"
   id="path619" />
  <path
   class="fil0 str2"
   d="m 10499,5753 c 1,33 19,58 53,75 50,33 107,50 171,50"
   id="path621" />
  <path
   class="fil0 str1"
   d="m 10946,5753 c -1,33 -19,58 -53,75 -50,33 -107,50 -171,50"
   id="path623" />
  <path
   class="fil1 str1"
   d="m 10897,5805 c -132,95 -244,96 -336,4 53,-1 102,14 155,13 59,-1 121,-13 181,-17 z"
   id="path625" />
  <path
   class="fil0 str0"
   d="m 10547,5297 c 188,74 290,77 307,11"
   id="path627" />
  <path
   class="fil1"
   d="m 10828,5655 c -67,105 -131,91 -179,12 -2,-5 -14,-22 -13,-24 5,-12 55,14 96,14 38,0 100,-31 113,-28 4,1 -16,24 -18,27 z"
   id="path629" />
  <path
   class="fil0 str0"
   d="m 11496,5685 c 48,-242 -5,-483 66,-718 50,-165 47,-328 46,-486 14,-590 -28,-1237 -615,-1323 -181,-18 -363,-36 -562,0 -495,114 -698,486 -688,1204 3,470 52,922 146,1356 147,356 363,568 648,635 135,27 241,16 303,-2 227,-68 595,-442 656,-666 z"
   id="path631" />
  <path
   class="fil0 str0"
   d="m 11496,5685 c -105,943 223,1103 1086,1382 463,70 794,317 992,741 174,305 245,718 212,1237 12,102 23,179 33,232 88,338 140,808 154,1410 -149,214 -345,320 -555,308 -177,-4 -398,-122 -620,-350 -64,-359 -95,-743 -73,-1051 -16,-428 41,-718 169,-870"
   id="path633" />
  <path
   class="fil0 str4"
   d="m 10376,5639 c 30,52 79,75 147,68"
   id="path635" />
  <path
   class="fil0 str5"
   d="m 11053,5639 c -30,52 -79,75 -147,68"
   id="path637" />
  <path
   class="fil0 str5"
   d="m 10499,5753 c 8,-10 32,-12 73,-8"
   id="path639" />
 </g>
</svg>
