<?xml version="1.0" encoding="UTF-8" standalone="no"?>
<svg
   xmlns:dc="http://purl.org/dc/elements/1.1/"
   xmlns:cc="http://creativecommons.org/ns#"
   xmlns:rdf="http://www.w3.org/1999/02/22-rdf-syntax-ns#"
   xmlns:svg="http://www.w3.org/2000/svg"
   xmlns="http://www.w3.org/2000/svg"
   xmlns:sodipodi="http://sodipodi.sourceforge.net/DTD/sodipodi-0.dtd"
   xmlns:inkscape="http://www.inkscape.org/namespaces/inkscape"
   xml:space="preserve"
   width="37.252724mm"
   height="51.625744mm"
   version="1.1"
   style="clip-rule:evenodd;fill-rule:evenodd;image-rendering:optimizeQuality;shape-rendering:geometricPrecision;text-rendering:geometricPrecision"
   viewBox="0 0 3725.2724 5162.5744"
   id="svg54"
   sodipodi:docname="3.svg"
   inkscape:version="1.0.2 (e86c870879, 2021-01-15)"><metadata
   id="metadata58"><rdf:RDF><cc:Work
       rdf:about=""><dc:format>image/svg+xml</dc:format><dc:type
         rdf:resource="http://purl.org/dc/dcmitype/StillImage" /><dc:title /></cc:Work></rdf:RDF></metadata><sodipodi:namedview
   pagecolor="#ffffff"
   bordercolor="#666666"
   borderopacity="1"
   objecttolerance="10"
   gridtolerance="10"
   guidetolerance="10"
   inkscape:pageopacity="0"
   inkscape:pageshadow="2"
   inkscape:window-width="1920"
   inkscape:window-height="1052"
   id="namedview56"
   showgrid="false"
   inkscape:zoom="2.6822135"
   inkscape:cx="66.054377"
   inkscape:cy="82.674783"
   inkscape:window-x="0"
   inkscape:window-y="0"
   inkscape:window-maximized="1"
   inkscape:current-layer="svg54"
   inkscape:document-rotation="0" />
 <defs
   id="defs4">
  <style
   type="text/css"
   id="style2">
   <![CDATA[
    .str1 {stroke:black;stroke-width:33.87}
    .str2 {stroke:black;stroke-width:42.33}
    .str0 {stroke:black;stroke-width:84.67}
    .fil1 {fill:none}
    .fil0 {fill:#DDDDDD}
   ]]>
  </style>
 </defs>
 
<g
   id="Слой_x0020_1"
   transform="translate(-2140.4843,-2184.8084)"
   style="clip-rule:evenodd;fill-rule:evenodd;image-rendering:optimizeQuality;shape-rendering:geometricPrecision;text-rendering:geometricPrecision"><metadata
     id="CorelCorpID_0Corel-Layer" /><path
     class="fil0"
     d="m 4307,2313 c -865,-191 -1495,-35 -1890,468 -159,87 -225,230 -198,430 -13,266 6,502 60,708 42,166 70,334 86,503 -1,97 56,187 172,271 8,154 32,256 73,304 119,157 254,289 405,395 99,29 190,33 264,14 32,152 123,274 273,365 138,72 271,87 397,46 107,-71 203,-173 189,-318 44,221 125,331 245,331 183,11 300,-30 351,-122 55,-80 65,-199 30,-357 36,85 112,238 197,279 102,72 220,75 354,10 126,-34 183,-130 172,-288 15,-285 5,-550 -30,-794 -24,-186 -173,-471 -244,-716 -25,-87 30,-186 6,-250 -67,-239 -252,-501 -526,-883 -176,-236 -304,-368 -384,-397 z"
     id="path7" /><path
     class="fil1 str0"
     d="m 2401,2781 c -159,87 -225,230 -198,430 -13,266 6,502 60,708 42,166 70,334 86,503 -1,97 56,187 172,271 8,154 32,256 73,304 119,157 254,289 405,395 96,28 234,39 306,22"
     id="path9" /><path
     class="fil1 str1"
     d="m 2401,2781 c -159,87 -225,230 -198,430 -13,266 6,502 60,708 42,166 70,334 86,503 -1,97 56,187 172,271 8,154 32,256 73,304 119,157 254,289 405,395 149,44 271,33 364,-33 51,-49 67,-243 46,-582 29,-201 10,-355 -56,-463 -63,-199 -143,-299 -238,-298 -133,-3 -215,53 -245,169 -21,59 -3,152 53,278 12,95 57,153 136,175"
     id="path11" /><path
     class="fil1 str1"
     d="m 2994,4635 c -76,120 -102,309 -76,566"
     id="path13" /><path
     class="fil1 str1"
     d="m 2879,4426 c -100,-24 -230,2 -390,79"
     id="path15" /><path
     class="fil1 str1"
     d="m 2924,4830 c -81,-45 -166,-28 -257,50"
     id="path17" /><path
     class="fil1 str1"
     d="m 3117,5207 c 137,-39 235,-47 294,-22"
     id="path19" /><path
     class="fil1 str1"
     d="m 3127,4499 c 76,-60 167,-85 272,-75"
     id="path21" /><path
     class="fil1 str1"
     d="m 2957,4053 c 22,126 65,185 130,175 91,4 159,-18 204,-64"
     id="path23" /><path
     class="fil1 str1"
     d="m 3383,4325 c 14,-242 104,-350 271,-324 139,-11 226,129 261,420 8,476 77,836 205,1078 44,221 125,331 245,331 183,11 300,-30 351,-122 55,-80 65,-199 30,-357 -79,-202 -146,-384 -202,-546 -29,-87 -83,-303 -96,-661 -80,-202 -169,-207 -288,-205 -156,8 -247,116 -273,325"
     id="path25" /><path
     class="fil1 str0"
     d="m 4060,5365 c 18,48 39,93 61,135 44,221 125,331 245,331 183,11 300,-30 351,-122 55,-80 65,-199 30,-357 36,85 112,238 197,279 102,72 220,75 354,10 126,-34 183,-130 172,-288 m -2206,54 c 32,152 123,274 273,365 138,72 271,87 397,46 107,-71 153,-180 139,-324 -7,-37 -9,-77 -7,-118"
     id="path27" /><path
     class="fil1 str1"
     d="m 3421,4610 c 166,-35 301,-50 405,-43"
     id="path29" /><path
     class="fil1 str1"
     d="m 3407,5224 c 5,165 29,282 72,348"
     id="path31" /><path
     class="fil1 str1"
     d="m 3614,5595 c 99,-49 210,-63 334,-40"
     id="path33" /><path
     class="fil1 str1"
     d="m 3500,4049 c -17,135 -8,215 26,241 125,27 224,23 298,-10 16,-40 13,-106 -11,-198"
     id="path35" /><path
     class="fil1 str1"
     d="m 4000,4000 c -8,133 -3,222 13,268 157,38 264,34 321,-10 16,-95 13,-195 -8,-300"
     id="path37" /><path
     class="fil1 str1"
     d="m 3943,4857 c 154,-113 321,-163 499,-150"
     id="path39" /><path
     class="fil1 str1"
     d="m 4304,5673 c 95,-90 215,-126 361,-106"
     id="path41" /><path
     class="fil1 str1"
     d="m 4512,4148 c 153,-123 294,-119 423,10 73,88 133,232 179,433 -2,77 22,146 73,205 146,188 240,374 281,556 11,158 -46,253 -172,288 -134,66 -252,62 -354,-10 -85,-42 -145,-105 -181,-191"
     id="path43" /><path
     class="fil1 str1"
     d="m 4929,5488 c 160,22 275,-15 344,-109"
     id="path45" /><path
     class="fil1 str1"
     d="m 4564,4863 c 134,-84 274,-123 421,-116"
     id="path47" /><path
     class="fil1 str1"
     d="m 4512,4148 c -18,189 12,296 93,321 137,-19 221,-54 251,-106 -5,-122 -36,-222 -92,-302"
     id="path49" /><path
     class="fil1 str1"
     d="m 5023,4303 c 143,-232 202,-469 178,-710 -67,-239 -252,-501 -526,-883 -176,-236 -304,-368 -384,-397"
     id="path51" /><path
     class="fil1 str0"
     d="m 4291,2313 c 80,29 208,161 384,397 273,382 459,644 526,883 8,82 7,158 -2,227 127,241 207,487 240,739 35,244 45,509 30,794"
     id="path53" /><path
     class="fil1 str1"
     d="m 5438,4559 c -99,5 -204,4 -314,-3"
     id="path55" /><path
     class="fil1 str1"
     d="m 3656,3351 c -79,199 -49,422 89,668 -252,-216 -421,-489 -505,-820"
     id="path57" /><path
     class="fil1 str1"
     d="m 3920,3755 c -58,145 -62,279 -11,401"
     id="path59" /><path
     class="fil1 str1"
     d="m 3087,3636 c 183,189 372,310 567,366"
     id="path61" /><path
     class="fil1 str1"
     d="m 4512,4148 c -31,4 -51,36 -59,98"
     id="path63" /></g></svg>
