<?xml version="1.0" encoding="UTF-8" standalone="no"?>
<svg
   xmlns:dc="http://purl.org/dc/elements/1.1/"
   xmlns:cc="http://creativecommons.org/ns#"
   xmlns:rdf="http://www.w3.org/1999/02/22-rdf-syntax-ns#"
   xmlns:svg="http://www.w3.org/2000/svg"
   xmlns="http://www.w3.org/2000/svg"
   xmlns:sodipodi="http://sodipodi.sourceforge.net/DTD/sodipodi-0.dtd"
   xmlns:inkscape="http://www.inkscape.org/namespaces/inkscape"
   xml:space="preserve"
   width="38.87117mm"
   height="48.425339mm"
   version="1.1"
   style="clip-rule:evenodd;fill-rule:evenodd;image-rendering:optimizeQuality;shape-rendering:geometricPrecision;text-rendering:geometricPrecision"
   viewBox="0 0 3887.117 4842.5339"
   id="svg46"
   sodipodi:docname="3.svg"
   inkscape:version="1.0.2 (e86c870879, 2021-01-15)"><metadata
   id="metadata50"><rdf:RDF><cc:Work
       rdf:about=""><dc:format>image/svg+xml</dc:format><dc:type
         rdf:resource="http://purl.org/dc/dcmitype/StillImage" /><dc:title /></cc:Work></rdf:RDF></metadata><sodipodi:namedview
   pagecolor="#ffffff"
   bordercolor="#666666"
   borderopacity="1"
   objecttolerance="10"
   gridtolerance="10"
   guidetolerance="10"
   inkscape:pageopacity="0"
   inkscape:pageshadow="2"
   inkscape:window-width="1920"
   inkscape:window-height="1052"
   id="namedview48"
   showgrid="false"
   inkscape:zoom="2.6822135"
   inkscape:cx="22.897573"
   inkscape:cy="124.70018"
   inkscape:window-x="0"
   inkscape:window-y="0"
   inkscape:window-maximized="1"
   inkscape:current-layer="svg46"
   inkscape:document-rotation="0" />
 <defs
   id="defs4">
  <style
   type="text/css"
   id="style2">
   <![CDATA[
    .str2 {stroke:#323232;stroke-width:33.87}
    .str1 {stroke:#323232;stroke-width:42.33}
    .str0 {stroke:#323232;stroke-width:84.67}
    .fil1 {fill:none}
    .fil0 {fill:#DDDDDD}
   ]]>
  </style>
 </defs>
 
<g
   id="Слой_x0020_1-3"
   transform="matrix(-1.0381389,0,0,1.0381389,6095.8073,-1784.7735)"
   style="clip-rule:evenodd;fill-rule:evenodd;image-rendering:optimizeQuality;shape-rendering:geometricPrecision;text-rendering:geometricPrecision"><metadata
     id="CorelCorpID_0Corel-Layer-6" /><path
     class="fil0"
     d="m 4863,2141 c -592,264 -886,689 -884,1276 -34,56 -68,137 -79,229 -49,-194 -132,-286 -250,-277 -180,-28 -311,76 -326,336 -47,-189 -114,-322 -256,-320 -143,-3 -231,57 -263,181 -264,-33 -490,-167 -676,-387 7,34 15,68 23,101 45,179 76,359 93,541 -2,104 60,202 185,292 8,166 34,275 78,327 128,169 273,311 436,425 115,34 200,42 284,15 35,164 133,295 294,392 149,77 291,94 427,50 115,-77 165,-193 149,-349 -7,-40 -10,-82 -8,-127 20,51 38,90 61,134 47,238 135,357 263,356 197,12 322,-32 377,-132 60,-86 65,-137 49,-289 39,92 104,160 195,205 109,78 236,81 381,11 136,-37 197,-140 185,-310 16,-307 6,-591 -32,-854 -36,-271 -122,-536 -258,-795 5,-64 8,-179 2,-244 -63,-223 -219,-461 -451,-789 z"
     id="path7-7" /><path
     class="fil1 str0"
     d="m 2140,3155 c 7,34 15,68 23,101 45,179 76,359 93,541 -2,104 60,202 185,292 8,166 34,275 78,327 128,169 273,311 436,425 161,48 291,36 391,-36 55,-53 72,-262 50,-626 31,-216 11,-382 -60,-498 -68,-215 -154,-321 -256,-320 -143,-3 -231,57 -263,181 -22,64 -3,163 57,299 13,102 62,165 146,189"
     id="path9-5" /><path
     class="fil1 str1"
     d="m 2951,4026 c -82,129 -109,332 -82,608"
     id="path11-3" /><path
     class="fil1 str1"
     d="m 2827,3802 c -108,-26 -248,2 -420,85"
     id="path13-5" /><path
     class="fil1 str1"
     d="m 2875,4236 c -87,-48 -179,-31 -276,54"
     id="path15-6" /><path
     class="fil1 str1"
     d="m 3083,4642 c 147,-42 252,-50 316,-24"
     id="path17-2" /><path
     class="fil1 str1"
     d="m 3094,3880 c 82,-64 180,-91 292,-81"
     id="path19-9" /><path
     class="fil1 str1"
     d="m 2911,3400 c 23,136 70,199 140,188 98,4 171,-19 220,-69"
     id="path21-1" /><path
     class="fil1 str0"
     d="m 3239,4856 c 35,164 133,295 294,392 149,77 291,94 427,50 115,-77 165,-193 149,-349 -7,-40 -10,-82 -8,-127"
     id="path23-2" /><path
     class="fil1 str0"
     d="m 3369,3693 c 15,-260 112,-377 292,-349 149,-12 243,139 281,452 9,513 82,899 221,1160 47,238 135,357 263,356 197,12 322,-32 377,-132 60,-86 70,-215 32,-384 -85,-217 -157,-413 -217,-587 -31,-93 -89,-326 -103,-712 -86,-218 -182,-223 -310,-221 -168,9 -266,125 -293,350"
     id="path25-7" /><path
     class="fil1 str1"
     d="m 3410,3999 c 178,-38 324,-54 436,-46"
     id="path27-0" /><path
     class="fil1 str1"
     d="m 3395,4660 c 5,178 31,303 78,375"
     id="path29-9" /><path
     class="fil1 str1"
     d="m 3618,5060 c 107,-53 226,-67 359,-43"
     id="path31-3" /><path
     class="fil1 str1"
     d="m 3495,3396 c -18,145 -9,231 28,260 134,29 241,25 320,-11 18,-43 13,-114 -12,-213"
     id="path33-6" /><path
     class="fil1 str1"
     d="m 4033,3343 c -8,143 -4,239 14,288 169,40 284,37 345,-11 17,-102 14,-210 -9,-323"
     id="path35-0" /><path
     class="fil1 str1"
     d="m 3972,4266 c 166,-122 345,-175 537,-161"
     id="path37-6" /><path
     class="fil1 str1"
     d="m 4360,5143 c 102,-97 231,-135 388,-114"
     id="path39-2" /><path
     class="fil1 str0"
     d="m 4584,3503 c 164,-132 316,-128 455,11 79,94 143,250 192,466 -2,83 24,157 78,221 157,203 258,402 302,598 12,169 -49,273 -185,310 -145,71 -271,67 -381,-11 -91,-45 -156,-113 -195,-205"
     id="path41-6" /><path
     class="fil1 str1"
     d="m 5033,4944 c 172,23 296,-16 370,-117"
     id="path43-1" /><path
     class="fil1 str1"
     d="m 4640,4272 c 144,-90 295,-132 453,-125"
     id="path45" /><path
     class="fil1 str1"
     d="m 4584,3503 c -20,203 13,318 100,345 147,-20 237,-58 270,-114 -6,-131 -39,-239 -99,-324"
     id="path47" /><path
     class="fil1 str0"
     d="m 5133,3669 c 154,-250 218,-504 191,-764 -63,-223 -220,-463 -452,-790"
     id="path49" /><path
     class="fil1 str0"
     d="m 5323,3149 c 136,259 222,524 258,795 38,263 48,547 32,854"
     id="path51" /><path
     class="fil1 str1"
     d="m 5581,3944 c -107,6 -219,5 -338,-4"
     id="path53" /><path
     class="fil1 str1"
     d="m 4584,3503 c -34,4 -55,39 -64,106"
     id="path55" /><path
     class="fil1 str0"
     d="m 2141,3161 c 186,221 411,348 675,381"
     id="path57" /><path
     class="fil1 str0"
     d="m 4874,2117 c -592,264 -886,689 -884,1276"
     id="path59" /></g></svg>
