<?xml version="1.0" encoding="UTF-8" standalone="no"?>
<svg
   xmlns:dc="http://purl.org/dc/elements/1.1/"
   xmlns:cc="http://creativecommons.org/ns#"
   xmlns:rdf="http://www.w3.org/1999/02/22-rdf-syntax-ns#"
   xmlns:svg="http://www.w3.org/2000/svg"
   xmlns="http://www.w3.org/2000/svg"
   xmlns:sodipodi="http://sodipodi.sourceforge.net/DTD/sodipodi-0.dtd"
   xmlns:inkscape="http://www.inkscape.org/namespaces/inkscape"
   xml:space="preserve"
   width="39.648933mm"
   height="47.822678mm"
   version="1.1"
   style="clip-rule:evenodd;fill-rule:evenodd;image-rendering:optimizeQuality;shape-rendering:geometricPrecision;text-rendering:geometricPrecision"
   viewBox="0 0 3964.8933 4782.2678"
   id="svg148"
   sodipodi:docname="5.svg"
   inkscape:version="1.0.2 (e86c870879, 2021-01-15)"><metadata
   id="metadata152"><rdf:RDF><cc:Work
       rdf:about=""><dc:format>image/svg+xml</dc:format><dc:type
         rdf:resource="http://purl.org/dc/dcmitype/StillImage" /><dc:title /></cc:Work></rdf:RDF></metadata><sodipodi:namedview
   pagecolor="#ffffff"
   bordercolor="#666666"
   borderopacity="1"
   objecttolerance="10"
   gridtolerance="10"
   guidetolerance="10"
   inkscape:pageopacity="0"
   inkscape:pageshadow="2"
   inkscape:window-width="1920"
   inkscape:window-height="1052"
   id="namedview150"
   showgrid="false"
   inkscape:zoom="0.42915417"
   inkscape:cx="56.992615"
   inkscape:cy="283.41336"
   inkscape:window-x="0"
   inkscape:window-y="0"
   inkscape:window-maximized="1"
   inkscape:current-layer="svg148"
   inkscape:document-rotation="0" />
 <defs
   id="defs4">
  <style
   type="text/css"
   id="style2">
   <![CDATA[
    .str3 {stroke:black;stroke-width:20}
    .str1 {stroke:black;stroke-width:25.4}
    .str2 {stroke:black;stroke-width:42.33}
    .str0 {stroke:black;stroke-width:67.73}
    .fil1 {fill:none}
    .fil0 {fill:#F0F0F0}
   ]]>
  </style>
 <clipPath
   clipPathUnits="userSpaceOnUse"
   id="clipPath222"><rect
     style="fill:#0000ff;fill-rule:evenodd;stroke-width:25.7378"
     id="rect224"
     width="3964.8933"
     height="4782.2676"
     x="3627.5964"
     y="16292.992" /></clipPath></defs>
 <g
   id="Слой_x0020_1"
   transform="matrix(-1,0,0,1,7592.4898,-16292.992)"
   clip-path="url(#clipPath222)">
  <metadata
   id="CorelCorpID_0Corel-Layer" />
  <path
   class="fil0"
   d="m 5271,2444 c 254,-210 744,-270 1469,-178 241,430 241,768 0,1016 11,277 52,706 122,1289 199,328 203,582 9,762 -228,112 -338,163 -442,207 -369,82 -630,22 -663,-230 -139,309 -484,277 -520,23 -56,129 -164,188 -324,129 -87,-45 -126,-91 -137,-167 -88,191 -359,166 -392,26 -223,34 -313,-95 -269,-305 91,-175 161,-276 536,-447 51,-56 116,-131 198,-226 52,-156 143,-337 273,-546 98,-195 142,-421 132,-677 -78,-207 -75,-433 9,-677 z"
   id="path7" />
  <path
   class="fil0"
   d="m 6744,7971 c 19,265 59,632 112,1070 199,328 203,582 9,762 -228,112 -338,163 -442,207 -369,82 -630,22 -663,-230 -139,309 -484,277 -520,23 -56,129 -164,188 -324,129 -87,-45 -126,-91 -137,-167 -88,191 -359,166 -392,26 -223,34 -313,-95 -269,-305 91,-175 161,-276 536,-447 51,-56 116,-131 198,-226 52,-156 143,-337 273,-546 58,-114 96,-240 117,-376 351,178 928,255 1503,78 z"
   id="path9" />
  <path
   class="fil0"
   d="m 6851,13318 c 19,265 -48,-162 5,276 199,328 203,582 9,762 -228,112 -338,163 -442,207 -369,82 -630,22 -663,-230 -139,309 -484,277 -520,23 -56,129 -164,188 -324,129 -87,-45 -126,-91 -137,-167 -88,191 -359,166 -392,26 -223,34 -313,-95 -269,-305 91,-175 161,-276 536,-447 51,-56 116,-131 198,-226 116,-345 31,221 86,-149 272,272 1399,341 1914,100 z"
   id="path11" />
  <path
   class="fil0"
   d="m 6864,18204 c 19,265 -48,-162 5,276 199,328 203,582 9,762 -228,112 -338,163 -442,207 -911,141 -722,-623 -353,-852 94,-59 149,-242 220,-259 215,-52 412,-64 560,-133 z"
   id="path13" />
  <path
   class="fil1 str0"
   d="m 5262,2435 c -85,245 -88,470 -9,677 10,257 -34,483 -132,677 -129,208 -220,390 -273,546 -81,94 -147,170 -198,226 -375,171 -554,334 -536,489"
   id="path15" />
  <path
   class="fil1 str0"
   d="m 5241,7871 c -19,145 -59,278 -120,399 -129,208 -220,390 -273,546 -81,94 -147,170 -198,226 -375,171 -554,334 -536,489"
   id="path17" />
  <path
   class="fil1 str0"
   d="m 4948,13191 c -28,62 -52,120 -70,175 -81,94 -147,170 -198,226 -375,171 -554,334 -536,489"
   id="path19" />
  <path
   class="fil1 str1"
   d="m 4948,18081 c -28,62 -52,120 -70,175 -81,94 -147,170 -198,226 -375,171 -554,334 -536,489"
   id="path21" />
  <path
   class="fil1 str0"
   d="m 6731,2257 c 241,430 241,768 0,1016 11,277 52,706 122,1289 199,328 203,582 9,762 -228,112 -338,163 -442,207 -369,82 -582,28 -640,-160 -107,-270 -16,-502 273,-696"
   id="path23" />
  <path
   class="fil1 str0"
   d="m 6742,7941 c 18,270 56,637 112,1101 199,328 203,582 9,762 -228,112 -338,163 -442,207 -369,82 -582,28 -640,-160 -107,-270 -16,-502 273,-696"
   id="path25" />
  <path
   class="fil1 str0"
   d="m 6851,13318 c 10,88 21,180 32,276 199,328 203,582 9,762 -228,112 -338,163 -442,207 -369,82 -582,28 -640,-160 -107,-270 -16,-502 273,-696"
   id="path27" />
  <path
   class="fil1 str0"
   d="m 6851,18207 c 10,88 21,180 32,276 199,328 203,582 9,762 -228,112 -338,163 -442,207 -369,82 -582,28 -640,-160 -107,-270 -16,-502 273,-696"
   id="path29" />
  <path
   class="fil1 str2"
   d="m 5758,5301 c -101,224 -250,279 -447,164 -247,-257 73,-557 263,-734"
   id="path31" />
  <path
   class="fil1 str2"
   d="m 5758,9781 c -101,224 -250,279 -447,164 -247,-257 73,-557 263,-734"
   id="path33" />
  <path
   class="fil1 str2"
   d="m 5787,14333 c -101,224 -250,279 -447,164 -247,-257 73,-557 263,-734"
   id="path35" />
  <path
   class="fil1 str1"
   d="m 5787,19222 c -101,224 -250,279 -447,164 -247,-257 73,-557 263,-734"
   id="path37" />
  <path
   class="fil1 str2"
   d="m 5238,5348 c -56,129 -165,164 -325,105 -293,-150 -77,-554 136,-659"
   id="path39" />
  <path
   class="fil1 str2"
   d="m 5238,9828 c -56,129 -165,164 -325,105 -293,-150 -77,-554 136,-659"
   id="path41" />
  <path
   class="fil1 str2"
   d="m 5268,14379 c -56,129 -165,164 -325,105 -293,-150 -77,-554 136,-659"
   id="path43" />
  <path
   class="fil1 str1"
   d="m 5268,19269 c -56,129 -165,164 -325,105 -293,-150 -77,-554 136,-659"
   id="path45" />
  <path
   class="fil1 str2"
   d="m 4776,5287 c -51,112 -140,155 -268,129 -316,-129 -87,-491 141,-607"
   id="path47" />
  <path
   class="fil1 str2"
   d="m 4776,9767 c -51,112 -140,155 -268,129 -316,-129 -87,-491 141,-607"
   id="path49" />
  <path
   class="fil1 str2"
   d="m 4806,14318 c -51,112 -140,155 -268,129 -316,-129 -87,-491 141,-607"
   id="path51" />
  <path
   class="fil1 str1"
   d="m 4806,19208 c -51,112 -140,155 -268,129 -316,-129 -87,-491 141,-607"
   id="path53" />
  <path
   class="fil1 str2"
   d="m 4115,5008 c -44,209 46,339 269,305"
   id="path55" />
  <path
   class="fil1 str2"
   d="m 4115,9488 c -44,209 46,339 269,305"
   id="path57" />
  <path
   class="fil1 str2"
   d="m 4144,14039 c -44,209 46,339 269,305"
   id="path59" />
  <path
   class="fil1 str1"
   d="m 4144,18929 c -44,209 46,339 269,305"
   id="path61" />
  <path
   class="fil1 str2"
   d="m 5742,5099 c 319,-39 532,-29 570,45 93,-57 112,-128 56,-212 -248,-59 -325,-69 -539,-48"
   id="path63" />
  <path
   class="fil1 str2"
   d="m 5742,9579 c 319,-39 532,-29 570,45 93,-57 112,-128 56,-212 -248,-59 -325,-69 -539,-48"
   id="path65" />
  <path
   class="fil1 str2"
   d="m 5772,14130 c 319,-39 532,-29 570,45 93,-57 112,-128 56,-212 -248,-59 -325,-69 -539,-48"
   id="path67" />
  <path
   class="fil1 str2"
   d="m 5772,19020 c 319,-39 532,-29 570,45 93,-57 112,-128 56,-212 -248,-59 -325,-69 -539,-48"
   id="path69" />
  <path
   class="fil1 str2"
   d="m 4382,5085 c 148,-24 283,-24 336,-3"
   id="path71" />
  <path
   class="fil1 str2"
   d="m 4382,9566 c 148,-24 283,-24 336,-3"
   id="path73" />
  <path
   class="fil1 str2"
   d="m 4412,14117 c 148,-24 283,-24 336,-3"
   id="path75" />
  <path
   class="fil1 str1"
   d="m 4412,19007 c 148,-24 283,-24 336,-3"
   id="path77" />
  <path
   class="fil1 str2"
   d="m 4792,5101 c 152,-30 270,-31 354,-5"
   id="path79" />
  <path
   class="fil1 str2"
   d="m 4792,9581 c 152,-30 270,-31 354,-5"
   id="path81" />
  <path
   class="fil1 str2"
   d="m 4821,14132 c 152,-30 270,-31 354,-5"
   id="path83" />
  <path
   class="fil1 str1"
   d="m 4821,19022 c 152,-30 270,-31 354,-5"
   id="path85" />
  <path
   class="fil1 str2"
   d="m 5250,5107 c 148,-54 276,-53 385,3"
   id="path87" />
  <path
   class="fil1 str2"
   d="m 5250,9588 c 148,-54 276,-53 385,3"
   id="path89" />
  <path
   class="fil1 str2"
   d="m 5280,14139 c 148,-54 276,-53 385,3"
   id="path91" />
  <path
   class="fil1 str1"
   d="m 5280,19029 c 148,-54 276,-53 385,3"
   id="path93" />
  <path
   class="fil1 str2"
   d="m 4382,5085 c -51,-42 -99,-48 -144,-17"
   id="path95" />
  <path
   class="fil1 str2"
   d="m 4382,9566 c -51,-42 -99,-48 -144,-17"
   id="path97" />
  <path
   class="fil1 str2"
   d="m 4412,14117 c -51,-42 -99,-48 -144,-17"
   id="path99" />
  <path
   class="fil1 str1"
   d="m 4412,19007 c -51,-42 -99,-48 -144,-17"
   id="path101" />
  <path
   class="fil1 str0"
   d="m 6495,2406 c -78,298 -60,571 53,820"
   id="path103" />
  <path
   class="fil1 str0"
   d="m 5253,3252 c 183,-108 259,-275 227,-501"
   id="path105" />
  <path
   class="fil1 str3"
   d="m 5345,4969 c 186,-47 280,-1 282,138"
   id="path107" />
  <path
   class="fil1 str3"
   d="m 5345,9449 c 186,-47 280,-1 282,138"
   id="path109" />
  <path
   class="fil1 str3"
   d="m 5375,14000 c 186,-47 280,-1 282,138"
   id="path111" />
  <path
   class="fil1 str1"
   d="m 5375,18890 c 186,-47 280,-1 282,138"
   id="path113" />
  <path
   class="fil1 str3"
   d="m 4867,4985 c 106,-32 179,-31 218,2 18,21 14,52 -11,94"
   id="path115" />
  <path
   class="fil1 str3"
   d="m 4867,9465 c 106,-32 179,-31 218,2 18,21 14,52 -11,94"
   id="path117" />
  <path
   class="fil1 str3"
   d="m 4896,14016 c 106,-32 179,-31 218,2 18,21 14,52 -11,94"
   id="path119" />
  <path
   class="fil1 str1"
   d="m 4896,18906 c 106,-32 179,-31 218,2 18,21 14,52 -11,94"
   id="path121" />
  <path
   class="fil1 str3"
   d="m 4476,4967 c 122,-37 205,-9 201,18 9,48 6,77 -10,86"
   id="path123" />
  <path
   class="fil1 str3"
   d="m 4476,9448 c 122,-37 205,-9 201,18 9,48 6,77 -10,86"
   id="path125" />
  <path
   class="fil1 str3"
   d="m 4506,13999 c 122,-37 205,-9 201,18 9,48 6,77 -10,86"
   id="path127" />
  <path
   class="fil1 str3"
   d="m 4506,18889 c 122,-37 205,-9 201,18 9,48 6,77 -10,86"
   id="path129" />
  <path
   class="fil1 str3"
   d="m 4424,5015 c -53,-57 -109,-73 -168,-47 -37,37 -43,70 -18,101"
   id="path131" />
  <path
   class="fil1 str3"
   d="m 4424,9495 c -53,-57 -109,-73 -168,-47 -37,37 -43,70 -18,101"
   id="path133" />
  <path
   class="fil1 str3"
   d="m 4453,14046 c -53,-57 -109,-73 -168,-47 -37,37 -43,70 -18,101"
   id="path135" />
  <path
   class="fil1 str3"
   d="m 4453,18936 c -53,-57 -109,-73 -168,-47 -37,37 -43,70 -18,101"
   id="path137" />
  <rect
   class="fil1 str2"
   x="3580"
   y="1393"
   width="4057"
   height="19720"
   id="rect139" />
  <line
   class="fil1 str2"
   x1="3580"
   y1="6332"
   x2="7637"
   y2="6332"
   id="line141" />
  <line
   class="fil1 str2"
   x1="3580"
   y1="11306"
   x2="7637"
   y2="11306"
   id="line143" />
  <line
   class="fil1 str2"
   x1="3580"
   y1="16245"
   x2="7637"
   y2="16245"
   id="line145" />
 </g>
</svg>
