<?xml version="1.0" encoding="UTF-8" standalone="no"?>
<svg
   xmlns:dc="http://purl.org/dc/elements/1.1/"
   xmlns:cc="http://creativecommons.org/ns#"
   xmlns:rdf="http://www.w3.org/1999/02/22-rdf-syntax-ns#"
   xmlns:svg="http://www.w3.org/2000/svg"
   xmlns="http://www.w3.org/2000/svg"
   xmlns:sodipodi="http://sodipodi.sourceforge.net/DTD/sodipodi-0.dtd"
   xmlns:inkscape="http://www.inkscape.org/namespaces/inkscape"
   xml:space="preserve"
   width="135"
   height="118"
   version="1.1"
   style="clip-rule:evenodd;fill-rule:evenodd;image-rendering:optimizeQuality;shape-rendering:geometricPrecision;text-rendering:geometricPrecision"
   viewBox="0 0 3571.8751 3122.083"
   id="svg58"
   sodipodi:docname="4.svg"
   inkscape:version="1.0.2 (e86c870879, 2021-01-15)"><metadata
   id="metadata62"><rdf:RDF><cc:Work
       rdf:about=""><dc:format>image/svg+xml</dc:format><dc:type
         rdf:resource="http://purl.org/dc/dcmitype/StillImage" /><dc:title></dc:title></cc:Work></rdf:RDF></metadata><sodipodi:namedview
   pagecolor="#ffffff"
   bordercolor="#666666"
   borderopacity="1"
   objecttolerance="10"
   gridtolerance="10"
   guidetolerance="10"
   inkscape:pageopacity="0"
   inkscape:pageshadow="2"
   inkscape:window-width="1920"
   inkscape:window-height="1052"
   id="namedview60"
   showgrid="false"
   inkscape:zoom="2.6822135"
   inkscape:cx="-66.988145"
   inkscape:cy="50.791972"
   inkscape:window-x="0"
   inkscape:window-y="0"
   inkscape:window-maximized="1"
   inkscape:current-layer="svg58"
   inkscape:document-rotation="0"
   units="px" />
 <defs
   id="defs4">
  <style
   type="text/css"
   id="style2">
   <![CDATA[
    .str0 {stroke:#323232;stroke-width:42.33}
    .str1 {stroke:#323232;stroke-width:67.73}
    .fil1 {fill:none}
    .fil0 {fill:#DDDDDD}
   ]]>
  </style>
 </defs>
 <g
   id="Слой_x0020_1"
   transform="matrix(-1,0,0,1,5776.0799,-2391.5455)">
  <metadata
   id="CorelCorpID_0Corel-Layer" />
  <path
   class="fil0"
   d="m 5357,3532 c 128,238 219,595 275,1073 37,223 13,407 -71,552 -72,140 -205,227 -400,259 -105,7 -219,-42 -340,-148 -38,184 -184,274 -438,269 -154,-1 -270,-95 -348,-282 -7,62 -17,111 -29,131 -73,160 -231,210 -475,148 -164,-71 -287,-192 -368,-364 -164,37 -294,-11 -395,-141 -176,-155 -302,-354 -377,-599 -6,-94 -32,-169 -79,-224 -92,-96 -117,-206 -74,-330 2,-8 4,-24 6,-48 162,159 386,230 672,213 -17,-72 -23,-160 -16,-251 5,-79 51,-143 138,-192 59,-37 119,-45 182,-24 67,41 123,126 161,235 3,-176 58,-287 165,-332 116,-60 231,-32 347,84 181,121 337,212 472,272 -153,-249 -138,-496 33,-750 188,-245 407,-367 656,-366 117,226 249,300 276,594 10,74 20,151 28,219 z"
   id="path7" />
  <path
   class="fil1 str0"
   d="m 3227,4204 c 104,7 172,-3 205,-30"
   id="path9" />
  <path
   class="fil1 str0"
   d="m 3012,4992 c 78,23 150,27 215,10"
   id="path11" />
  <path
   class="fil1 str0"
   d="m 2433,4500 c 96,-113 240,-170 431,-168"
   id="path13" />
  <path
   class="fil1 str0"
   d="m 3004,3584 c 2,116 50,208 145,277 94,31 169,15 227,-50"
   id="path15" />
  <path
   class="fil1 str1"
   d="m 3151,5142 c 82,172 204,293 368,364 243,62 401,12 475,-148 44,-71 53,-424 27,-1060 -16,-391 -64,-645 -141,-764 -115,-117 -231,-145 -347,-84 -107,45 -162,156 -165,332"
   id="path17" />
  <path
   class="fil1 str0"
   d="m 3533,3450 c -21,105 -22,199 -3,279 49,58 131,77 246,57 71,-3 108,-8 111,-13 25,-63 22,-142 -7,-239"
   id="path19" />
  <path
   class="fil1 str0"
   d="m 3607,4170 c 150,-19 286,-18 407,3"
   id="path21" />
  <path
   class="fil1 str0"
   d="m 3580,5385 c 106,32 199,32 279,0"
   id="path23" />
  <path
   class="fil1 str1"
   d="m 4023,5228 c 78,187 194,281 348,282 254,4 400,-85 438,-269 5,-135 5,-252 0,-353"
   id="path25" />
  <path
   class="fil1 str0"
   d="m 4314,5183 c -35,-271 468,-515 495,-296"
   id="path27" />
  <path
   class="fil1 str0"
   d="m 5007,4541 c 32,65 71,114 116,146"
   id="path29" />
  <path
   class="fil1 str0"
   d="m 3720,3430 c 328,236 593,381 792,435"
   id="path31" />
  <path
   class="fil1 str1"
   d="m 4385,3056 c -171,254 -179,505 -26,754"
   id="path33" />
  <path
   class="fil1 str0"
   d="m 4748,3696 c -103,38 -181,94 -236,168 -49,-125 -36,-242 40,-350"
   id="path35" />
  <path
   class="fil1 str1"
   d="m 4513,3864 c 21,120 68,249 141,386"
   id="path37" />
  <path
   class="fil1 str0"
   d="m 4000,4000 c 139,-58 258,-86 354,-82"
   id="path39" />
  <path
   class="fil1 str0"
   d="m 4122,4312 c 117,-103 245,-142 384,-114"
   id="path41" />
  <path
   class="fil1 str0"
   d="m 4290,5332 c 183,26 325,1 424,-74"
   id="path43" />
  <path
   class="fil1 str1"
   d="m 4809,5241 c 121,106 235,156 340,148 195,-33 329,-119 400,-259 84,-145 107,-329 71,-552 -56,-478 -147,-836 -275,-1073"
   id="path45" />
  <path
   class="fil1 str0"
   d="m 4990,5200 c 153,45 283,9 390,-108"
   id="path47" />
  <path
   class="fil1 str1"
   d="m 5372,4223 c 152,239 232,488 241,747"
   id="path49" />
  <path
   class="fil1 str0"
   d="m 3964,3767 c 14,-91 59,-120 135,-89"
   id="path51" />
  <path
   class="fil1 str1"
   d="m 4385,3056 c 188,-245 407,-367 656,-366 14,28 28,56 40,83 140,158 219,329 236,512 77,548 82,952 13,1212 -155,163 -329,294 -522,390 -77,102 -207,206 -391,311 -81,12 -138,-20 -171,-96 -75,-290 -24,-524 155,-700 228,-183 405,-223 532,-121"
   id="path53" />
  <path
   class="fil1 str1"
   d="m 2231,3801 c 162,159 386,230 672,213 m -672,-213 c -2,24 -3,40 -6,48 -42,124 -18,234 74,330 47,55 73,129 79,224 75,245 201,444 377,599 106,136 246,181 421,135 107,-24 177,-210 209,-559 40,-192 55,-342 44,-451 -23,-311 -97,-504 -222,-579 -62,-21 -123,-13 -182,24 -87,49 -133,113 -138,192 -17,204 28,361 135,471 -174,145 -253,347 -236,606"
   id="path55" />
 </g>
</svg>
