<?xml version="1.0" encoding="UTF-8" standalone="no"?>
<svg
   xmlns:dc="http://purl.org/dc/elements/1.1/"
   xmlns:cc="http://creativecommons.org/ns#"
   xmlns:rdf="http://www.w3.org/1999/02/22-rdf-syntax-ns#"
   xmlns:svg="http://www.w3.org/2000/svg"
   xmlns="http://www.w3.org/2000/svg"
   xmlns:sodipodi="http://sodipodi.sourceforge.net/DTD/sodipodi-0.dtd"
   xmlns:inkscape="http://www.inkscape.org/namespaces/inkscape"
   xml:space="preserve"
   width="38.87117mm"
   height="48.425339mm"
   version="1.1"
   style="clip-rule:evenodd;fill-rule:evenodd;image-rendering:optimizeQuality;shape-rendering:geometricPrecision;text-rendering:geometricPrecision"
   viewBox="0 0 3887.117 4842.5339"
   id="svg46"
   sodipodi:docname="5.svg"
   inkscape:version="1.0.2 (e86c870879, 2021-01-15)"><metadata
   id="metadata50"><rdf:RDF><cc:Work
       rdf:about=""><dc:format>image/svg+xml</dc:format><dc:type
         rdf:resource="http://purl.org/dc/dcmitype/StillImage" /><dc:title></dc:title></cc:Work></rdf:RDF></metadata><sodipodi:namedview
   pagecolor="#ffffff"
   bordercolor="#666666"
   borderopacity="1"
   objecttolerance="10"
   gridtolerance="10"
   guidetolerance="10"
   inkscape:pageopacity="0"
   inkscape:pageshadow="2"
   inkscape:window-width="1920"
   inkscape:window-height="1052"
   id="namedview48"
   showgrid="false"
   inkscape:zoom="2.6822135"
   inkscape:cx="22.897573"
   inkscape:cy="124.70018"
   inkscape:window-x="0"
   inkscape:window-y="0"
   inkscape:window-maximized="1"
   inkscape:current-layer="svg46"
   inkscape:document-rotation="0" />
 <defs
   id="defs4">
  <style
   type="text/css"
   id="style2">
   <![CDATA[
    .str2 {stroke:#323232;stroke-width:33.87}
    .str1 {stroke:#323232;stroke-width:42.33}
    .str0 {stroke:#323232;stroke-width:84.67}
    .fil1 {fill:none}
    .fil0 {fill:#DDDDDD}
   ]]>
  </style>
 </defs>
 <g
   id="Слой_x0020_1"
   transform="matrix(-1,0,0,1,6042.0214,-1399.5081)">
  <metadata
   id="CorelCorpID_0Corel-Layer" />
  <path
   class="fil0"
   d="m 2196,2997 c 73,295 134,571 183,828 42,635 82,1123 120,1462 33,180 130,280 290,298 122,-34 177,-144 163,-331 2,-582 -5,-973 -21,-1171 67,-37 130,5 191,126 43,350 105,702 184,1058 41,158 81,345 120,562 37,231 147,341 332,331 143,-33 197,-159 163,-377 -51,-313 -93,-617 -127,-913 -48,-247 -95,-496 -141,-747 42,-44 85,-44 127,0 46,222 93,403 141,542 27,194 91,399 191,615 87,168 139,337 155,509 68,239 188,375 360,410 151,-25 215,-142 191,-351 -16,-166 -54,-316 -113,-450 -66,-256 -127,-492 -184,-708 -67,-258 -152,-516 -254,-774 74,-47 128,-36 163,33 134,264 238,475 311,635 138,231 234,412 290,542 111,326 260,520 445,582 133,-2 199,-55 198,-159 -22,-266 -102,-548 -240,-847 -207,-518 -370,-904 -488,-1158 -121,-299 -187,-543 -199,-730 -162,216 -657,357 -1485,425 -504,47 -859,-35 -1065,-245 z M 4640,1438 c 298,297 377,709 239,1238 31,30 68,76 108,138 79,128 133,201 163,218 61,231 122,383 184,456 100,156 237,242 410,258 136,14 214,8 233,-20 29,-57 29,-130 0,-218 -101,-324 -155,-549 -163,-675 -187,-374 -334,-611 -442,-711 -265,-311 -509,-539 -732,-684 z"
   id="path7" />
  <path
   class="fil1 str0"
   d="m 2196,2997 c 73,295 134,571 183,828 42,635 82,1123 120,1462 33,180 130,280 290,298 122,-34 177,-144 163,-331 2,-582 -5,-973 -21,-1171 67,-37 130,5 191,126 43,350 105,702 184,1058 41,158 81,345 120,562 37,231 147,341 332,331 143,-33 197,-159 163,-377 -51,-313 -93,-617 -127,-913 -48,-247 -95,-496 -141,-747 42,-44 85,-44 127,0 46,222 93,403 141,542 27,194 91,399 191,615 87,168 139,337 155,509 68,239 188,375 360,410 151,-25 215,-142 191,-351 -16,-166 -54,-316 -113,-450 -66,-256 -127,-492 -184,-708 -67,-258 -152,-516 -254,-774 74,-47 128,-36 163,33 134,264 238,475 311,635 138,231 234,412 290,542 111,326 260,520 445,582 133,-2 199,-55 198,-159 -22,-266 -102,-548 -240,-847 -207,-518 -370,-904 -488,-1158 -121,-299 -187,-543 -199,-730 m -2550,180 c 206,210 560,292 1065,245 828,-68 1323,-209 1485,-425 M 4641,1435 c 298,297 377,709 239,1238 31,30 68,76 108,138 79,128 133,201 163,218 61,231 122,383 184,456 100,156 237,242 410,258 136,14 214,8 233,-20 29,-57 29,-130 0,-218 -101,-324 -155,-549 -163,-675 -187,-374 -334,-611 -442,-711 -265,-311 -509,-539 -732,-684"
   id="path9" />
  <path
   class="fil1 str1"
   d="m 2930,4083 c -94,-77 -249,-116 -465,-114"
   id="path11" />
  <path
   class="fil1 str1"
   d="m 3121,4208 c 161,-80 338,-109 530,-86"
   id="path13" />
  <path
   class="fil1 str1"
   d="m 3757,4086 c 229,-4 391,-61 486,-172"
   id="path15" />
  <path
   class="fil1 str1"
   d="m 4381,3883 c 265,-43 428,-156 488,-341"
   id="path17" />
  <path
   class="fil1 str1"
   d="m 5149,3031 c 112,-45 247,-65 405,-60"
   id="path19" />
  <path
   class="fil1 str2"
   d="m 2449,4458 c 209,74 337,73 477,-8 -161,-34 -290,-33 -477,8 z"
   id="path21" />
  <path
   class="fil1 str2"
   d="m 3214,4817 c 140,-83 324,-114 550,-92"
   id="path23" />
  <path
   class="fil1 str2"
   d="m 3225,4878 c 263,13 449,-8 556,-64"
   id="path25" />
  <path
   class="fil1 str2"
   d="m 2463,4928 c 200,22 363,21 488,-1"
   id="path27" />
  <path
   class="fil1 str2"
   d="m 3370,5547 c 123,-85 290,-107 503,-65"
   id="path29" />
  <path
   class="fil1 str2"
   d="m 3959,4861 c 169,-159 356,-216 562,-170"
   id="path31" />
  <path
   class="fil1 str2"
   d="m 3971,4907 c 240,-16 427,-72 562,-168"
   id="path33" />
  <path
   class="fil1 str2"
   d="m 4213,5528 c 187,-109 350,-152 491,-129"
   id="path35" />
  <path
   class="fil1 str1"
   d="m 4649,4395 c 282,-80 457,-188 525,-321"
   id="path37" />
  <path
   class="fil1 str2"
   d="m 4700,4501 c 251,-68 425,-172 523,-311"
   id="path39" />
  <path
   class="fil1 str2"
   d="m 5005,5073 c 173,-117 334,-182 482,-195"
   id="path41" />
  <path
   class="fil1 str1"
   d="m 5879,3173 c -109,214 -77,398 97,553"
   id="path43" />
 </g>
<g
   id="Слой_x0020_1-3"
   transform="matrix(-1,0,0,1,7345.4991,-472.9616)"
   style="clip-rule:evenodd;fill-rule:evenodd;image-rendering:optimizeQuality;shape-rendering:geometricPrecision;text-rendering:geometricPrecision"><metadata
     id="CorelCorpID_0Corel-Layer-6" /><path
     class="fil0"
     d="m 3576,5275 c -95,11 -233,9 -412,-6 -118,-79 -245,-238 -327,-383 -93,8 -184,-8 -331,-46 -119,-56 -243,-173 -372,-351 -35,-79 -61,-236 -79,-472 -28,-99 -52,-221 -72,-365 3,-84 -21,-170 -72,-258 -14,-77 -26,-160 -36,-250 379,259 916,342 1603,198 426,-80 770,-210 1085,-428 50,190 117,490 153,754 42,204 83,448 122,730 11,110 23,272 36,487 30,133 49,281 57,444 13,103 -52,180 -193,229 -154,1 -281,-92 -379,-279 -68,-194 -120,-378 -157,-551 -21,-152 -49,-396 -83,-730 0,0 -32,10 -95,29 21,336 55,584 100,744 5,184 36,353 93,508 68,75 135,199 200,372 -4,155 -94,248 -272,279 -149,-3 -294,-99 -436,-286 -97,-126 -146,-248 -145,-367 M 4592,2897 c 154,183 280,341 387,434 -27,190 -31,359 -13,507 18,169 123,298 315,386 140,6 221,-24 243,-89 6,-179 17,-423 32,-733 34,-149 34,-262 0,-340 -165,-326 -309,-601 -433,-826 -65,-85 -284,-259 -678,-537 136,254 185,654 146,1199 z"
     id="path7-7" /><path
     class="fil1 str0"
     d="m 1853,3118 c 10,90 22,173 36,250 50,87 74,173 72,258 20,144 44,266 72,365 17,236 44,393 79,472 129,178 253,294 372,351 288,74 471,60 551,-43 56,-126 39,-233 -50,-322 -149,-33 -242,-38 -279,-14 -154,39 -228,97 -222,172"
     id="path9-5" /><path
     class="fil1 str1"
     d="m 2704,4434 c -123,-98 -178,-275 -165,-529"
     id="path11-3" /><path
     class="fil1 str1"
     d="m 2582,4261 c -181,-14 -310,20 -386,101"
     id="path13-5" /><path
     class="fil1 str1"
     d="m 2132,3826 c 118,34 254,60 408,79 40,39 94,72 165,100 -16,150 -1,288 45,416"
     id="path15-6" /><path
     class="fil1 str0"
     d="m 2840,4906 c 82,146 182,258 300,336 333,28 521,11 565,-50 92,-97 104,-188 36,-272 -104,-107 -208,-144 -313,-113 -198,22 -302,97 -311,225"
     id="path17-2" /><path
     class="fil1 str0"
     d="m 3429,4808 c -65,-78 -108,-173 -129,-286 0,-196 0,-328 0,-397"
     id="path19-9" /><path
     class="fil1 str1"
     d="m 3429,4808 c -65,-78 -108,-173 -129,-286 0,-196 0,-328 0,-397 -139,-58 -338,-98 -596,-120"
     id="path21-1" /><path
     class="fil1 str1"
     d="m 3300,4521 c -87,-12 -171,-5 -252,21"
     id="path23-2" /><path
     class="fil1 str1"
     d="m 3300,4124 c 328,15 561,-26 700,-124"
     id="path25-7" /><path
     class="fil1 str1"
     d="m 3364,4127 c -12,273 21,497 101,673"
     id="path27-0" /><path
     class="fil1 str0"
     d="m 3540,5250 c 0,119 48,241 145,367 142,187 288,283 436,286 178,-31 268,-124 272,-279 -65,-173 -132,-297 -200,-372 -57,-155 -88,-324 -93,-508 -45,-160 -79,-408 -100,-744"
     id="path29-9" /><path
     class="fil1 str1"
     d="m 4100,4744 c -127,-28 -293,-4 -500,74"
     id="path31-3" /><path
     class="fil1 str1"
     d="m 4193,5252 c -155,-59 -317,-11 -487,143"
     id="path33-6" /><path
     class="fil1 str1"
     d="m 4000,4000 c 306,-89 499,-185 580,-286"
     id="path35-0" /><path
     class="fil1 str2"
     d="m 4095,3971 c 35,334 63,578 84,730 37,173 90,357 157,551 99,187 225,280 379,279 141,-49 206,-126 193,-229 -8,-163 -27,-311 -57,-444 -13,-215 -25,-377 -36,-487 -39,-282 -80,-525 -122,-730 -36,-264 -90,-539 -139,-728"
     id="path37-6" /><path
     class="fil1 str1"
     d="m 4822,4442 c -227,-22 -410,-3 -550,58"
     id="path39-2" /><path
     class="fil1 str1"
     d="m 4851,4859 c -189,3 -349,34 -479,93"
     id="path41-6" /><path
     class="fil1 str1"
     d="m 4568,2870 c 154,183 299,358 407,451 107,-68 233,-92 376,-72"
     id="path43-1" /><path
     class="fil1 str0"
     d="m 4955,3303 c -27,190 -31,359 -13,507 18,169 123,298 315,386 140,6 221,-24 243,-89 6,-179 17,-423 32,-733 34,-149 34,-262 0,-340 -165,-326 -309,-601 -433,-826 -65,-85 -294,-267 -688,-544"
     id="path45" /><path
     class="fil1 str0"
     d="m 4568,2870 c 105,-558 -10,-944 -146,-1199"
     id="path47" /><path
     class="fil1 str0"
     d="m 1855,3143 c 379,259 913,317 1600,173 426,-80 797,-229 1112,-446"
     id="path49" /><path
     class="fil1 str1"
     d="m 3383,3330 c 161,24 268,58 320,101"
     id="path51" /><path
     class="fil1 str1"
     d="m 3959,3180 c 228,123 458,182 690,178"
     id="path53" /></g></svg>
