<?xml version="1.0" encoding="UTF-8" standalone="no"?>
<svg
   xmlns:dc="http://purl.org/dc/elements/1.1/"
   xmlns:cc="http://creativecommons.org/ns#"
   xmlns:rdf="http://www.w3.org/1999/02/22-rdf-syntax-ns#"
   xmlns:svg="http://www.w3.org/2000/svg"
   xmlns="http://www.w3.org/2000/svg"
   xmlns:sodipodi="http://sodipodi.sourceforge.net/DTD/sodipodi-0.dtd"
   xmlns:inkscape="http://www.inkscape.org/namespaces/inkscape"
   xml:space="preserve"
   width="37.252724mm"
   height="51.625744mm"
   version="1.1"
   style="clip-rule:evenodd;fill-rule:evenodd;image-rendering:optimizeQuality;shape-rendering:geometricPrecision;text-rendering:geometricPrecision"
   viewBox="0 0 3725.2724 5162.5744"
   id="svg54"
   sodipodi:docname="5.svg"
   inkscape:version="1.0.2 (e86c870879, 2021-01-15)"><metadata
   id="metadata58"><rdf:RDF><cc:Work
       rdf:about=""><dc:format>image/svg+xml</dc:format><dc:type
         rdf:resource="http://purl.org/dc/dcmitype/StillImage" /><dc:title /></cc:Work></rdf:RDF></metadata><sodipodi:namedview
   pagecolor="#ffffff"
   bordercolor="#666666"
   borderopacity="1"
   objecttolerance="10"
   gridtolerance="10"
   guidetolerance="10"
   inkscape:pageopacity="0"
   inkscape:pageshadow="2"
   inkscape:window-width="1920"
   inkscape:window-height="1052"
   id="namedview56"
   showgrid="false"
   inkscape:zoom="2.6822135"
   inkscape:cx="66.054377"
   inkscape:cy="82.674783"
   inkscape:window-x="0"
   inkscape:window-y="0"
   inkscape:window-maximized="1"
   inkscape:current-layer="svg54"
   inkscape:document-rotation="0" />
 <defs
   id="defs4">
  <style
   type="text/css"
   id="style2">
   <![CDATA[
    .str1 {stroke:black;stroke-width:33.87}
    .str2 {stroke:black;stroke-width:42.33}
    .str0 {stroke:black;stroke-width:84.67}
    .fil1 {fill:none}
    .fil0 {fill:#DDDDDD}
   ]]>
  </style>
 </defs>
 
<g
   id="Слой_x0020_1"
   transform="matrix(-1,0,0,1,6090.2127,-1889.3612)"
   style="clip-rule:evenodd;fill-rule:evenodd;image-rendering:optimizeQuality;shape-rendering:geometricPrecision;text-rendering:geometricPrecision"><metadata
     id="CorelCorpID_0Corel-Layer" /><path
     class="fil0"
     d="m 3387,5332 c -172,45 -285,-5 -389,-138 -173,-152 -297,-348 -370,-589 -6,-93 -32,-166 -78,-220 -90,-94 -115,-202 -73,-324 12,-44 14,-313 7,-807 -100,-1464 2110,-1985 2800,-250 138,155 215,323 232,503 9,61 23,163 30,221 125,233 213,580 267,1049 36,219 13,400 -69,542 -70,138 -202,223 -394,255 -104,7 -215,-41 -334,-146 -37,181 -181,269 -430,265 -152,-1 -265,-94 -342,-277 -6,250 -256,335 -495,274 -161,-70 -282,-189 -362,-358 z"
     id="path7" /><path
     class="fil1 str0"
     d="m 2682,2474 c -160,108 -226,369 -198,781 7,494 5,763 -7,807 -42,122 -17,230 73,324 46,54 72,127 78,220 74,240 197,437 370,589 104,134 242,178 413,132"
     id="path9" /><path
     class="fil1 str1"
     d="m 2682,2474 c -160,108 -226,369 -198,781 7,494 5,763 -7,807 -42,122 -17,230 73,324 46,54 72,127 78,220 74,240 197,437 370,589 104,134 242,178 413,132 105,-24 174,-207 205,-549 39,-189 54,-337 43,-443 -23,-305 -95,-495 -218,-569 -61,-21 -121,-13 -179,23 -86,48 -131,111 -136,189 -16,201 28,355 132,463 -171,143 -248,341 -232,595"
     id="path11" /><path
     class="fil1 str1"
     d="m 3461,4410 c 102,7 169,-3 201,-30"
     id="path13" /><path
     class="fil1 str1"
     d="m 3249,5184 c 77,23 147,26 212,10"
     id="path15" /><path
     class="fil1 str1"
     d="m 2458,4148 c 155,55 347,70 576,47"
     id="path17" /><path
     class="fil1 str1"
     d="m 2680,4701 c 94,-112 235,-167 423,-165"
     id="path19" /><path
     class="fil1 str1"
     d="m 3242,3800 c 2,114 49,205 143,272 92,31 166,15 223,-49"
     id="path21" /><path
     class="fil1 str1"
     d="m 3387,5332 c 80,169 201,288 362,358 239,61 394,12 466,-146 43,-70 52,-417 26,-1042 -16,-384 -62,-634 -139,-751 -113,-115 -227,-142 -341,-83 -105,45 -159,153 -162,326"
     id="path23" /><path
     class="fil1 str0"
     d="m 3387,5332 c 80,169 201,288 362,358 239,61 394,12 466,-146 13,-21 23,-69 30,-143"
     id="path25" /><path
     class="fil1 str1"
     d="m 3762,3669 c -21,104 -22,195 -3,275 49,57 129,76 241,56 69,-3 106,-8 109,-13 24,-62 22,-140 -7,-235"
     id="path27" /><path
     class="fil1 str1"
     d="m 3835,4377 c 148,-19 281,-18 400,3"
     id="path29" /><path
     class="fil1 str1"
     d="m 3808,5571 c 104,31 195,31 275,0"
     id="path31" /><path
     class="fil1 str1"
     d="m 4244,5416 c 76,184 190,276 342,277 249,4 393,-84 430,-265 4,-132 4,-248 0,-347"
     id="path33" /><path
     class="fil1 str0"
     d="m 4244,5416 c 76,184 190,276 342,277 249,4 393,-84 430,-265"
     id="path35" /><path
     class="fil1 str1"
     d="m 4675,2184 c 285,282 488,555 609,820 138,155 215,323 232,503 76,539 80,936 13,1191 -152,161 -323,288 -513,384 -76,100 -204,202 -384,306 -80,11 -136,-20 -168,-94 -74,-285 -23,-515 152,-688 224,-180 398,-220 523,-119"
     id="path37" /><path
     class="fil1 str1"
     d="m 4529,5372 c -20,-156 65,-263 255,-321 141,-86 219,-77 232,30"
     id="path39" /><path
     class="fil1 str1"
     d="m 5210,4741 c 32,64 70,112 114,144"
     id="path41" /><path
     class="fil1 str1"
     d="m 3534,2991 c 40,277 178,496 412,658 323,232 582,374 779,427"
     id="path43" /><path
     class="fil1 str1"
     d="m 3315,3216 c 91,241 268,382 532,425"
     id="path45" /><path
     class="fil1 str1"
     d="m 4599,3282 c -168,249 -176,496 -25,741"
     id="path47" /><path
     class="fil1 str1"
     d="m 4956,3911 c -101,37 -178,92 -232,165 -49,-123 -35,-237 40,-344"
     id="path49" /><path
     class="fil1 str1"
     d="m 4724,4076 c 21,118 67,245 138,380"
     id="path51" /><path
     class="fil1 str1"
     d="m 4221,4210 c 137,-57 253,-84 348,-81"
     id="path53" /><path
     class="fil1 str1"
     d="m 4341,4516 c 115,-102 240,-139 377,-112"
     id="path55" /><path
     class="fil1 str1"
     d="m 4506,5518 c 180,26 319,1 417,-73"
     id="path57" /><path
     class="fil1 str0"
     d="m 5015,5429 c 119,104 231,153 334,146 192,-32 323,-117 394,-255 82,-143 105,-324 69,-542 -55,-470 -144,-815 -270,-1048 -7,-64 -18,-152 -28,-222 -17,-180 -94,-347 -232,-503 -121,-265 -323,-538 -609,-820"
     id="path59" /><path
     class="fil1 str1"
     d="m 5194,5389 c 150,44 278,9 384,-106"
     id="path61" /><path
     class="fil1 str1"
     d="m 5569,4429 c 149,235 228,480 237,734"
     id="path63" /><path
     class="fil1 str1"
     d="m 4185,3981 c 13,-89 58,-118 133,-87"
     id="path65" /></g></svg>
