<?xml version="1.0" encoding="UTF-8" standalone="no"?>
<svg
   xmlns:dc="http://purl.org/dc/elements/1.1/"
   xmlns:cc="http://creativecommons.org/ns#"
   xmlns:rdf="http://www.w3.org/1999/02/22-rdf-syntax-ns#"
   xmlns:svg="http://www.w3.org/2000/svg"
   xmlns="http://www.w3.org/2000/svg"
   xmlns:sodipodi="http://sodipodi.sourceforge.net/DTD/sodipodi-0.dtd"
   xmlns:inkscape="http://www.inkscape.org/namespaces/inkscape"
   xml:space="preserve"
   width="123.95805mm"
   height="235.31703mm"
   version="1.1"
   style="clip-rule:evenodd;fill-rule:evenodd;image-rendering:optimizeQuality;shape-rendering:geometricPrecision;text-rendering:geometricPrecision"
   viewBox="0 0 12395.805 23531.703"
   id="svg168"
   sodipodi:docname="6.svg"
   inkscape:version="1.0.2 (e86c870879, 2021-01-15)"><metadata
   id="metadata172"><rdf:RDF><cc:Work
       rdf:about=""><dc:format>image/svg+xml</dc:format><dc:type
         rdf:resource="http://purl.org/dc/dcmitype/StillImage" /></cc:Work></rdf:RDF></metadata><sodipodi:namedview
   pagecolor="#ffffff"
   bordercolor="#666666"
   borderopacity="1"
   objecttolerance="10"
   gridtolerance="10"
   guidetolerance="10"
   inkscape:pageopacity="0"
   inkscape:pageshadow="2"
   inkscape:window-width="797"
   inkscape:window-height="480"
   id="namedview170"
   showgrid="false"
   inkscape:zoom="0.85830833"
   inkscape:cx="257.07815"
   inkscape:cy="450.97946"
   inkscape:window-x="23"
   inkscape:window-y="15"
   inkscape:window-maximized="0"
   inkscape:current-layer="svg168" />
 <defs
   id="defs4">
  <style
   type="text/css"
   id="style2">
   <![CDATA[
    .str3 {stroke:black;stroke-width:42.33}
    .str1 {stroke:#D9D9D9;stroke-width:42.33}
    .str2 {stroke:black;stroke-width:67.73}
    .str0 {stroke:#D9D9D9;stroke-width:67.73}
    .fil2 {fill:none}
    .fil1 {fill:#EEE8E7}
    .fil0 {fill:#F8F8F8}
   ]]>
  </style>
 </defs>
 <g
   id="Слой_x0020_1"
   transform="translate(-698.14052,-567.835)">
  <metadata
   id="CorelCorpID_0Corel-Layer" />
  <path
   class="fil0"
   d="m 4624,23603 c -16,-139 144,-247 480,-401 45,-50 104,-118 177,-202 47,-139 128,-302 244,-489 88,-174 127,-377 118,-607 -70,-185 -67,-388 8,-607 -27,-230 -36,-516 -25,-860 -43,-823 -170,-1570 -379,-2242 -229,-1041 -291,-1887 -185,-2537 60,-466 122,-1019 185,-1660 73,-853 89,-1644 46,-2370 -228,-1061 -288,-3045 -220,-5012 120,-744 160,-2088 276,-2321 55,-110 200,-1385 389,-1235 367,291 883,2212 1114,2272 525,136 1698,-259 1892,378 94,307 -63,1340 -97,1694 -86,625 -490,3181 -622,3859 -76,601 -305,1105 -425,1486 -32,692 -77,1199 -177,1652 1,519 13,961 37,1326 -12,1156 -26,1834 -341,2941 -189,946 -240,1769 -152,2469 216,385 216,688 0,910 10,248 46,633 110,1155 179,294 181,521 8,683 -205,101 -303,146 -396,185 -331,73 -525,14 -580,-214 -90,201 -312,256 -462,35 -41,93 -202,102 -323,40 -21,-11 -42,-82 -69,-93 -20,-8 -49,50 -66,52 -64,7 -122,57 -183,36 -46,-16 -84,-85 -116,-92 -266,-16 -239,-56 -268,-232 z"
   id="path7" />
  <path
   class="fil1"
   d="M 3618,4621 C 3680,3799 4221,2455 5243,589 H 3108 c -60,222 -99,449 -117,680 -39,274 -88,573 -147,895 -250,1377 -541,2093 -885,2223 -298,193 -390,356 -593,624 -186,200 -390,419 -611,658 -42,72 -27,140 47,205 410,203 483,-242 832,-448 284,-60 -73,1201 -113,1398 -76,402 -111,678 -105,827 35,115 103,146 205,95 137,-205 300,-680 490,-1422 -30,151 -466,2003 68,1748 102,-105 149,-280 216,-593 123,-688 184,-1032 184,-1032 -87,716 -134,1209 -142,1480 74,144 233,176 332,58 160,-643 261,-1156 306,-1538 -95,691 -90,1091 16,1201 103,34 184,-15 242,-147 89,-388 131,-705 126,-953 -20,-181 18,-374 116,-579 153,-461 167,-911 43,-1348 z"
   id="path9" />
  <path
   class="fil1"
   d="m 10059,12644 c 32,692 97,1265 197,1717 -1,519 -13,961 -37,1326 12,1156 26,1834 341,2941 189,946 240,1769 152,2469 -216,385 -216,688 0,910 -10,248 -46,633 -110,1155 -179,294 -181,521 -8,683 205,101 303,146 396,185 331,73 543,-37 594,-206 90,201 342,287 465,42 18,42 67,110 156,119 40,4 119,-13 174,-53 46,-33 69,-90 105,-88 44,3 79,76 128,87 90,22 170,-43 183,-46 10,-4 18,-45 28,-50 52,-23 123,4 164,-20 70,-42 92,-144 69,-254 16,-139 -144,-247 -480,-401 -45,-50 -104,-118 -177,-202 -47,-139 -128,-302 -244,-489 -88,-174 -127,-377 -118,-607 70,-185 67,-388 -8,-607 27,-230 36,-516 25,-860 43,-823 170,-1570 379,-2242 229,-1041 291,-1887 185,-2537 -60,-466 -122,-1019 -185,-1660 -73,-853 -89,-1644 -46,-2370 228,-1061 308,-2576 240,-4543 -54,-1436 -242,-2772 -564,-4008 -41,-557 -120,-1117 -237,-1680 -23,-268 -36,-518 -37,-749 H 5931 c -1,231 -14,481 -37,749 -117,563 -196,1123 -237,1680 -199,895 -319,1426 -426,2419 -77,924 -248,2744 -136,3173 36,137 -21,1406 106,2056 39,201 104,1172 110,2221 3,525 -108,1778 -172,2345 -8,73 -90,564 -81,1109 12,753 131,1623 245,1754 108,124 449,1996 403,3138 -3,65 -153,380 -8,610 40,64 -25,170 52,218 181,112 553,124 658,107 144,-23 434,39 606,-49 44,-23 -27,-91 16,-131 291,-271 2,-887 0,-915 -42,-625 77,-2512 194,-2632 162,-166 307,-2041 268,-2773 -10,-188 -94,-1389 97,-2180 89,-371 63,-644 75,-730 14,-104 83,-379 130,-528 163,-522 288,-1176 344,-1407 98,-407 182,-1170 210,-1290 205,-870 434,-2525 436,-3911 88,-5 180,-10 276,-14 20,1109 153,2327 400,3653 86,625 196,1277 329,1955 76,601 153,1027 273,1407 z"
   id="path11" />
  <path
   class="fil2 str0"
   d="m 4654,23600 c -16,-139 144,-285 480,-438 45,-50 104,-118 177,-202 47,-139 128,-302 244,-489 88,-174 127,-377 118,-607 -70,-185 -67,-388 8,-607 -27,-230 -36,-516 -25,-860 -43,-823 -170,-1570 -379,-2242 -229,-1041 -291,-1887 -185,-2537 60,-466 122,-1019 185,-1660 73,-853 89,-1644 46,-2370 -228,-1061 -288,-3045 -220,-5012 79,-1477 263,-2656 553,-3539"
   id="path13" />
  <path
   class="fil2 str0"
   d="m 6190,14421 c 286,105 540,91 763,-42 213,-135 330,-287 350,-455 -42,-712 24,-611 329,-1213 120,-380 350,-884 425,-1486 133,-678 536,-3234 622,-3859 47,-544 81,-1117 103,-1719"
   id="path15" />
  <path
   class="fil2 str0"
   d="m 7651,12645 c -32,692 -97,1265 -197,1717 -46,288 -56,268 -317,698"
   id="path17" />
  <path
   class="fil2 str0"
   d="m 7454,14362 c 1,519 13,961 37,1326 -12,1156 -26,1834 -341,2941 -189,946 -240,1769 -152,2469 216,385 216,688 0,910 10,248 46,633 110,1155 179,294 181,521 8,683 -205,101 -303,146 -396,185 -331,73 -522,25 -573,-143 -95,-242 -14,-450 244,-624"
   id="path19" />
  <path
   class="fil2 str1"
   d="m 6126,23825 c -90,201 -224,249 -400,147 -221,-230 66,-499 236,-657"
   id="path21" />
  <path
   class="fil2 str1"
   d="m 5661,23867 c -50,115 -148,147 -291,94 -262,-134 -69,-496 122,-590"
   id="path23" />
  <path
   class="fil2 str1"
   d="m 5247,23812 c -46,100 -126,139 -240,116 -283,-115 -78,-440 126,-544"
   id="path25" />
  <path
   class="fil2 str1"
   d="m 4654,23562 c -39,187 41,303 241,273"
   id="path27" />
  <path
   class="fil2 str0"
   d="m 5275,11343 c 8,173 200,579 288,791 -10,189 6,376 46,560 44,114 87,184 131,211"
   id="path29" />
  <path
   class="fil2 str1"
   d="m 6112,23644 c 286,-35 477,-26 511,40 83,-51 100,-114 51,-190 -222,-53 -291,-62 -483,-43"
   id="path31" />
  <path
   class="fil2 str1"
   d="m 4893,23632 c 133,-22 254,-22 301,-3"
   id="path33" />
  <path
   class="fil2 str1"
   d="m 5261,23645 c 136,-27 242,-28 317,-4"
   id="path35" />
  <path
   class="fil2 str1"
   d="m 5671,23651 c 132,-48 247,-47 345,3"
   id="path37" />
  <path
   class="fil2 str1"
   d="m 4893,23632 c -45,-37 -88,-43 -129,-16"
   id="path39" />
  <path
   class="fil2 str2"
   d="m 3108,589 c -60,222 -99,449 -117,680 -39,274 -88,573 -147,895 -250,1377 -541,2093 -885,2223 -298,193 -390,356 -593,624 -186,200 -390,419 -611,658 -42,72 -27,140 47,205 410,203 483,-242 832,-448 284,-60 -73,1201 -113,1398 -76,402 -111,678 -105,827 35,115 103,146 205,95 137,-205 300,-680 490,-1422 -30,151 -466,2003 68,1748 102,-105 149,-280 216,-593 123,-688 184,-1032 184,-1032 -87,716 -134,1209 -142,1480 74,144 233,176 332,58 160,-643 261,-1156 306,-1538 -95,691 -90,1091 16,1201 103,34 184,-15 242,-147 89,-388 131,-705 126,-953 -20,-181 18,-374 116,-579 153,-461 167,-911 43,-1348"
   id="path41" />
  <path
   class="fil2 str2"
   d="m 5935,609 c -1,231 -14,481 -37,749 -117,563 -196,1123 -237,1680"
   id="path43" />
  <path
   class="fil2 str2"
   d="m 11792,609 c 1,231 14,481 37,749 117,563 196,1123 237,1680 322,1236 510,2572 564,4008 68,1967 -12,3481 -240,4543 -42,727 -27,1517 46,2370 63,641 125,1194 185,1660 105,650 44,1495 -185,2537 -210,672 -336,1419 -379,2242 10,343 2,630 -25,860 76,219 79,421 8,607 -9,230 30,432 118,607 116,187 197,349 244,489 73,85 132,152 177,202 336,153 496,299 480,438"
   id="path45" />
  <path
   class="fil2 str2"
   d="m 9061,5629 c 20,1109 153,2327 400,3653 86,625 196,1277 329,1955 76,601 173,1092 293,1473 305,603 371,501 329,1213 20,168 137,320 350,455 223,133 477,148 763,42"
   id="path47" />
  <path
   class="fil2 str2"
   d="m 10063,12645 c 32,692 97,1265 197,1717 46,288 56,268 317,698"
   id="path49" />
  <path
   class="fil2 str2"
   d="m 10260,14362 c -1,519 -13,961 -37,1326 12,1156 26,1834 341,2941 189,946 240,1769 152,2469 -216,385 -216,688 0,910 -10,248 -46,633 -110,1155 -179,294 -181,521 -8,683 205,101 303,146 396,185 331,73 522,25 573,-143 95,-242 14,-450 -244,-624"
   id="path51" />
  <path
   class="fil2 str3"
   d="m 11588,23825 c 90,201 224,249 400,147 221,-230 -66,-499 -236,-657"
   id="path53" />
  <path
   class="fil2 str3"
   d="m 12054,23867 c 50,115 148,147 291,94 262,-134 69,-496 -122,-590"
   id="path55" />
  <path
   class="fil2 str3"
   d="m 12467,23812 c 46,100 126,139 240,116 283,-115 78,-440 -126,-544"
   id="path57" />
  <path
   class="fil2 str3"
   d="m 13060,23562 c 39,187 -41,303 -241,273"
   id="path59" />
  <path
   class="fil2 str2"
   d="m 12439,11343 c -8,173 -200,579 -288,791 10,189 -6,376 -46,560 -44,114 -87,184 -131,211"
   id="path61" />
  <path
   class="fil2 str3"
   d="m 11602,23644 c -286,-35 -477,-26 -511,40 -83,-51 -100,-114 -51,-190 222,-53 291,-62 483,-43"
   id="path63" />
  <path
   class="fil2 str3"
   d="m 12821,23632 c -133,-22 -254,-22 -301,-3"
   id="path65" />
  <path
   class="fil2 str3"
   d="m 12454,23645 c -136,-27 -242,-28 -317,-4"
   id="path67" />
  <path
   class="fil2 str3"
   d="m 12043,23651 c -132,-48 -247,-47 -345,3"
   id="path69" />
  <path
   class="fil2 str3"
   d="m 12821,23632 c 45,-37 88,-43 129,-16"
   id="path71" />
  <path
   class="fil2 str2"
   d="m 8232,5431 c 433,302 823,282 1171,-59"
   id="path73" />
  <path
   class="fil2 str3"
   d="m 1987,4375 c 203,-82 372,-105 507,-69"
   id="path75" />
  <path
   class="fil2 str3"
   d="m 3618,4621 c -82,-111 -170,-184 -265,-219"
   id="path77" />
  <path
   class="fil2 str3"
   d="m 2013,5738 c 407,-114 644,-351 712,-712"
   id="path79" />
  <path
   class="fil2 str3"
   d="m 2283,5881 c 283,-192 602,-244 956,-156"
   id="path81" />
  <path
   class="fil2 str3"
   d="m 1921,6206 c 115,118 257,160 426,126"
   id="path83" />
  <path
   class="fil2 str3"
   d="m 2580,6449 c 132,-28 229,-65 289,-112"
   id="path85" />
  <path
   class="fil2 str3"
   d="m 3075,6449 c 99,-39 165,-87 198,-146"
   id="path87" />
  <path
   class="fil2 str3"
   d="m 8864,1637 c -261,-119 -319,-270 -173,-455 168,-90 300,-70 396,59"
   id="path89" />
  <path
   class="fil2 str3"
   d="m 8639,1676 c 200,78 345,-59 281,-275"
   id="path91" />
  <path
   class="fil2 str3"
   d="m 10788,17191 c 57,1054 83,1938 79,2652"
   id="path93" />
  <path
   class="fil2 str3"
   d="m 6953,17191 c -57,1054 -83,1938 -79,2652"
   id="path95" />
  <path
   class="fil2 str3"
   d="m 10921,21133 c 52,437 27,717 -73,840"
   id="path97" />
  <path
   class="fil2 str3"
   d="m 6821,21133 c -52,437 -27,717 73,840"
   id="path99" />
  <path
   class="fil2 str3"
   d="m 11840,21550 c -4,234 63,389 201,463"
   id="path101" />
  <path
   class="fil2 str3"
   d="m 5901,21550 c 4,234 -63,389 -201,463"
   id="path103" />
  <line
   class="fil2 str3"
   x1="3108"
   y1="589"
   x2="5243"
   y2="589"
   id="line105" />
  <line
   class="fil2 str3"
   x1="5935"
   y1="609"
   x2="11792"
   y2="609"
   id="line107" />
  <path
   class="fil2 str3"
   d="m 6028,1714 c 146,42 271,128 377,258 100,164 168,354 318,489"
   id="path109" />
  <path
   class="fil2 str3"
   d="m 7755,1376 c -163,117 -247,258 -251,423 -29,159 -26,366 7,622"
   id="path111" />
  <path
   class="fil2 str3"
   d="m 7252,3407 c 104,415 252,710 443,886"
   id="path113" />
  <path
   class="fil2 str3"
   d="m 7636,3037 c 28,198 67,345 119,443"
   id="path115" />
  <path
   class="fil2 str3"
   d="m 9468,4082 c 323,-57 537,-324 642,-800"
   id="path117" />
  <path
   class="fil2 str3"
   d="m 10037,4684 c 301,-310 480,-614 536,-913"
   id="path119" />
  <path
   class="fil2 str3"
   d="m 10235,1436 c 144,192 170,593 79,1204"
   id="path121" />
  <path
   class="fil2 str3"
   d="m 10963,2468 c 153,-131 281,-281 384,-450 134,-177 266,-283 397,-318"
   id="path123" />
  <path
   class="fil2 str3"
   d="M 10282,7310 C 9999,8311 9871,9180 9898,9916"
   id="path125" />
  <path
   class="fil2 str3"
   d="m 7570,7310 c 283,1001 411,1870 384,2606"
   id="path127" />
  <path
   class="fil2 str2"
   d="M 5243,589 C 4222,2455 3680,3799 3618,4621"
   id="path129" />
  <path
   class="fil2 str3"
   d="m 1511,5518 c -14,-135 -127,-208 -338,-219"
   id="path131" />
  <path
   class="fil2 str3"
   d="m 1636,6503 c 134,-27 238,6 311,99"
   id="path133" />
  <path
   class="fil2 str3"
   d="m 1481,7048 c 157,18 286,61 386,129"
   id="path135" />
  <path
   class="fil2 str3"
   d="m 2079,6688 c 120,-31 234,-27 344,13"
   id="path137" />
  <path
   class="fil2 str3"
   d="m 1941,7290 c 147,-24 261,-20 344,13"
   id="path139" />
  <path
   class="fil2 str3"
   d="m 2496,7188 c 138,-40 241,-41 311,-4"
   id="path141" />
  <path
   class="fil2 str3"
   d="m 2554,6668 c 161,-32 290,-28 385,13"
   id="path143" />
  <path
   class="fil2 str3"
   d="m 3012,7055 c 153,-57 290,-66 411,-27"
   id="path145" />
  <path
   class="fil2 str3"
   d="m 3085,6695 c 125,-43 213,-45 265,-7"
   id="path147" />
  <path
   class="fil2 str2"
   d="m 5661,3038 c -329,1264 -488,2578 -542,4046 -50,1436 -22,2637 82,3601"
   id="path149" />
  <path
   class="fil2 str2"
   d="m 8797,5637 c -20,1099 -152,2304 -396,3618 -86,619 -194,1264 -325,1936 -75,595 -305,1081 -424,1458 -261,517 -392,686 -355,1312 -20,167 -127,280 -337,414 -221,132 -486,150 -769,46"
   id="path151" />
  <path
   class="fil2 str2"
   d="m 7672,12584 c -31,686 -96,1252 -195,1700 -45,285 -121,403 -380,829"
   id="path153" />
  <path
   class="fil2 str2"
   d="m 5138,15251 c 48,-398 96,-863 146,-1372 73,-845 68,-1636 26,-2356 -49,-227 -77,-587 -112,-856"
   id="path155" />
  <path
   class="fil2 str2"
   d="m 5319,11575 c 71,150 150,330 237,539 -10,187 6,372 46,555 43,113 86,182 129,209"
   id="path157" />
  <path
   class="fil2"
   d="m 5302,18115 c 797,1097 1711,570 1924,325 -6,31 -12,62 -18,93"
   id="path159" />
  <path
   class="fil2 str2"
   d="m 5294,13820 c -64,652 -127,1215 -189,1689 -107,661 -44,1521 189,2580 3,9 5,18 8,26"
   id="path161" />
  <path
   class="fil2 str2"
   d="m 7485,14227 c 1,528 37,980 61,1351 -12,1164 -79,1741 -319,2862"
   id="path163" />
  <path
   class="fil2 str2"
   d="m 7227,18440 c -13,48 -32,120 -46,169 -191,952 -241,1779 -153,2483 217,387 217,692 0,915 2,41 4,85 7,134 -452,86 -903,57 -1344,-77 6,-65 8,-132 5,-201 -71,-186 -68,-390 8,-610 -27,-231 -36,-519 -25,-864 -43,-827 -167,-1598 -377,-2273"
   id="path165" />
 </g>
</svg>
