<?xml version="1.0" encoding="UTF-8" standalone="no"?>
<svg
   xmlns:dc="http://purl.org/dc/elements/1.1/"
   xmlns:cc="http://creativecommons.org/ns#"
   xmlns:rdf="http://www.w3.org/1999/02/22-rdf-syntax-ns#"
   xmlns:svg="http://www.w3.org/2000/svg"
   xmlns="http://www.w3.org/2000/svg"
   xmlns:sodipodi="http://sodipodi.sourceforge.net/DTD/sodipodi-0.dtd"
   xmlns:inkscape="http://www.inkscape.org/namespaces/inkscape"
   xml:space="preserve"
   width="102.84021mm"
   height="235.33574mm"
   version="1.1"
   style="clip-rule:evenodd;fill-rule:evenodd;image-rendering:optimizeQuality;shape-rendering:geometricPrecision;text-rendering:geometricPrecision"
   viewBox="0 0 10284.021 23533.574"
   id="svg556"
   sodipodi:docname="6.svg"
   inkscape:version="1.0.2 (e86c870879, 2021-01-15)"><metadata
   id="metadata560"><rdf:RDF><cc:Work
       rdf:about=""><dc:format>image/svg+xml</dc:format><dc:type
         rdf:resource="http://purl.org/dc/dcmitype/StillImage" /></cc:Work></rdf:RDF></metadata><sodipodi:namedview
   pagecolor="#ffffff"
   bordercolor="#666666"
   borderopacity="1"
   objecttolerance="10"
   gridtolerance="10"
   guidetolerance="10"
   inkscape:pageopacity="0"
   inkscape:pageshadow="2"
   inkscape:window-width="797"
   inkscape:window-height="480"
   id="namedview558"
   showgrid="false"
   inkscape:zoom="0.72248176"
   inkscape:cx="185.48071"
   inkscape:cy="443.8554"
   inkscape:window-x="23"
   inkscape:window-y="15"
   inkscape:window-maximized="0"
   inkscape:current-layer="svg556" />
 <defs
   id="defs4">
  <style
   type="text/css"
   id="style2">
   <![CDATA[
    .str3 {stroke:black;stroke-width:33.87;stroke-miterlimit:22.9256}
    .str4 {stroke:black;stroke-width:8.47;stroke-miterlimit:22.9256}
    .str0 {stroke:black;stroke-width:67.73;stroke-miterlimit:22.9256}
    .str1 {stroke:black;stroke-width:42.33;stroke-miterlimit:22.9256}
    .str2 {stroke:black;stroke-width:25.4;stroke-miterlimit:22.9256}
    .str5 {stroke:black;stroke-width:7.62;stroke-miterlimit:22.9256}
    .fil0 {fill:none}
    .fil1 {fill:black}
   ]]>
  </style>
 </defs>
 <g
   id="_0"
   transform="translate(-5592.4895,-3106.3258)">
  <metadata
   id="CorelCorpID_0Corel-Layer" />
  <path
   class="fil0 str0"
   d="m 8749,9743 c 74,683 139,1379 127,1719 28,247 26,541 -3,883 -73,353 -123,705 -149,1055 -202,776 -320,1615 -354,2517 -43,1235 7,2186 150,2853 27,456 17,952 -29,1488 -40,402 -79,750 -116,1042 -66,408 -27,939 116,1593 132,422 211,891 238,1408 -6,215 -1,395 16,540 -48,138 -49,265 -5,381 6,144 -19,271 -74,381 -73,117 -124,219 -153,307 -46,53 -83,95 -111,127 -211,96 -311,188 -302,275"
   id="path7" />
  <path
   class="fil0 str0"
   d="m 12720,9743 c -74,683 -139,1379 -127,1719 -28,247 -26,541 3,883 73,353 123,705 149,1055 202,776 320,1615 354,2517 43,1235 -7,2186 -150,2853 -27,456 -17,952 29,1488 40,402 79,750 116,1042 66,408 27,939 -116,1593 -132,422 -211,891 -238,1408 6,215 1,395 -16,540 48,138 49,265 5,381 -6,144 19,271 74,381 73,117 124,219 153,307 46,53 83,95 111,127 211,96 311,188 302,275"
   id="path9" />
  <path
   class="fil0 str0"
   d="m 10338,14903 c 272,189 517,177 736,-37"
   id="path11" />
  <path
   class="fil0 str0"
   d="m 10610,15027 c -12,697 -96,1461 -251,2294 -54,393 -123,802 -206,1228 -47,378 -109,686 -184,925 -58,115 -123,235 -193,357 -22,50 -26,185 -13,405 -13,106 -86,201 -220,286 -140,84 -300,93 -479,26"
   id="path13" />
  <path
   class="fil0 str0"
   d="m 10859,15027 c 12,697 96,1461 251,2294 54,393 123,802 206,1228 47,378 109,686 184,925 191,379 233,315 206,762 13,106 86,201 220,286 140,84 300,93 479,26"
   id="path15" />
  <path
   class="fil0 str0"
   d="m 9981,19432 c -20,435 -61,794 -124,1078 -29,181 -125,406 -289,677"
   id="path17" />
  <path
   class="fil0 str0"
   d="m 11488,19432 c 20,435 61,794 124,1078 29,181 35,168 199,439"
   id="path19" />
  <path
   class="fil0 str0"
   d="m 9857,20510 c 1,326 8,604 23,833 -7,726 -17,1152 -214,1847 -119,594 -151,1111 -95,1550 136,242 136,432 0,572 6,156 29,397 69,725 112,184 114,327 5,429 -128,63 -190,91 -249,116 -208,46 -328,16 -360,-90 -60,-152 -9,-283 153,-392"
   id="path21" />
  <path
   class="fil0 str0"
   d="m 11611,20510 c -1,326 -8,604 -23,833 7,726 17,1152 214,1847 119,594 151,1111 95,1550 -136,242 -136,432 0,572 -6,156 -29,397 -69,725 -112,184 -114,327 -5,429 128,63 190,91 249,116 208,46 328,16 360,-90 60,-152 9,-283 -153,-392"
   id="path23" />
  <path
   class="fil0 str1"
   d="m 9023,26453 c -57,126 -141,157 -251,92 -139,-144 41,-313 148,-413"
   id="path25" />
  <path
   class="fil0 str1"
   d="m 12445,26453 c 57,126 141,157 251,92 139,-144 -41,-313 -148,-413"
   id="path27" />
  <path
   class="fil0 str1"
   d="m 8731,26479 c -32,72 -93,92 -183,59 -165,-84 -43,-312 77,-370"
   id="path29" />
  <path
   class="fil0 str1"
   d="m 12738,26479 c 32,72 93,92 183,59 165,-84 43,-312 -77,-370"
   id="path31" />
  <path
   class="fil0 str1"
   d="m 8471,26444 c -29,63 -79,87 -151,73 -178,-72 -49,-276 79,-341"
   id="path33" />
  <path
   class="fil0 str1"
   d="m 12997,26444 c 29,63 79,87 151,73 178,-72 49,-276 -79,-341"
   id="path35" />
  <path
   class="fil0 str1"
   d="m 8099,26288 c -25,118 26,191 151,171"
   id="path37" />
  <path
   class="fil0 str1"
   d="m 13370,26288 c 25,118 -26,191 -151,171"
   id="path39" />
  <path
   class="fil0 str0"
   d="m 13979,11072 c -160,290 -280,300 -585,184"
   id="path41" />
  <path
   class="fil0 str1"
   d="m 13278,10790 c -93,-166 -141,-374 -143,-622"
   id="path43" />
  <path
   class="fil0 str1"
   d="m 13008,8812 c -91,-58 -145,-147 -163,-269"
   id="path45" />
  <path
   class="fil0 str0"
   d="m 9026,9740 c -181,-84 -281,-282 -300,-594"
   id="path47" />
  <path
   class="fil0 str0"
   d="m 12504,9674 c 181,-84 220,-216 240,-528"
   id="path49" />
  <path
   class="fil0 str0"
   d="m 13795,8757 c 5,209 -39,365 -131,468"
   id="path51" />
  <path
   class="fil0 str0"
   d="m 9748,4505 c -322,-133 -171,401 -100,556 0,164 56,249 169,253"
   id="path53" />
  <path
   class="fil0 str0"
   d="m 11611,4505 c 322,-133 171,401 100,556 0,164 -56,249 -169,253"
   id="path55" />
  <path
   class="fil0 str0"
   d="m 9071,11974 c -302,603 -382,1150 -238,1640"
   id="path57" />
  <path
   class="fil0 str0"
   d="m 12398,11974 c 225,634 382,1150 238,1640"
   id="path59" />
  <path
   class="fil0 str1"
   d="m 9253,9803 c 67,47 146,54 243,53"
   id="path61" />
  <path
   class="fil0 str1"
   d="m 12222,9817 c -81,30 -152,40 -249,38"
   id="path63" />
  <path
   class="fil0 str0"
   d="m 9398,7020 c 186,116 564,171 762,71 59,-25 116,-14 169,13 82,53 101,94 117,143"
   id="path65" />
  <path
   class="fil0 str0"
   d="m 12071,7020 c -484,302 -922,-142 -1049,228"
   id="path67" />
  <path
   class="fil0 str1"
   d="m 10535,7065 c 40,130 80,211 180,238 106,-19 142,-101 159,-233"
   id="path69" />
  <path
   class="fil0 str0"
   d="m 8520,18769 c 45,95 95,209 150,342 -6,119 4,236 29,352 27,71 55,116 82,132"
   id="path71" />
  <path
   class="fil0 str0"
   d="m 12980,18615 c -5,108 -126,364 -181,497 6,119 -4,236 -29,352 -27,71 -55,116 -82,132"
   id="path73" />
  <path
   class="fil0 str0"
   d="m 9953,4493 c 207,-70 377,-42 572,-5"
   id="path75" />
  <path
   class="fil0 str1"
   d="m 10043,4673 c 140,-80 284,-78 434,8"
   id="path77" />
  <path
   class="fil0 str1"
   d="m 11378,4673 c -140,-80 -284,-78 -434,8"
   id="path79" />
  <path
   class="fil0 str2"
   d="m 10136,4752 c 150,45 233,7 248,-114"
   id="path81" />
  <path
   class="fil0 str2"
   d="m 11285,4752 c -150,45 -270,13 -248,-114"
   id="path83" />
  <circle
   class="fil1"
   cx="10251"
   cy="4696"
   r="77"
   id="circle85" />
  <circle
   class="fil1"
   cx="11170"
   cy="4696"
   r="77"
   id="circle87" />
  <path
   class="fil0 str1"
   d="m 14028,14394 c 52,-70 107,-116 167,-137"
   id="path89" />
  <path
   class="fil0 str1"
   d="m 14369,15541 c -62,-24 -103,-55 -124,-92"
   id="path91" />
  <path
   class="fil0 str1"
   d="m 10701,8253 c 7,318 7,537 0,659"
   id="path93" />
  <path
   class="fil0 str1"
   d="m 10584,10039 c 64,-27 108,-60 132,-101 1,175 -7,345 -24,511"
   id="path95" />
  <path
   class="fil0 str1"
   d="m 10735,12680 c -164,-74 -200,-170 -108,-286 106,-56 189,-44 249,37"
   id="path97" />
  <path
   class="fil0 str1"
   d="m 10593,12545 c 126,49 217,-37 176,-173"
   id="path99" />
  <path
   class="fil0 str1"
   d="m 9015,26339 c 180,-22 299,-16 321,25 52,-32 63,-72 32,-119 -83,-63 -184,-72 -303,-27"
   id="path101" />
  <path
   class="fil0 str1"
   d="m 12454,26339 c -180,-22 -299,-16 -321,25 -52,-32 -63,-72 -32,-119 139,-33 183,-39 303,-27"
   id="path103" />
  <path
   class="fil0 str1"
   d="m 8249,26331 c 83,-14 159,-14 189,-2"
   id="path105" />
  <path
   class="fil0 str1"
   d="m 13219,26331 c -83,-14 -159,-14 -189,-2"
   id="path107" />
  <path
   class="fil0 str1"
   d="m 8480,26340 c 85,-17 152,-18 199,-3"
   id="path109" />
  <path
   class="fil0 str1"
   d="m 12989,26340 c -85,-17 -152,-18 -199,-3"
   id="path111" />
  <path
   class="fil0 str1"
   d="m 8738,26344 c 83,-30 155,-30 216,2"
   id="path113" />
  <path
   class="fil0 str1"
   d="m 12731,26344 c -83,-30 -155,-30 -216,2"
   id="path115" />
  <path
   class="fil0 str1"
   d="m 8249,26331 c -29,-24 -55,-27 -81,-10"
   id="path117" />
  <path
   class="fil0 str1"
   d="m 13219,26331 c 29,-24 55,-27 81,-10"
   id="path119" />
  <path
   class="fil0 str1"
   d="m 10852,5119 c -18,-108 -41,-301 -41,-500 0,-41 3,-93 14,-130 209,-57 490,-31 614,42"
   id="path121" />
  <path
   class="fil0 str0"
   d="m 10826,4489 c 209,-57 490,-31 614,42"
   id="path123" />
  <path
   class="fil0 str3"
   d="m 10357,5622 c 43,56 138,61 201,37 23,-32 50,-41 79,-29 128,77 181,-20 235,-13 64,-10 85,106 193,37"
   id="path125" />
  <path
   class="fil0 str2"
   d="m 10500,5755 c 1,33 19,58 53,75 50,33 107,50 171,50"
   id="path127" />
  <path
   class="fil0 str1"
   d="m 10948,5755 c -1,33 -19,58 -53,75 -50,33 -107,50 -171,50"
   id="path129" />
  <path
   class="fil1 str1"
   d="m 10899,5808 c -132,95 -244,96 -336,4 53,-1 102,14 155,13 59,-1 121,-13 181,-17 z"
   id="path131" />
  <path
   class="fil0 str0"
   d="m 10549,5300 c 188,74 290,77 307,11"
   id="path133" />
  <path
   class="fil1"
   d="m 10830,5658 c -67,105 -131,91 -179,12 -2,-5 -14,-22 -13,-24 5,-12 55,14 96,14 38,0 100,-31 113,-28 4,1 -16,24 -18,27 z"
   id="path135" />
  <path
   class="fil0 str0"
   d="m 11498,5688 c 48,-242 -5,-483 66,-718 50,-165 47,-328 46,-486 14,-590 -28,-1237 -615,-1323 -181,-18 -363,-36 -562,0 -495,114 -698,486 -688,1204 3,470 52,922 146,1356 147,356 363,568 648,635 135,27 241,16 303,-2 227,-68 595,-442 656,-666 z"
   id="path137" />
  <path
   class="fil0 str0"
   d="m 11498,5688 c -105,943 223,1103 1086,1382 463,70 794,317 992,741 174,305 245,718 212,1237 12,102 23,179 33,232 106,406 159,1004 159,1793 261,382 409,788 443,1217 25,172 56,360 93,562 157,865 339,1314 556,1396 187,121 245,224 372,392 117,126 245,263 384,413 27,45 17,88 -30,129 -257,127 -304,-152 -523,-281 -178,-38 46,754 71,878 48,253 70,426 66,519 -22,72 -65,92 -129,60 -86,-129 -188,-427 -308,-893 19,95 293,1258 -43,1098 -64,-66 -93,-176 -136,-372 -77,-432 -116,-648 -116,-648 54,449 84,759 89,929 -264,289 -389,-832 -400,-929 60,434 57,685 -10,754 -65,21 -115,-10 -152,-93 -56,-243 -82,-443 -79,-599 13,-113 -12,-235 -73,-364 -104,-313 -106,-617 -7,-913 -90,-302 -215,-600 -377,-893 -278,-541 -468,-957 -569,-1250 -106,-250 -161,-572 -165,-966 -147,-467 -245,-1139 -210,-1622 -16,-428 41,-718 169,-870"
   id="path139" />
  <path
   class="fil0 str1"
   d="m 15052,14239 c -128,-51 -234,-66 -318,-44"
   id="path141" />
  <path
   class="fil0 str1"
   d="m 15036,15095 c -255,-72 -404,-221 -447,-447"
   id="path143" />
  <path
   class="fil0 str1"
   d="m 14867,15185 c -178,-120 -378,-153 -601,-98"
   id="path145" />
  <path
   class="fil0 str1"
   d="m 15094,15389 c -72,74 -162,101 -267,79"
   id="path147" />
  <path
   class="fil0 str1"
   d="m 14680,15541 c -83,-18 -144,-41 -181,-70"
   id="path149" />
  <path
   class="fil0 str4"
   d="m 10377,5642 c 30,52 79,75 147,68"
   id="path151" />
  <path
   class="fil0 str5"
   d="m 11055,5642 c -30,52 -79,75 -147,68"
   id="path153" />
  <path
   class="fil0 str5"
   d="m 10500,5755 c 8,-10 32,-12 73,-8"
   id="path155" />
 </g>
 <g
   id="????_x0020_1"
   visibility="hidden"
   transform="translate(-5592.4895,-3106.3258)">
  <metadata
   id="CorelCorpID_1Corel-Layer" />
  <path
   class="fil0 str0"
   d="m 9971,5889 c 45,404 5,637 -120,699 -342,224 -664,385 -966,483 -463,70 -794,317 -992,741 -174,305 -245,718 -212,1237 -12,102 -23,179 -33,232 -106,406 -159,1004 -159,1793 -261,382 -409,788 -443,1217 -25,172 -56,360 -93,562 -157,865 -339,1314 -556,1396 -187,121 -245,224 -372,392 -117,126 -245,263 -384,413 -27,45 -17,88 30,129 257,127 304,-152 523,-281 178,-38 -46,754 -71,878 -48,253 -70,426 -66,519 22,72 65,92 129,60 86,-129 188,-427 308,-893 -19,95 -293,1258 43,1098 64,-66 93,-176 136,-372 77,-432 116,-648 116,-648 -54,449 -84,759 -89,929 46,90 146,110 208,36 100,-404 164,-726 192,-966 -60,434 -57,685 10,754 65,21 115,-10 152,-93 56,-243 82,-443 79,-599 -13,-113 12,-235 73,-364 104,-313 106,-617 7,-913 90,-302 215,-600 377,-893 278,-541 468,-957 569,-1250 106,-250 161,-572 165,-966 147,-467 245,-1139 210,-1622 16,-428 -41,-718 -169,-870"
   id="path159" />
  <path
   class="fil0 str0"
   d="m 8749,9743 c 74,683 139,1379 127,1719 28,247 26,541 -3,883 -73,353 -123,705 -149,1055 -202,776 -320,1615 -354,2517 -43,1235 7,2186 150,2853 27,456 17,952 -29,1488 -40,402 -79,750 -116,1042 -66,408 -27,939 116,1593 132,422 211,891 238,1408 -6,215 -1,395 16,540 -48,138 -49,265 -5,381 6,144 -19,271 -74,381 -73,117 -124,219 -153,307 -46,53 -83,95 -111,127 -211,96 -311,188 -302,275"
   id="path161" />
  <path
   class="fil0 str0"
   d="m 12720,9743 c -74,683 -139,1379 -127,1719 -28,247 -26,541 3,883 73,353 123,705 149,1055 202,776 320,1615 354,2517 43,1235 -7,2186 -150,2853 -27,456 -17,952 29,1488 40,402 79,750 116,1042 66,408 27,939 -116,1593 -132,422 -211,891 -238,1408 6,215 1,395 -16,540 48,138 49,265 5,381 -6,144 19,271 74,381 73,117 124,219 153,307 46,53 83,95 111,127 211,96 311,188 302,275"
   id="path163" />
  <path
   class="fil0 str0"
   d="m 10338,14903 c 272,189 517,177 736,-37"
   id="path165" />
  <path
   class="fil0 str0"
   d="m 10610,15027 c -12,697 -96,1461 -251,2294 -54,393 -123,802 -206,1228 -47,378 -109,686 -184,925 -58,115 -123,235 -193,357 -22,50 -26,185 -13,405 -13,106 -86,201 -220,286 -140,84 -300,93 -479,26"
   id="path167" />
  <path
   class="fil0 str0"
   d="m 10859,15027 c 12,697 96,1461 251,2294 54,393 123,802 206,1228 47,378 109,686 184,925 191,379 233,315 206,762 13,106 86,201 220,286 140,84 300,93 479,26"
   id="path169" />
  <path
   class="fil0 str0"
   d="m 9981,19432 c -20,435 -61,794 -124,1078 -29,181 -125,406 -289,677"
   id="path171" />
  <path
   class="fil0 str0"
   d="m 11488,19432 c 20,435 61,794 124,1078 29,181 35,168 199,439"
   id="path173" />
  <path
   class="fil0 str0"
   d="m 9857,20510 c 1,326 8,604 23,833 -7,726 -17,1152 -214,1847 -119,594 -151,1111 -95,1550 136,242 136,432 0,572 6,156 29,397 69,725 112,184 114,327 5,429 -128,63 -190,91 -249,116 -208,46 -328,16 -360,-90 -60,-152 -9,-283 153,-392"
   id="path175" />
  <path
   class="fil0 str0"
   d="m 11611,20510 c -1,326 -8,604 -23,833 7,726 17,1152 214,1847 119,594 151,1111 95,1550 -136,242 -136,432 0,572 -6,156 -29,397 -69,725 -112,184 -114,327 -5,429 128,63 190,91 249,116 208,46 328,16 360,-90 60,-152 9,-283 -153,-392"
   id="path177" />
  <path
   class="fil0 str1"
   d="m 9023,26453 c -57,126 -141,157 -251,92 -139,-144 41,-313 148,-413"
   id="path179" />
  <path
   class="fil0 str1"
   d="m 12445,26453 c 57,126 141,157 251,92 139,-144 -41,-313 -148,-413"
   id="path181" />
  <path
   class="fil0 str1"
   d="m 8731,26479 c -32,72 -93,92 -183,59 -165,-84 -43,-312 77,-370"
   id="path183" />
  <path
   class="fil0 str1"
   d="m 12738,26479 c 32,72 93,92 183,59 165,-84 43,-312 -77,-370"
   id="path185" />
  <path
   class="fil0 str1"
   d="m 8471,26444 c -29,63 -79,87 -151,73 -178,-72 -49,-276 79,-341"
   id="path187" />
  <path
   class="fil0 str1"
   d="m 12997,26444 c 29,63 79,87 151,73 178,-72 49,-276 -79,-341"
   id="path189" />
  <path
   class="fil0 str1"
   d="m 8099,26288 c -25,118 26,191 151,171"
   id="path191" />
  <path
   class="fil0 str1"
   d="m 13370,26288 c 25,118 -26,191 -151,171"
   id="path193" />
  <path
   class="fil0 str0"
   d="m 7490,11072 c 62,156 136,255 220,295 112,17 234,-20 365,-111"
   id="path195" />
  <path
   class="fil0 str0"
   d="m 13979,11072 c -160,290 -280,300 -585,184"
   id="path197" />
  <path
   class="fil0 str0"
   d="m 8191,10790 c 93,-166 141,-374 143,-622"
   id="path199" />
  <path
   class="fil0 str1"
   d="m 13278,10790 c -93,-166 -141,-374 -143,-622"
   id="path201" />
  <path
   class="fil0 str1"
   d="m 8461,8812 c 91,-58 145,-147 163,-269"
   id="path203" />
  <path
   class="fil0 str1"
   d="m 13008,8812 c -91,-58 -145,-147 -163,-269"
   id="path205" />
  <path
   class="fil0 str0"
   d="m 9026,9740 c -181,-84 -281,-282 -300,-594"
   id="path207" />
  <path
   class="fil0 str0"
   d="m 12504,9674 c 181,-84 220,-216 240,-528"
   id="path209" />
  <path
   class="fil0 str1"
   d="m 7674,8757 c -5,209 39,365 131,468"
   id="path211" />
  <path
   class="fil0 str0"
   d="m 13795,8757 c 5,209 -39,365 -131,468"
   id="path213" />
  <path
   class="fil0 str0"
   d="m 9748,4505 c -322,-133 -171,401 -100,556 0,164 56,249 169,253"
   id="path215" />
  <path
   class="fil0 str0"
   d="m 11611,4505 c 322,-133 171,401 100,556 0,164 -56,249 -169,253"
   id="path217" />
  <path
   class="fil0 str0"
   d="m 9071,11974 c -302,603 -382,1150 -238,1640"
   id="path219" />
  <path
   class="fil0 str0"
   d="m 12398,11974 c 225,634 382,1150 238,1640"
   id="path221" />
  <path
   class="fil0 str1"
   d="m 9253,9803 c 67,47 146,54 243,53"
   id="path223" />
  <path
   class="fil0 str1"
   d="m 12222,9817 c -81,30 -152,40 -249,38"
   id="path225" />
  <path
   class="fil0 str0"
   d="m 9398,7020 c 186,116 564,171 762,71 59,-25 116,-14 169,13 82,53 101,94 117,143"
   id="path227" />
  <path
   class="fil0 str0"
   d="m 12071,7020 c -484,302 -922,-142 -1049,228"
   id="path229" />
  <path
   class="fil0 str1"
   d="m 10535,7065 c 40,130 80,211 180,238 106,-19 142,-101 159,-233"
   id="path231" />
  <path
   class="fil0 str0"
   d="m 8520,18769 c 45,95 95,209 150,342 -6,119 4,236 29,352 27,71 55,116 82,132"
   id="path233" />
  <path
   class="fil0 str0"
   d="m 12980,18615 c -5,108 -126,364 -181,497 6,119 -4,236 -29,352 -27,71 -55,116 -82,132"
   id="path235" />
  <path
   class="fil0 str0"
   d="m 9953,4493 c 207,-70 377,-42 572,-5"
   id="path237" />
  <path
   class="fil0 str1"
   d="m 10043,4673 c 140,-80 284,-78 434,8"
   id="path239" />
  <path
   class="fil0 str1"
   d="m 11378,4673 c -140,-80 -284,-78 -434,8"
   id="path241" />
  <path
   class="fil0 str2"
   d="m 10136,4752 c 150,45 233,7 248,-114"
   id="path243" />
  <path
   class="fil0 str2"
   d="m 11285,4752 c -150,45 -270,13 -248,-114"
   id="path245" />
  <circle
   class="fil1"
   cx="10251"
   cy="4696"
   r="77"
   id="circle247" />
  <circle
   class="fil1"
   cx="11170"
   cy="4696"
   r="77"
   id="circle249" />
  <path
   class="fil0 str1"
   d="m 6416,14239 c 128,-51 234,-66 318,-44"
   id="path251" />
  <path
   class="fil0 str1"
   d="m 7441,14394 c -52,-70 -107,-116 -167,-137"
   id="path253" />
  <path
   class="fil0 str1"
   d="m 6433,15095 c 255,-72 404,-221 447,-447"
   id="path255" />
  <path
   class="fil0 str1"
   d="m 6602,15185 c 178,-120 378,-153 601,-98"
   id="path257" />
  <path
   class="fil0 str1"
   d="m 6375,15389 c 72,74 162,101 267,79"
   id="path259" />
  <path
   class="fil0 str1"
   d="m 6789,15541 c 83,-18 144,-41 181,-70"
   id="path261" />
  <path
   class="fil0 str1"
   d="m 7100,15541 c 62,-24 103,-55 124,-92"
   id="path263" />
  <path
   class="fil0 str1"
   d="m 10701,8253 c 7,318 7,537 0,659"
   id="path265" />
  <path
   class="fil0 str1"
   d="m 10584,10039 c 64,-27 108,-60 132,-101 1,175 -7,345 -24,511"
   id="path267" />
  <path
   class="fil0 str1"
   d="m 10735,12680 c -164,-74 -200,-170 -108,-286 106,-56 189,-44 249,37"
   id="path269" />
  <path
   class="fil0 str1"
   d="m 10593,12545 c 126,49 217,-37 176,-173"
   id="path271" />
  <path
   class="fil0 str1"
   d="m 9015,26339 c 180,-22 299,-16 321,25 52,-32 63,-72 32,-119 -83,-63 -184,-72 -303,-27"
   id="path273" />
  <path
   class="fil0 str1"
   d="m 12454,26339 c -180,-22 -299,-16 -321,25 -52,-32 -63,-72 -32,-119 139,-33 183,-39 303,-27"
   id="path275" />
  <path
   class="fil0 str1"
   d="m 8249,26331 c 83,-14 159,-14 189,-2"
   id="path277" />
  <path
   class="fil0 str1"
   d="m 13219,26331 c -83,-14 -159,-14 -189,-2"
   id="path279" />
  <path
   class="fil0 str1"
   d="m 8480,26340 c 85,-17 152,-18 199,-3"
   id="path281" />
  <path
   class="fil0 str1"
   d="m 12989,26340 c -85,-17 -152,-18 -199,-3"
   id="path283" />
  <path
   class="fil0 str1"
   d="m 8738,26344 c 83,-30 155,-30 216,2"
   id="path285" />
  <path
   class="fil0 str1"
   d="m 12731,26344 c -83,-30 -155,-30 -216,2"
   id="path287" />
  <path
   class="fil0 str1"
   d="m 8249,26331 c -29,-24 -55,-27 -81,-10"
   id="path289" />
  <path
   class="fil0 str1"
   d="m 13219,26331 c 29,-24 55,-27 81,-10"
   id="path291" />
  <path
   class="fil0 str1"
   d="m 10852,5119 c -18,-108 -41,-301 -41,-500 0,-41 3,-93 14,-130 209,-57 490,-31 614,42"
   id="path293" />
  <path
   class="fil0 str0"
   d="m 10826,4489 c 209,-57 490,-31 614,42"
   id="path295" />
  <path
   class="fil0 str3"
   d="m 10357,5622 c 43,56 138,61 201,37 23,-32 50,-41 79,-29 128,77 181,-20 235,-13 64,-10 85,106 193,37"
   id="path297" />
  <path
   class="fil0 str2"
   d="m 10500,5755 c 1,33 19,58 53,75 50,33 107,50 171,50"
   id="path299" />
  <path
   class="fil0 str1"
   d="m 10948,5755 c -1,33 -19,58 -53,75 -50,33 -107,50 -171,50"
   id="path301" />
  <path
   class="fil1 str1"
   d="m 10899,5808 c -132,95 -244,96 -336,4 53,-1 102,14 155,13 59,-1 121,-13 181,-17 z"
   id="path303" />
  <path
   class="fil0 str0"
   d="m 10549,5300 c 188,74 290,77 307,11"
   id="path305" />
  <path
   class="fil1"
   d="m 10830,5658 c -67,105 -131,91 -179,12 -2,-5 -14,-22 -13,-24 5,-12 55,14 96,14 38,0 100,-31 113,-28 4,1 -16,24 -18,27 z"
   id="path307" />
  <path
   class="fil0 str0"
   d="m 11498,5688 c 48,-242 -5,-483 66,-718 50,-165 47,-328 46,-486 14,-590 -28,-1237 -615,-1323 -181,-18 -363,-36 -562,0 -495,114 -698,486 -688,1204 3,470 52,922 146,1356 147,356 363,568 648,635 135,27 241,16 303,-2 227,-68 595,-442 656,-666 z"
   id="path309" />
  <path
   class="fil0 str0"
   d="m 11498,5688 c -105,943 223,1103 1086,1382 463,70 794,317 992,741 174,305 245,718 212,1237 12,102 23,179 33,232 106,406 159,1004 159,1793 261,382 409,788 443,1217 25,172 56,360 93,562 157,865 339,1314 556,1396 187,121 245,224 372,392 117,126 245,263 384,413 27,45 17,88 -30,129 -257,127 -304,-152 -523,-281 -178,-38 46,754 71,878 48,253 70,426 66,519 -22,72 -65,92 -129,60 -86,-129 -188,-427 -308,-893 19,95 293,1258 -43,1098 -64,-66 -93,-176 -136,-372 -77,-432 -116,-648 -116,-648 54,449 84,759 89,929 -264,289 -389,-832 -400,-929 60,434 57,685 -10,754 -65,21 -115,-10 -152,-93 -56,-243 -82,-443 -79,-599 13,-113 -12,-235 -73,-364 -104,-313 -106,-617 -7,-913 -90,-302 -215,-600 -377,-893 -278,-541 -468,-957 -569,-1250 -106,-250 -161,-572 -165,-966 -147,-467 -245,-1139 -210,-1622 -16,-428 41,-718 169,-870"
   id="path311" />
  <path
   class="fil0 str4"
   d="m 10377,5642 c 30,52 79,75 147,68"
   id="path313" />
  <path
   class="fil0 str5"
   d="m 11055,5642 c -30,52 -79,75 -147,68"
   id="path315" />
  <path
   class="fil0 str5"
   d="m 10500,5755 c 8,-10 32,-12 73,-8"
   id="path317" />
 </g>
 <g
   id="Upper_1"
   visibility="hidden"
   transform="translate(-5592.4895,-3106.3258)">
  <metadata
   id="CorelCorpID_2Corel-Layer" />
  <path
   class="fil0 str0"
   d="m 9982.1,5883.49 c 17.04,938.08 -237.65,908.13 -1100.65,1187.12 -15,2 -30,5 -44,7 -56,77 -154,215 -232,328.99 -66,105 -101,214 -103,326.99 -23,193 0,542.99 67,993.97 128,152 184,441.99 169,869.97 74,682.98 146,1524.95 134,1864.94 28,247 26,540.99 -3,882.98 -73,352.98 -123,704.97 -149,1054.96 -202,775.98 -320,1614.95 -354,2516.92 -43,1234.96 7,2185.93 150,2852.91 27,455.99 17,951.97 -29,1487.95 -40,401.99 -79,749.98 -116,1041.97 -66,407.99 -27,938.97 116,1592.95 132,421.99 211,890.97 238,1407.95 -6,215 -1,394.99 16,539.99 -48,137.99 -49,264.99 -5,380.98 6,144 -19,271 -74,380.99 -73,117 -124,219 -153,306.99 -46,53 -83,95 -111,127 -211,96 -311,187.99 -302,274.99"
   id="path321" />
 </g>
 <g
   id="Upper_2"
   visibility="hidden"
   transform="translate(-5592.4895,-3106.3258)">
  <metadata
   id="CorelCorpID_3Corel-Layer" />
  <path
   class="fil0"
   d="m 8764.58,9912 c 2,-102 0,-199 -6,-290 -405,183 -779,118 -1122,-197 -87,401 -130,958 -130,1672 -1,1 -1,2 -2,3"
   id="path325" />
  <path
   class="fil0 str0"
   d="m 8096.58,26309 c -10,-87 91,-179 302,-275 28,-32 66,-74 111,-127 29,-87 81,-190 153,-307 55,-110 80,-237 74,-381 -44,-116 -42,-243 5,-381 -17,-144 -22,-324 -16,-540 -27,-517 -107,-986 -238,-1408 -144,-654 -183,-1185 -116,-1593 38,-293 77,-640 116,-1042 46,-536 56,-1032 29,-1488 -143,-666 -193,-1617 -150,-2853 34,-902 152,-1741 354,-2517 26,-350 76,-702 149,-1055 30,-342 31,-636 3,-883 13,-340 -57,-1147 -132,-1830 -1,-12 -1,-24 -2,-35 16,-428 -41,-718 -169,-870 m 171,905 c -453,161 -846,91 -1129,-206 11,-51 22,-100 34,-146 10,-53 21,-130 33,-232 -33,-519 37,-931 212,-1237 199,-423 529,-670 992,-741 863,-279 1106.7,-260.24 1086,-1192"
   id="path327" />
  <path
   class="fil0 str0"
   d="m 7671.58,8754 c -5,209 39,365 131,468"
   id="path329" />
  <path
   class="fil0 str1"
   d="m 8458.58,8810 c 91,-58 145,-147 163,-269"
   id="path331" />
 </g>
 <g
   id="Upper_3"
   visibility="hidden"
   transform="translate(-5592.4895,-3106.3258)">
  <metadata
   id="CorelCorpID_4Corel-Layer" />
  <path
   class="fil0"
   d="m 7391.91,14361 c -5,-16 -10,-32 -15,-48 90,-302 215,-600 377,-893 278,-541 468,-957 569,-1250 106,-250 161,-572 165,-966 52,-166 98,-358 135,-558 -423,465 -869,461 -1153,22"
   id="path335" />
  <path
   class="fil0 str0"
   d="M 9991.65,5913.55 C 9976.99,6848 9752.91,6788 8889.91,7067 c -463,70 -794,317 -992,741 -174,305 -245,718 -212,1237 -12,102 -23,179 -33,232 -88,338 -140,808 -154,1410 149,214 345,320 555,308 177,-4 398,-122 620,-350 64,-359 95,-743 73,-1051 16,-428 -41,-718 -169,-870"
   id="path337" />
  <path
   class="fil0 str0"
   d="m 7678.91,8754 c -5,209 39,365 131,468"
   id="path339" />
  <path
   class="fil0 str1"
   d="m 8195.91,10787 c 93,-166 141,-374 143,-622"
   id="path341" />
  <path
   class="fil0 str1"
   d="m 8465.91,8810 c 91,-58 145,-147 163,-269"
   id="path343" />
 </g>
 <g
   id="Upper_4"
   visibility="hidden"
   transform="translate(-5592.4895,-3106.3258)">
  <metadata
   id="CorelCorpID_5Corel-Layer" />
  <path
   class="fil0"
   d="m 14335,15922 c -22,-133 -32,-249 -30,-348 13,-113 -12,-235 -73,-364 -104,-313 -106,-617 -7,-913 -90,-302 -215,-600 -377,-893 -278,-541 -468,-957 -569,-1250 488,415 1053,244 1267,-239 26,113 43,227 53,344 9,60 18,121 28,185"
   id="path347" />
  <path
   class="fil0 str0"
   d="m 9991.77,5924.6 c -12.96,834.87 -240.86,863.4 -1103.86,1142.4 -463,70 -794,317 -992,741 -174,305 -245,718 -212,1237 -12,102 -23,179 -33,232 -106,406 -159,1004 -159,1793 -194,284 -316,539 -385,849 94,210 245,354 453,432 246,93 516,28 812,-196 106,-250 156,-544 161,-938 147,-467 245,-1139 210,-1622 16,-428 -41,-718 -169,-870"
   id="path349" />
  <path
   class="fil0 str0"
   d="m 7492.91,11069 c 160,290 280,300 585,184"
   id="path351" />
  <path
   class="fil0 str1"
   d="m 8193.91,10788 c 93,-166 141,-374 143,-622"
   id="path353" />
  <path
   class="fil0 str0"
   d="m 7676.91,8754 c -5,209 39,365 131,468"
   id="path355" />
  <path
   class="fil0 str1"
   d="m 8463.91,8810 c 91,-58 145,-147 163,-269"
   id="path357" />
 </g>
 <g
   id="Upper_5"
   visibility="hidden"
   transform="translate(-5592.4895,-3106.3258)">
  <metadata
   id="CorelCorpID_6Corel-Layer" />
  <path
   class="fil0"
   d="m 9003.46,13162 c 562,163 747,-16 973,-316"
   id="path361" />
  <path
   class="fil0 str0"
   d="M 9982.8,5909.25 C 9974.76,6671.38 9742.54,6790 8879.54,7069 c -463,70 -794,317 -992,741 -174,305 -245,718 -212,1237 -12,102 -23,179 -33,232 -106,406 -159,1004 -159,1793 -261,382 -409,788 -443,1217 -25,172 -56,360 -93,562 95,151 232,260 394,337 144,53 351,58 577,-6 209,-420 356,-753 441,-998 106,-250 161,-572 165,-966 147,-467 245,-1139 210,-1622 16,-428 -41,-718 -169,-870"
   id="path363" />
  <path
   class="fil0 str0"
   d="m 7483.54,11071 c 160,290 280,300 585,184"
   id="path365" />
  <path
   class="fil0 str1"
   d="m 8184.54,10789 c 93,-166 141,-374 143,-622"
   id="path367" />
  <path
   class="fil0 str0"
   d="m 7667.54,8756 c -5,209 39,365 131,468"
   id="path369" />
  <path
   class="fil0 str1"
   d="m 8454.54,8812 c 91,-58 145,-147 163,-269"
   id="path371" />
 </g>
 <g
   id="Upper_6"
   transform="translate(-5592.4895,-3106.3258)">
  <metadata
   id="CorelCorpID_7Corel-Layer" />
  <path
   class="fil0"
   d="m 9262.06,14384 c 7,-23 14,-46 21,-69 -26,-86 -54,-172 -86,-257 483,112 527,-7 785,-238"
   id="path375" />
  <path
   class="fil0 str0"
   d="m 9984.35,5911.94 c -12,774 -240.21,882.06 -1103.21,1161.06 -463,70 -794,317 -992,741 -174,305 -245,718 -212,1237 -12,102 -23,179 -33,232 -106,406 -159,1004 -159,1793 -261,382 -409,788 -443,1217 -25,172 -56,360 -93,562 -76,419 -158,741 -247,970 91,102 225,198 344,254 113,33 277,31 460,-17 78,-210 174,-418 287,-624 278,-541 468,-957 569,-1250 106,-250 161,-572 165,-966 147,-467 245,-1139 210,-1622 16,-428 -41,-718 -169,-870"
   id="path377" />
  <path
   class="fil0 str0"
   d="m 7486.14,11075 c 160,290 280,300 585,184"
   id="path379" />
  <path
   class="fil0 str1"
   d="m 8187.14,10793 c 93,-166 141,-374 143,-622"
   id="path381" />
  <path
   class="fil0 str0"
   d="m 7670.14,8760 c -5,209 39,365 131,468"
   id="path383" />
  <path
   class="fil0 str1"
   d="m 8457.14,8816 c 91,-58 145,-147 163,-269"
   id="path385" />
 </g>
 <g
   id="Upper_7"
   visibility="hidden"
   transform="translate(-5592.4895,-3106.3258)">
  <metadata
   id="CorelCorpID_8Corel-Layer" />
  <path
   class="fil0 str0"
   d="m 9978,5891 c 45,404 5,637 -120,699 -342,224 -664,385 -966,483 -463,70 -794,317 -992,741 -174,305 -245,718 -212,1237 -12,102 -23,179 -33,232 -106,406 -159,1004 -159,1793 -261,382 -409,788 -443,1217 -25,172 -56,360 -93,562 -157,865 -339,1314 -556,1396 -187,121 -245,224 -372,392 -117,126 -245,263 -384,413 -27,45 -17,88 30,129 257,127 304,-152 523,-281 178,-38 -46,754 -71,878 -48,253 -70,426 -66,519 22,72 65,92 129,60 86,-129 188,-427 308,-893 -19,95 -293,1258 43,1098 64,-66 93,-176 136,-372 77,-432 116,-648 116,-648 -54,449 -84,759 -89,929 46,90 146,110 208,36 100,-404 164,-726 192,-966 -60,434 -57,685 10,754 65,21 115,-10 152,-93 56,-243 82,-443 79,-599 -13,-113 12,-235 73,-364 104,-313 106,-617 7,-913 90,-302 215,-600 377,-893 278,-541 468,-957 569,-1250 106,-250 161,-572 165,-966 147,-467 245,-1139 210,-1622 16,-428 -41,-718 -169,-870"
   id="path389" />
  <path
   class="fil0 str0"
   d="m 8756,9745 c 74,683 139,1379 127,1719 28,247 26,541 -3,883 -73,353 -123,705 -149,1055 -202,776 -320,1615 -354,2517 -43,1235 7,2186 150,2853 27,456 17,952 -29,1488 -40,402 -79,750 -116,1042 -66,408 -27,939 116,1593 132,422 211,891 238,1408 -6,215 -1,395 16,540 -48,138 -49,265 -5,381 6,144 -19,271 -74,381 -73,117 -124,219 -153,307 -46,53 -83,95 -111,127 -211,96 -311,188 -302,275"
   id="path391" />
  <path
   class="fil0 str0"
   d="m 12727,9745 c -74,683 -139,1379 -127,1719 -28,247 -26,541 3,883 73,353 123,705 149,1055 202,776 320,1615 354,2517 43,1235 -7,2186 -150,2853 -27,456 -17,952 29,1488 40,402 79,750 116,1042 66,408 27,939 -116,1593 -132,422 -211,891 -238,1408 6,215 1,395 -16,540 48,138 49,265 5,381 -6,144 19,271 74,381 73,117 124,219 153,307 46,53 83,95 111,127 211,96 311,188 302,275"
   id="path393" />
  <path
   class="fil0 str0"
   d="m 10345,14905 c 272,189 517,177 736,-37"
   id="path395" />
  <path
   class="fil0 str0"
   d="m 10617,15030 c -12,697 -96,1461 -251,2294 -54,393 -123,802 -206,1228 -47,378 -109,686 -184,925 -58,115 -123,235 -193,357 -22,50 -26,185 -13,405 -13,106 -86,201 -220,286 -140,84 -300,93 -479,26"
   id="path397" />
  <path
   class="fil0 str0"
   d="m 10866,15030 c 12,697 96,1461 251,2294 54,393 123,802 206,1228 47,378 109,686 184,925 191,379 233,315 206,762 13,106 86,201 220,286 140,84 300,93 479,26"
   id="path399" />
  <path
   class="fil0 str0"
   d="m 9988,19435 c -20,435 -61,794 -124,1078 -29,181 -125,406 -289,677"
   id="path401" />
  <path
   class="fil0 str0"
   d="m 11495,19435 c 20,435 61,794 124,1078 29,181 35,168 199,439"
   id="path403" />
  <path
   class="fil0 str0"
   d="m 9864,20513 c 1,326 8,604 23,833 -7,726 -17,1152 -214,1847 -119,594 -151,1111 -95,1550 136,242 136,432 0,572 6,156 29,397 69,725 112,184 114,327 5,429 -128,63 -190,91 -249,116 -208,46 -328,16 -360,-90 -60,-152 -9,-283 153,-392"
   id="path405" />
  <path
   class="fil0 str0"
   d="m 11618,20513 c -1,326 -8,604 -23,833 7,726 17,1152 214,1847 119,594 151,1111 95,1550 -136,242 -136,432 0,572 -6,156 -29,397 -69,725 -112,184 -114,327 -5,429 128,63 190,91 249,116 208,46 328,16 360,-90 60,-152 9,-283 -153,-392"
   id="path407" />
  <path
   class="fil0 str1"
   d="m 9030,26455 c -57,126 -141,157 -251,92 -139,-144 41,-313 148,-413"
   id="path409" />
  <path
   class="fil0 str1"
   d="m 12452,26455 c 57,126 141,157 251,92 139,-144 -41,-313 -148,-413"
   id="path411" />
  <path
   class="fil0 str1"
   d="m 8738,26482 c -32,72 -93,92 -183,59 -165,-84 -43,-312 77,-370"
   id="path413" />
  <path
   class="fil0 str1"
   d="m 12745,26482 c 32,72 93,92 183,59 165,-84 43,-312 -77,-370"
   id="path415" />
  <path
   class="fil0 str1"
   d="m 8478,26447 c -29,63 -79,87 -151,73 -178,-72 -49,-276 79,-341"
   id="path417" />
  <path
   class="fil0 str1"
   d="m 13004,26447 c 29,63 79,87 151,73 178,-72 49,-276 -79,-341"
   id="path419" />
  <path
   class="fil0 str1"
   d="m 8106,26291 c -25,118 26,191 151,171"
   id="path421" />
  <path
   class="fil0 str1"
   d="m 13376,26291 c 25,118 -26,191 -151,171"
   id="path423" />
  <path
   class="fil0 str0"
   d="m 7497,11075 c 62,156 136,255 220,295 112,17 234,-20 365,-111"
   id="path425" />
  <path
   class="fil0 str0"
   d="m 13986,11075 c -160,290 -280,300 -585,184"
   id="path427" />
  <path
   class="fil0 str0"
   d="m 8198,10793 c 93,-166 141,-374 143,-622"
   id="path429" />
  <path
   class="fil0 str1"
   d="m 13285,10793 c -93,-166 -141,-374 -143,-622"
   id="path431" />
  <path
   class="fil0 str1"
   d="m 8468,8815 c 91,-58 145,-147 163,-269"
   id="path433" />
  <path
   class="fil0 str1"
   d="m 13015,8815 c -91,-58 -145,-147 -163,-269"
   id="path435" />
  <path
   class="fil0 str0"
   d="m 9033,9743 c -181,-84 -281,-282 -300,-594"
   id="path437" />
  <path
   class="fil0 str0"
   d="m 12511,9676 c 181,-84 220,-216 240,-528"
   id="path439" />
  <path
   class="fil0 str1"
   d="m 7681,8760 c -5,209 39,365 131,468"
   id="path441" />
  <path
   class="fil0 str0"
   d="m 13802,8760 c 5,209 -39,365 -131,468"
   id="path443" />
  <path
   class="fil0 str0"
   d="m 9755,4507 c -322,-133 -171,401 -100,556 0,164 56,249 169,253"
   id="path445" />
  <path
   class="fil0 str0"
   d="m 11618,4507 c 322,-133 171,401 100,556 0,164 -56,249 -169,253"
   id="path447" />
  <path
   class="fil0 str0"
   d="m 9078,11977 c -302,603 -382,1150 -238,1640"
   id="path449" />
  <path
   class="fil0 str0"
   d="m 12405,11977 c 225,634 382,1150 238,1640"
   id="path451" />
  <path
   class="fil0 str1"
   d="m 9260,9806 c 67,47 146,54 243,53"
   id="path453" />
  <path
   class="fil0 str1"
   d="m 12229,9820 c -81,30 -152,40 -249,38"
   id="path455" />
  <path
   class="fil0 str0"
   d="m 9405,7023 c 186,116 564,171 762,71 59,-25 116,-14 169,13 82,53 101,94 117,143"
   id="path457" />
  <path
   class="fil0 str0"
   d="m 12078,7023 c -484,302 -922,-142 -1049,228"
   id="path459" />
  <path
   class="fil0 str1"
   d="m 10542,7068 c 40,130 80,211 180,238 106,-19 142,-101 159,-233"
   id="path461" />
  <path
   class="fil0 str0"
   d="m 8527,18772 c 45,95 95,209 150,342 -6,119 4,236 29,352 27,71 55,116 82,132"
   id="path463" />
  <path
   class="fil0 str0"
   d="m 12986,18618 c -5,108 -126,364 -181,497 6,119 -4,236 -29,352 -27,71 -55,116 -82,132"
   id="path465" />
  <path
   class="fil0 str0"
   d="m 9960,4496 c 207,-70 377,-42 572,-5"
   id="path467" />
  <path
   class="fil0 str1"
   d="m 10050,4676 c 140,-80 284,-78 434,8"
   id="path469" />
  <path
   class="fil0 str1"
   d="m 11384,4676 c -140,-80 -284,-78 -434,8"
   id="path471" />
  <path
   class="fil0 str2"
   d="m 10143,4755 c 150,45 233,7 248,-114"
   id="path473" />
  <path
   class="fil0 str2"
   d="m 11292,4755 c -150,45 -270,13 -248,-114"
   id="path475" />
  <circle
   class="fil1 str5"
   cx="10258"
   cy="4699"
   r="77"
   id="circle477" />
  <circle
   class="fil1 str5"
   cx="11177"
   cy="4699"
   r="77"
   id="circle479" />
  <path
   class="fil0 str1"
   d="m 6423,14242 c 128,-51 234,-66 318,-44"
   id="path481" />
  <path
   class="fil0 str1"
   d="m 7448,14397 c -52,-70 -107,-116 -167,-137"
   id="path483" />
  <path
   class="fil0 str1"
   d="m 14035,14397 c 52,-70 107,-116 167,-137"
   id="path485" />
  <path
   class="fil0 str1"
   d="m 6440,15098 c 255,-72 404,-221 447,-447"
   id="path487" />
  <path
   class="fil0 str1"
   d="m 6609,15188 c 178,-120 378,-153 601,-98"
   id="path489" />
  <path
   class="fil0 str1"
   d="m 6382,15392 c 72,74 162,101 267,79"
   id="path491" />
  <path
   class="fil0 str1"
   d="m 6796,15544 c 83,-18 144,-41 181,-70"
   id="path493" />
  <path
   class="fil0 str1"
   d="m 7106,15544 c 62,-24 103,-55 124,-92"
   id="path495" />
  <path
   class="fil0 str1"
   d="m 10708,8256 c 7,318 7,537 0,659"
   id="path497" />
  <path
   class="fil0 str1"
   d="m 10591,10042 c 64,-27 108,-60 132,-101 1,175 -7,345 -24,511"
   id="path499" />
  <path
   class="fil0 str1"
   d="m 10742,12682 c -164,-74 -200,-170 -108,-286 106,-56 189,-44 249,37"
   id="path501" />
  <path
   class="fil0 str1"
   d="m 10600,12548 c 126,49 217,-37 176,-173"
   id="path503" />
  <path
   class="fil0 str1"
   d="m 9022,26342 c 180,-22 299,-16 321,25 52,-32 63,-72 32,-119 -83,-63 -184,-72 -303,-27"
   id="path505" />
  <path
   class="fil0 str1"
   d="m 12461,26342 c -180,-22 -299,-16 -321,25 -52,-32 -63,-72 -32,-119 139,-33 183,-39 303,-27"
   id="path507" />
  <path
   class="fil0 str1"
   d="m 8256,26334 c 83,-14 159,-14 189,-2"
   id="path509" />
  <path
   class="fil0 str1"
   d="m 13226,26334 c -83,-14 -159,-14 -189,-2"
   id="path511" />
  <path
   class="fil0 str1"
   d="m 8487,26343 c 85,-17 152,-18 199,-3"
   id="path513" />
  <path
   class="fil0 str1"
   d="m 12996,26343 c -85,-17 -152,-18 -199,-3"
   id="path515" />
  <path
   class="fil0 str1"
   d="m 8745,26347 c 83,-30 155,-30 216,2"
   id="path517" />
  <path
   class="fil0 str1"
   d="m 12738,26347 c -83,-30 -155,-30 -216,2"
   id="path519" />
  <path
   class="fil0 str1"
   d="m 8256,26334 c -29,-24 -55,-27 -81,-10"
   id="path521" />
  <path
   class="fil0 str1"
   d="m 13226,26334 c 29,-24 55,-27 81,-10"
   id="path523" />
  <path
   class="fil0 str1"
   d="m 10859,5122 c -18,-108 -41,-301 -41,-500 0,-41 3,-93 14,-130 209,-57 490,-31 614,42"
   id="path525" />
  <path
   class="fil0 str0"
   d="m 10833,4492 c 209,-57 490,-31 614,42"
   id="path527" />
  <path
   class="fil0 str3"
   d="m 10364,5625 c 43,56 138,61 201,37 23,-32 50,-41 79,-29 128,77 181,-20 235,-13 64,-10 85,106 193,37"
   id="path529" />
  <path
   class="fil0 str2"
   d="m 10507,5758 c 1,33 19,58 53,75 50,33 107,50 171,50"
   id="path531" />
  <path
   class="fil0 str1"
   d="m 10955,5758 c -1,33 -19,58 -53,75 -50,33 -107,50 -171,50"
   id="path533" />
  <path
   class="fil1 str1"
   d="m 10906,5811 c -132,95 -244,96 -336,4 53,-1 102,14 155,13 59,-1 121,-13 181,-17 z"
   id="path535" />
  <path
   class="fil0 str0"
   d="m 10556,5303 c 188,74 290,77 307,11"
   id="path537" />
  <path
   class="fil1 str5"
   d="m 10837,5661 c -67,105 -131,91 -179,12 -2,-5 -14,-22 -13,-24 5,-12 55,14 96,14 38,0 100,-31 113,-28 4,1 -16,24 -18,27 z"
   id="path539" />
  <path
   class="fil0 str0"
   d="m 11504,5690 c 48,-242 -5,-483 66,-718 50,-165 47,-328 46,-486 14,-590 -28,-1237 -615,-1323 -181,-18 -363,-36 -562,0 -495,114 -698,486 -688,1204 3,470 52,922 146,1356 147,356 363,568 648,635 135,27 241,16 303,-2 227,-68 595,-442 656,-666 z"
   id="path541" />
  <path
   class="fil0 str0"
   d="m 11504,5690 c -105,943 223,1103 1086,1382 463,70 794,317 992,741 174,305 245,718 212,1237 12,102 23,179 33,232 106,406 159,1004 159,1793 261,382 409,788 443,1217 25,172 56,360 93,562 123,678 262,1101 420,1291 117,97 191,265 252,457 68,192 -41,374 -293,472 -336,146 -758,104 -913,-192 -62,-227 8,-371 68,-552 -90,-302 -215,-600 -377,-893 -278,-541 -468,-957 -569,-1250 -106,-250 -161,-572 -165,-966 -147,-467 -245,-1139 -210,-1622 -16,-428 41,-718 169,-870"
   id="path543" />
  <path
   class="fil0 str1"
   d="m 15059,14242 c -128,-51 -234,-66 -318,-44"
   id="path545" />
  <path
   class="fil0 str4"
   d="m 10384,5645 c 30,52 79,75 147,68"
   id="path547" />
  <path
   class="fil0 str5"
   d="m 11062,5645 c -30,52 -79,75 -147,68"
   id="path549" />
  <path
   class="fil0 str5"
   d="m 10507,5758 c 8,-10 32,-12 73,-8"
   id="path551" />
  <path
   class="fil0 str1"
   d="m 14601,14713 c -1,138 74,265 225,380"
   id="path553" />
 </g>
</svg>
