<?xml version="1.0" encoding="UTF-8" standalone="no"?>
<svg
   xmlns:dc="http://purl.org/dc/elements/1.1/"
   xmlns:cc="http://creativecommons.org/ns#"
   xmlns:rdf="http://www.w3.org/1999/02/22-rdf-syntax-ns#"
   xmlns:svg="http://www.w3.org/2000/svg"
   xmlns="http://www.w3.org/2000/svg"
   xmlns:sodipodi="http://sodipodi.sourceforge.net/DTD/sodipodi-0.dtd"
   xmlns:inkscape="http://www.inkscape.org/namespaces/inkscape"
   xml:space="preserve"
   width="102.84021mm"
   height="235.30574mm"
   version="1.1"
   style="clip-rule:evenodd;fill-rule:evenodd;image-rendering:optimizeQuality;shape-rendering:geometricPrecision;text-rendering:geometricPrecision"
   viewBox="0 0 10284.021 23530.574"
   id="svg218"
   sodipodi:docname="Remake_lower_7.svg"
   inkscape:version="1.0.2 (e86c870879, 2021-01-15)"><metadata
   id="metadata222"><rdf:RDF><cc:Work
       rdf:about=""><dc:format>image/svg+xml</dc:format><dc:type
         rdf:resource="http://purl.org/dc/dcmitype/StillImage" /></cc:Work></rdf:RDF></metadata><sodipodi:namedview
   pagecolor="#ffffff"
   bordercolor="#666666"
   borderopacity="1"
   objecttolerance="10"
   gridtolerance="10"
   guidetolerance="10"
   inkscape:pageopacity="0"
   inkscape:pageshadow="2"
   inkscape:window-width="797"
   inkscape:window-height="480"
   id="namedview220"
   showgrid="false"
   inkscape:zoom="0.72248176"
   inkscape:cx="185.48071"
   inkscape:cy="443.8554"
   inkscape:window-x="23"
   inkscape:window-y="15"
   inkscape:window-maximized="0"
   inkscape:current-layer="svg218" />
 <defs
   id="defs4">
  <style
   type="text/css"
   id="style2">
   <![CDATA[
    .str3 {stroke:black;stroke-width:33.87;stroke-miterlimit:22.9256}
    .str4 {stroke:black;stroke-width:8.47;stroke-miterlimit:22.9256}
    .str0 {stroke:black;stroke-width:67.73;stroke-miterlimit:22.9256}
    .str1 {stroke:black;stroke-width:42.33;stroke-miterlimit:22.9256}
    .str2 {stroke:black;stroke-width:25.4;stroke-miterlimit:22.9256}
    .str5 {stroke:black;stroke-width:7.62;stroke-miterlimit:22.9256}
    .fil0 {fill:none}
    .fil1 {fill:black}
   ]]>
  </style>
 </defs>
 <g
   id="????_x0020_1"
   transform="translate(-5592.4895,-3106.3258)">
  <metadata
   id="CorelCorpID_0Corel-Layer" />
  <path
   class="fil0 str0"
   d="m 9971,5889 c 45,404 5,637 -120,699 -342,224 -664,385 -966,483 -463,70 -794,317 -992,741 -174,305 -245,718 -212,1237 -12,102 -23,179 -33,232 -106,406 -159,1004 -159,1793 -261,382 -409,788 -443,1217 -25,172 -56,360 -93,562 -157,865 -339,1314 -556,1396 -187,121 -245,224 -372,392 -117,126 -245,263 -384,413 -27,45 -17,88 30,129 257,127 304,-152 523,-281 178,-38 -46,754 -71,878 -48,253 -70,426 -66,519 22,72 65,92 129,60 86,-129 188,-427 308,-893 -19,95 -293,1258 43,1098 64,-66 93,-176 136,-372 77,-432 116,-648 116,-648 -54,449 -84,759 -89,929 46,90 146,110 208,36 100,-404 164,-726 192,-966 -60,434 -57,685 10,754 65,21 115,-10 152,-93 56,-243 82,-443 79,-599 -13,-113 12,-235 73,-364 104,-313 106,-617 7,-913 90,-302 215,-600 377,-893 278,-541 468,-957 569,-1250 106,-250 161,-572 165,-966 147,-467 245,-1139 210,-1622 16,-428 -41,-718 -169,-870"
   id="path7" />
  <path
   class="fil0 str0"
   d="m 8749,9743 c 74,683 139,1379 127,1719 28,247 26,541 -3,883 -73,353 -123,705 -149,1055 -202,776 -320,1615 -354,2517 -43,1235 7,2186 150,2853 27,456 17,952 -29,1488 -40,402 -79,750 -116,1042 -66,408 -27,939 116,1593 132,422 211,891 238,1408 -6,215 -1,395 16,540 -48,138 -49,265 -5,381 6,144 -19,271 -74,381 -73,117 -124,219 -153,307 -46,53 -83,95 -111,127 -211,96 -311,188 -302,275"
   id="path9" />
  <path
   class="fil0 str0"
   d="m 10338,14903 c 272,189 517,177 736,-37"
   id="path11" />
  <path
   class="fil0 str0"
   d="m 10610,15027 c -12,697 -96,1461 -251,2294 -54,393 -123,802 -206,1228 -47,378 -109,686 -184,925 -58,115 -123,235 -193,357 -22,50 -26,185 -13,405 -13,106 -86,201 -220,286 -140,84 -300,93 -479,26"
   id="path13" />
  <path
   class="fil0 str0"
   d="m 9981,19432 c -20,435 -61,794 -124,1078 -29,181 -125,406 -289,677"
   id="path15" />
  <path
   class="fil0 str0"
   d="m 9857,20510 c 1,326 8,604 23,833 -7,726 -17,1152 -214,1847 -119,594 -151,1111 -95,1550 136,242 136,432 0,572 6,156 29,397 69,725 112,184 114,327 5,429 -128,63 -190,91 -249,116 -208,46 -328,16 -360,-90 -60,-152 -9,-283 153,-392"
   id="path17" />
  <path
   class="fil0 str1"
   d="m 9023,26453 c -57,126 -141,157 -251,92 -139,-144 41,-313 148,-413"
   id="path19" />
  <path
   class="fil0 str1"
   d="m 8731,26479 c -32,72 -93,92 -183,59 -165,-84 -43,-312 77,-370"
   id="path21" />
  <path
   class="fil0 str1"
   d="m 8471,26444 c -29,63 -79,87 -151,73 -178,-72 -49,-276 79,-341"
   id="path23" />
  <path
   class="fil0 str1"
   d="m 8099,26288 c -25,118 26,191 151,171"
   id="path25" />
  <path
   class="fil0 str0"
   d="m 7490,11072 c 62,156 136,255 220,295 112,17 234,-20 365,-111"
   id="path27" />
  <path
   class="fil0 str0"
   d="m 13979,11072 c -160,290 -280,300 -585,184"
   id="path29" />
  <path
   class="fil0 str0"
   d="m 8191,10790 c 93,-166 141,-374 143,-622"
   id="path31" />
  <path
   class="fil0 str1"
   d="m 13278,10790 c -93,-166 -141,-374 -143,-622"
   id="path33" />
  <path
   class="fil0 str1"
   d="m 8461,8812 c 91,-58 145,-147 163,-269"
   id="path35" />
  <path
   class="fil0 str1"
   d="m 13008,8812 c -91,-58 -145,-147 -163,-269"
   id="path37" />
  <path
   class="fil0 str0"
   d="m 9026,9740 c -181,-84 -281,-282 -300,-594"
   id="path39" />
  <path
   class="fil0 str0"
   d="m 12504,9674 c 181,-84 220,-216 240,-528"
   id="path41" />
  <path
   class="fil0 str1"
   d="m 7674,8757 c -5,209 39,365 131,468"
   id="path43" />
  <path
   class="fil0 str0"
   d="m 13795,8757 c 5,209 -39,365 -131,468"
   id="path45" />
  <path
   class="fil0 str0"
   d="m 9748,4505 c -322,-133 -171,401 -100,556 0,164 56,249 169,253"
   id="path47" />
  <path
   class="fil0 str0"
   d="m 11611,4505 c 322,-133 171,401 100,556 0,164 -56,249 -169,253"
   id="path49" />
  <path
   class="fil0 str0"
   d="m 9071,11974 c -302,603 -382,1150 -238,1640"
   id="path51" />
  <path
   class="fil0 str0"
   d="m 12398,11974 c 225,634 382,1150 238,1640"
   id="path53" />
  <path
   class="fil0 str1"
   d="m 9253,9803 c 67,47 146,54 243,53"
   id="path55" />
  <path
   class="fil0 str1"
   d="m 12222,9817 c -81,30 -152,40 -249,38"
   id="path57" />
  <path
   class="fil0 str0"
   d="m 9398,7020 c 186,116 564,171 762,71 59,-25 116,-14 169,13 82,53 101,94 117,143"
   id="path59" />
  <path
   class="fil0 str0"
   d="m 12071,7020 c -484,302 -922,-142 -1049,228"
   id="path61" />
  <path
   class="fil0 str1"
   d="m 10535,7065 c 40,130 80,211 180,238 106,-19 142,-101 159,-233"
   id="path63" />
  <path
   class="fil0 str0"
   d="m 8520,18769 c 45,95 95,209 150,342 -6,119 4,236 29,352 27,71 55,116 82,132"
   id="path65" />
  <path
   class="fil0 str0"
   d="m 9953,4493 c 207,-70 377,-42 572,-5"
   id="path67" />
  <path
   class="fil0 str1"
   d="m 10043,4673 c 140,-80 284,-78 434,8"
   id="path69" />
  <path
   class="fil0 str1"
   d="m 11378,4673 c -140,-80 -284,-78 -434,8"
   id="path71" />
  <path
   class="fil0 str2"
   d="m 10136,4752 c 150,45 233,7 248,-114"
   id="path73" />
  <path
   class="fil0 str2"
   d="m 11285,4752 c -150,45 -270,13 -248,-114"
   id="path75" />
  <circle
   class="fil1"
   cx="10251"
   cy="4696"
   r="77"
   id="circle77" />
  <circle
   class="fil1"
   cx="11170"
   cy="4696"
   r="77"
   id="circle79" />
  <path
   class="fil0 str1"
   d="m 6416,14239 c 128,-51 234,-66 318,-44"
   id="path81" />
  <path
   class="fil0 str1"
   d="m 7441,14394 c -52,-70 -107,-116 -167,-137"
   id="path83" />
  <path
   class="fil0 str1"
   d="m 14028,14394 c 52,-70 107,-116 167,-137"
   id="path85" />
  <path
   class="fil0 str1"
   d="m 6433,15095 c 255,-72 404,-221 447,-447"
   id="path87" />
  <path
   class="fil0 str1"
   d="m 6602,15185 c 178,-120 378,-153 601,-98"
   id="path89" />
  <path
   class="fil0 str1"
   d="m 6375,15389 c 72,74 162,101 267,79"
   id="path91" />
  <path
   class="fil0 str1"
   d="m 6789,15541 c 83,-18 144,-41 181,-70"
   id="path93" />
  <path
   class="fil0 str1"
   d="m 7100,15541 c 62,-24 103,-55 124,-92"
   id="path95" />
  <path
   class="fil0 str1"
   d="m 14369,15541 c -62,-24 -103,-55 -124,-92"
   id="path97" />
  <path
   class="fil0 str1"
   d="m 10701,8253 c 7,318 7,537 0,659"
   id="path99" />
  <path
   class="fil0 str1"
   d="m 10584,10039 c 64,-27 108,-60 132,-101 1,175 -7,345 -24,511"
   id="path101" />
  <path
   class="fil0 str1"
   d="m 10735,12680 c -164,-74 -200,-170 -108,-286 106,-56 189,-44 249,37"
   id="path103" />
  <path
   class="fil0 str1"
   d="m 10593,12545 c 126,49 217,-37 176,-173"
   id="path105" />
  <path
   class="fil0 str1"
   d="m 9015,26339 c 180,-22 299,-16 321,25 52,-32 63,-72 32,-119 -83,-63 -184,-72 -303,-27"
   id="path107" />
  <path
   class="fil0 str1"
   d="m 8249,26331 c 83,-14 159,-14 189,-2"
   id="path109" />
  <path
   class="fil0 str1"
   d="m 8480,26340 c 85,-17 152,-18 199,-3"
   id="path111" />
  <path
   class="fil0 str1"
   d="m 8738,26344 c 83,-30 155,-30 216,2"
   id="path113" />
  <path
   class="fil0 str1"
   d="m 8249,26331 c -29,-24 -55,-27 -81,-10"
   id="path115" />
  <path
   class="fil0 str1"
   d="m 10852,5119 c -18,-108 -41,-301 -41,-500 0,-41 3,-93 14,-130 209,-57 490,-31 614,42"
   id="path117" />
  <path
   class="fil0 str0"
   d="m 10826,4489 c 209,-57 490,-31 614,42"
   id="path119" />
  <path
   class="fil0 str3"
   d="m 10357,5622 c 43,56 138,61 201,37 23,-32 50,-41 79,-29 128,77 181,-20 235,-13 64,-10 85,106 193,37"
   id="path121" />
  <path
   class="fil0 str2"
   d="m 10500,5755 c 1,33 19,58 53,75 50,33 107,50 171,50"
   id="path123" />
  <path
   class="fil0 str1"
   d="m 10948,5755 c -1,33 -19,58 -53,75 -50,33 -107,50 -171,50"
   id="path125" />
  <path
   class="fil1 str1"
   d="m 10899,5808 c -132,95 -244,96 -336,4 53,-1 102,14 155,13 59,-1 121,-13 181,-17 z"
   id="path127" />
  <path
   class="fil0 str0"
   d="m 10549,5300 c 188,74 290,77 307,11"
   id="path129" />
  <path
   class="fil1"
   d="m 10830,5658 c -67,105 -131,91 -179,12 -2,-5 -14,-22 -13,-24 5,-12 55,14 96,14 38,0 100,-31 113,-28 4,1 -16,24 -18,27 z"
   id="path131" />
  <path
   class="fil0 str0"
   d="m 11498,5688 c 48,-242 -5,-483 66,-718 50,-165 47,-328 46,-486 14,-590 -28,-1237 -615,-1323 -181,-18 -363,-36 -562,0 -495,114 -698,486 -688,1204 3,470 52,922 146,1356 147,356 363,568 648,635 135,27 241,16 303,-2 227,-68 595,-442 656,-666 z"
   id="path133" />
  <path
   class="fil0 str0"
   d="m 11498,5688 c -105,943 223,1103 1086,1382 463,70 794,317 992,741 174,305 245,718 212,1237 12,102 23,179 33,232 106,406 159,1004 159,1793 261,382 409,788 443,1217 25,172 56,360 93,562 157,865 339,1314 556,1396 187,121 245,224 372,392 117,126 245,263 384,413 27,45 17,88 -30,129 -257,127 -304,-152 -523,-281 -178,-38 46,754 71,878 48,253 70,426 66,519 -22,72 -65,92 -129,60 -86,-129 -188,-427 -308,-893 19,95 293,1258 -43,1098 -64,-66 -93,-176 -136,-372 -77,-432 -116,-648 -116,-648 54,449 84,759 89,929 -264,289 -389,-832 -400,-929 60,434 57,685 -10,754 -65,21 -115,-10 -152,-93 -56,-243 -82,-443 -79,-599 13,-113 -12,-235 -73,-364 -104,-313 -106,-617 -7,-913 -90,-302 -215,-600 -377,-893 -278,-541 -468,-957 -569,-1250 -106,-250 -161,-572 -165,-966 -147,-467 -245,-1139 -210,-1622 -16,-428 41,-718 169,-870"
   id="path135" />
  <path
   class="fil0 str1"
   d="m 15052,14239 c -128,-51 -234,-66 -318,-44"
   id="path137" />
  <path
   class="fil0 str1"
   d="m 15036,15095 c -255,-72 -404,-221 -447,-447"
   id="path139" />
  <path
   class="fil0 str1"
   d="m 14867,15185 c -178,-120 -378,-153 -601,-98"
   id="path141" />
  <path
   class="fil0 str1"
   d="m 15094,15389 c -72,74 -162,101 -267,79"
   id="path143" />
  <path
   class="fil0 str1"
   d="m 14680,15541 c -83,-18 -144,-41 -181,-70"
   id="path145" />
  <path
   class="fil0 str4"
   d="m 10377,5642 c 30,52 79,75 147,68"
   id="path147" />
  <path
   class="fil0 str5"
   d="m 11055,5642 c -30,52 -79,75 -147,68"
   id="path149" />
  <path
   class="fil0 str5"
   d="m 10500,5755 c 8,-10 32,-12 73,-8"
   id="path151" />
 </g>
 <g
   id="Lower_1"
   visibility="hidden"
   transform="translate(-5592.4895,-3106.3258)">
  <metadata
   id="CorelCorpID_1Corel-Layer" />
  <path
   class="fil0"
   d="m 13109,16090 c -2,-53 -3,-107 -5,-162 -34,-902 -152,-1741 -354,-2517 -332,1000 -743,1631 -1233,1892 -314,63 -532,-25 -654,-265 1,36 1,72 2,108"
   id="path155" />
  <path
   class="fil0 str0"
   d="m 12725,9746 c -74,683 -139,1379 -127,1719 -28,247 -26,541 3,883 73,353 123,713 149,1063 -168,508 -359,924 -574,1248 -211,311 -389,530 -659,644 -280,63 -542,-47 -626,-269"
   id="path157" />
  <path
   class="fil0 str0"
   d="m 10615,15030 c -12,697 -96,1461 -251,2294 -54,393 -123,802 -206,1228 -47,378 -109,686 -184,925 -191,379 -233,315 -206,762 -13,106 -86,201 -220,286 -140,84 -300,93 -479,26"
   id="path159" />
 </g>
 <g
   id="Lower_2"
   visibility="hidden"
   transform="translate(-5592.4895,-3106.3258)">
  <metadata
   id="CorelCorpID_2Corel-Layer" />
  <path
   class="fil0 str0"
   d="m 12715.9,9715.51 c -74,683 -139,1379 -127,1719 -28,247 -26,541 3,883 73,353 123,705 149,1055 188,722 303,1498 346,2328 -63,380 -333,602 -751,720 -632,111 -1184,-24 -1423,-459 -33,-334 -53,-655 -58,-963"
   id="path163" />
 </g>
 <g
   id="Lower_3"
   visibility="hidden"
   transform="translate(-5592.4895,-3106.3258)">
  <metadata
   id="CorelCorpID_3Corel-Layer" />
  <path
   class="fil0 str0"
   d="m 13038,17981 c -248,446 -520,671 -816,675 -431,8 -758,-186 -979,-584"
   id="path167" />
  <path
   class="fil0 str0"
   d="m 12709,9606 c -74,683 -139,1379 -127,1719 -28,247 -26,541 3,883 73,353 123,705 149,1055 202,776 320,1615 354,2517 31,882 14,1619 -50,2211"
   id="path169" />
  <path
   class="fil0 str0"
   d="m 10848,15027 c 12,667.08 96,1398.29 251,2195.54 40,277.56 88,563.72 144,859.46"
   id="path171" />
 </g>
 <g
   id="Lower_4"
   visibility="hidden"
   transform="translate(-5592.4895,-3106.3258)">
  <metadata
   id="CorelCorpID_4Corel-Layer" />
  <path
   class="fil0 str0"
   d="m 11599,20514 c -1,326 -8,604 -23,833 0,6 0,12 0,18 48,262 270,429 498,505 150,47 317,28 503,-56 256,-145 490,-407 483,-689 -31,-252 -62,-540 -94,-864 -46,-536 -56,-1032 -29,-1488 143,-666 193,-1617 150,-2853 -34,-902 -152,-1741 -354,-2517 -26,-350 -76,-702 -149,-1055 -30,-342 -31,-636 -3,-883 -13,-340 52,-1037 127,-1719"
   id="path175" />
  <path
   class="fil0 str0"
   d="m 10836,15030 c 12,697 96,1461 251,2294 54,393 123,802 206,1228 47,378 109,686 184,925 58,115 123,235 193,357 22,50 26,185 13,405 13,106 86,201 220,286 140,84 300,93 479,26"
   id="path177" />
  <path
   class="fil0 str0"
   d="m 11475,19436 c 20,435 61,794 124,1078 29,181 125,406 289,677"
   id="path179" />
  <path
   class="fil0 str0"
   d="m 12936,18773 c -45,95 -95,209 -150,342 6,119 -4,236 -29,352 -27,71 -55,116 -82,132"
   id="path181" />
 </g>
 <g
   id="Lower_5"
   visibility="hidden"
   transform="translate(-5592.4895,-3106.3258)">
  <metadata
   id="CorelCorpID_5Corel-Layer" />
  <path
   class="fil0 str0"
   d="m 11467,19416 c 20,435 61,794 124,1078 29,181 125,406 289,677"
   id="path185" />
  <path
   class="fil0 str0"
   d="m 11591,20474 c -1,326 -8,604 -23,833 7,718 16,1143 208,1825"
   id="path187" />
  <path
   class="fil0 str0"
   d="m 12928,18753 c -45,95 -95,209 -150,342 6,119 -4,236 -29,352 -27,71 -55,116 -82,132"
   id="path189" />
  <path
   class="fil0 str0"
   d="m 12699,9726 c -74,683 -139,1379 -127,1719 -28,247 -26,541 3,883 73,353 123,705 149,1055 202,776 320,1615 354,2517 43,1235 -7,2186 -150,2853 -27,456 -17,952 29,1488 40,402 79,750 116,1042 66,408 27,939 -116,1593 -2,5 -3,11 -5,16"
   id="path191" />
  <path
   class="fil0 str0"
   d="m 12965,22873 c -181,287 -387,440 -620,459 -256,18 -455,-65 -596,-248"
   id="path193" />
  <path
   class="fil0 str0"
   d="m 10838,15010 c 12,697 96,1461 251,2294 54,393 123,802 206,1228 47,378 109,686 184,925 58,115 123,235 193,357 22,50 26,185 13,405 13,106 86,201 220,286 140,84 300,93 479,26"
   id="path195" />
 </g>
 <g
   id="Lower_6"
   visibility="hidden"
   transform="translate(-5592.4895,-3106.3258)">
  <metadata
   id="CorelCorpID_6Corel-Layer" />
  <path
   class="fil0 str0"
   d="m 11614,20504 c -1,326 -8,604 -23,833 7,726 17,1152 214,1847 119,594 151,1111 95,1550 -136,242 -136,432 0,572 -1,25 -2,53 -4,83 282,54 564,36 839,-48 -4,-40 -5,-82 -3,-126 44,-116 42,-243 -5,-381 17,-144 22,-324 16,-540 27,-517 107,-986 238,-1408 144,-654 183,-1185 116,-1593 -38,-293 -77,-640 -116,-1042 -46,-536 -56,-1032 -29,-1488 143,-666 193,-1617 150,-2853 -34,-902 -152,-1741 -354,-2517 -26,-350 -76,-702 -149,-1055 -30,-342 -31,-636 -3,-883 -13,-340 52,-1037 127,-1719"
   id="path199" />
  <path
   class="fil0 str0"
   d="m 10861,15020 c 12,697 96,1461 251,2294 54,393 123,802 206,1228 47,378 109,686 184,925 58,115 123,235 193,357 22,50 26,185 13,405 13,106 86,201 220,286 140,84 300,93 479,26"
   id="path201" />
  <path
   class="fil0 str0"
   d="m 11490,19426 c 20,435 61,794 124,1078 29,181 125,406 289,677"
   id="path203" />
  <path
   class="fil0 str0"
   d="m 12952,18763 c -45,95 -95,209 -150,342 6,119 -4,236 -29,352 -27,71 -55,116 -82,132"
   id="path205" />
 </g>
 <g
   id="Lower_7"
   transform="translate(-5592.4895,-3106.3258)">
  <metadata
   id="CorelCorpID_7Corel-Layer" />
  <path
   class="fil0 str0"
   d="m 11618,20474 c -1,326 -8,604 -23,833 7,726 17,1152 214,1847 119,594 151,1111 95,1550 -136,242 -136,432 0,572 -5,116 -18,279 -42,489 358,167 743,160 1055,-3 -28,-60 -64,-125 -108,-195 -55,-110 -80,-237 -74,-381 44,-116 42,-243 -5,-381 17,-144 22,-324 16,-540 27,-517 107,-986 238,-1408 144,-654 183,-1185 116,-1593 -38,-293 -77,-640 -116,-1042 -46,-536 -56,-1032 -29,-1488 143,-666 193,-1617 150,-2853 -34,-902 -152,-1741 -354,-2517 -26,-350 -76,-702 -149,-1055 -30,-342 -31,-636 -3,-883 -13,-340 52,-1037 127,-1719"
   id="path209" />
  <path
   class="fil0 str0"
   d="m 10866,14990 c 12,697 96,1461 251,2294 54,393 123,802 206,1228 47,378 109,686 184,925 58,115 123,235 193,357 22,50 26,185 13,405 13,106 86,201 220,286 140,84 300,93 479,26"
   id="path211" />
  <path
   class="fil0 str0"
   d="m 11495,19396 c 20,435 61,794 124,1078 29,181 125,406 289,677"
   id="path213" />
  <path
   class="fil0 str0"
   d="m 12956,18733 c -45,95 -95,209 -150,342 6,119 -4,236 -29,352 -27,71 -55,116 -82,132"
   id="path215" />
 </g>
</svg>
